<svg width="70" height="70" viewBox="0 0 70 70" fill="none" xmlns="http://www.w3.org/2000/svg">
<path fill-rule="evenodd" clip-rule="evenodd" d="M5.124 5.124C0 10.255 0 18.501 0 35C0 51.499 0 59.7485 5.124 64.8725C10.255 70 18.501 70 35 70C51.499 70 59.7485 70 64.8725 64.8725C70 59.752 70 51.499 70 35C70 18.501 70 10.2515 64.8725 5.124C59.752 0 51.499 0 35 0C18.501 0 10.2515 0 5.124 5.124ZM29.904 19.3095C30.1416 19.0597 30.3277 18.7655 30.4517 18.4438C30.5756 18.1221 30.635 17.7791 30.6264 17.4344C30.6177 17.0897 30.5413 16.7502 30.4015 16.435C30.2616 16.1199 30.0611 15.8354 29.8112 15.5977C29.5614 15.3601 29.2673 15.174 28.9455 15.0501C28.6238 14.9261 28.2808 14.8668 27.9362 14.8754C27.5915 14.884 27.2519 14.9604 26.9368 15.1003C26.6216 15.2401 26.3371 15.4407 26.0995 15.6905L18.0005 24.1955L15.9005 21.9905C15.6654 21.7307 15.3808 21.5206 15.0633 21.3726C14.7457 21.2246 14.4018 21.1416 14.0517 21.1286C13.7016 21.1156 13.3525 21.1727 13.0249 21.2967C12.6972 21.4208 12.3977 21.6091 12.144 21.8507C11.8903 22.0922 11.6875 22.3821 11.5476 22.7033C11.4076 23.0245 11.3334 23.3704 11.3293 23.7207C11.3251 24.071 11.3911 24.4186 11.5234 24.743C11.6557 25.0674 11.8516 25.362 12.0995 25.6095L16.1 29.8095C16.3452 30.0668 16.64 30.2717 16.9667 30.4116C17.2934 30.5516 17.6451 30.6238 18.0005 30.6238C18.3559 30.6238 18.7076 30.5516 19.0343 30.4116C19.361 30.2717 19.6558 30.0668 19.901 29.8095L29.904 19.3095ZM38.5 21.875C37.8038 21.875 37.1361 22.1516 36.6438 22.6438C36.1516 23.1361 35.875 23.8038 35.875 24.5C35.875 25.1962 36.1516 25.8639 36.6438 26.3562C37.1361 26.8484 37.8038 27.125 38.5 27.125H56C56.6962 27.125 57.3639 26.8484 57.8562 26.3562C58.3484 25.8639 58.625 25.1962 58.625 24.5C58.625 23.8038 58.3484 23.1361 57.8562 22.6438C57.3639 22.1516 56.6962 21.875 56 21.875H38.5ZM29.9005 43.8095C30.1484 43.562 30.3443 43.2674 30.4766 42.943C30.6089 42.6186 30.6749 42.271 30.6707 41.9207C30.6666 41.5704 30.5924 41.2245 30.4524 40.9033C30.3125 40.5821 30.1097 40.2922 29.856 40.0507C29.6023 39.8091 29.3028 39.6208 28.9751 39.4967C28.6475 39.3727 28.2983 39.3156 27.9483 39.3286C27.5982 39.3416 27.2543 39.4246 26.9367 39.5726C26.6192 39.7207 26.3346 39.9307 26.0995 40.1905L18.0005 48.6955L15.9005 46.4905C15.6654 46.2307 15.3808 46.0207 15.0633 45.8726C14.7457 45.7246 14.4018 45.6416 14.0517 45.6286C13.7016 45.6156 13.3525 45.6727 13.0249 45.7967C12.6972 45.9208 12.3977 46.1091 12.144 46.3507C11.8903 46.5922 11.6875 46.8821 11.5476 47.2033C11.4076 47.5245 11.3334 47.8704 11.3293 48.2207C11.3251 48.571 11.3911 48.9186 11.5234 49.243C11.6557 49.5674 11.8516 49.862 12.0995 50.1095L16.1 54.3095C16.3452 54.5668 16.64 54.7717 16.9667 54.9116C17.2934 55.0516 17.6451 55.1238 18.0005 55.1238C18.3559 55.1238 18.7076 55.0516 19.0343 54.9116C19.361 54.7717 19.6558 54.5668 19.901 54.3095L29.9005 43.8095ZM38.5 46.375C37.8038 46.375 37.1361 46.6516 36.6438 47.1438C36.1516 47.6361 35.875 48.3038 35.875 49C35.875 49.6962 36.1516 50.3639 36.6438 50.8562C37.1361 51.3484 37.8038 51.625 38.5 51.625H56C56.6962 51.625 57.3639 51.3484 57.8562 50.8562C58.3484 50.3639 58.625 49.6962 58.625 49C58.625 48.3038 58.3484 47.6361 57.8562 47.1438C57.3639 46.6516 56.6962 46.375 56 46.375H38.5Z" fill="#27488E"/>
</svg>
