<svg width="94" height="71" viewBox="0 0 94 71" fill="none" xmlns="http://www.w3.org/2000/svg">
<path d="M30.6412 55.5172C30.6412 55.5172 26.2639 55.5172 26.2639 50.8908C26.2639 46.2644 30.6412 32.3851 48.1505 32.3851C65.6597 32.3851 70.037 46.2644 70.037 50.8908C70.037 55.5172 65.6597 55.5172 65.6597 55.5172H30.6412ZM48.1505 27.7586C51.6333 27.7586 54.9734 26.2963 57.4362 23.6935C59.8989 21.0906 61.2824 17.5603 61.2824 13.8793C61.2824 10.1983 59.8989 6.66803 57.4362 4.06516C54.9734 1.46228 51.6333 0 48.1505 0C44.6677 0 41.3275 1.46228 38.8648 4.06516C36.4021 6.66803 35.0185 10.1983 35.0185 13.8793C35.0185 17.5603 36.4021 21.0906 38.8648 23.6935C41.3275 26.2963 44.6677 27.7586 48.1505 27.7586ZM22.8321 55.5172C22.1835 54.0728 21.8599 52.4894 21.8866 50.8908C21.8866 44.622 24.8631 38.1681 30.3611 33.6805C27.6173 32.785 24.758 32.3479 21.8866 32.3851C4.37732 32.3851 0 46.2644 0 50.8908C0 55.5172 4.37732 55.5172 4.37732 55.5172H22.8321ZM19.6979 27.7586C22.6003 27.7586 25.3837 26.5401 27.436 24.371C29.4883 22.2019 30.6412 19.26 30.6412 16.1925C30.6412 13.125 29.4883 10.1831 27.436 8.01407C25.3837 5.845 22.6003 4.62644 19.6979 4.62644C16.7956 4.62644 14.0121 5.845 11.9598 8.01407C9.90758 10.1831 8.75463 13.125 8.75463 16.1925C8.75463 19.26 9.90758 22.2019 11.9598 24.371C14.0121 26.5401 16.7956 27.7586 19.6979 27.7586Z" fill="#27488E"/>
<path d="M54.6527 50.3831C54.9384 50.3189 55.2355 50.3484 55.5033 50.4661C55.7705 50.5835 55.9931 50.7817 56.1468 51.0286C56.3002 51.2749 56.3805 51.5616 56.3802 51.8518V69.0002C56.3802 69.3865 56.2373 69.7635 55.974 70.0471C55.7095 70.332 55.3428 70.5002 54.9515 70.5002H44.7269C42.8796 70.5 41.4427 68.8962 41.4427 67.0002V65.9524C41.4434 65.0476 41.7735 64.1726 42.3714 63.5168L53.9173 50.8157C54.1127 50.6002 54.3677 50.447 54.6527 50.3831ZM60.6761 45.1145L60.6771 45.1135C61.3126 45.1472 61.9314 45.3802 62.4603 45.7981L62.682 45.9885L62.683 45.9895L68.7904 51.7649C68.873 51.8432 68.9729 51.8796 69.0687 51.8772C69.1647 51.8748 69.2638 51.8329 69.3441 51.7493L74.3636 46.5032C74.5627 46.2954 74.8187 46.1509 75.1019 46.094C75.3855 46.0371 75.678 46.0716 75.9408 46.1917C76.203 46.3116 76.4214 46.5092 76.5716 46.7542C76.7215 46.9985 76.7985 47.282 76.7982 47.5686V69.0002C76.7982 69.3865 76.6562 69.7635 76.3929 70.0471C76.1285 70.332 75.7617 70.5002 75.3705 70.5002H61.4486C61.0573 70.5002 60.6906 70.332 60.4261 70.0471C60.1628 69.7635 60.0208 69.3865 60.0208 69.0002V45.7493C60.0208 45.4719 60.2385 45.0841 60.6761 45.1145ZM86.1361 35.1497C86.7422 35.0551 87.3578 35.1437 87.9144 35.3997L88.1497 35.5198L91.7581 37.5598H91.7591C92.3119 37.8732 92.765 38.3464 93.0706 38.9192C93.338 39.4202 93.4837 39.9817 93.4984 40.553L93.4974 40.7981L92.472 67.1438C92.4378 68.0356 92.0851 68.8858 91.4769 69.5139C90.8678 70.1428 90.0486 70.4998 89.1888 70.4993V70.5002H81.8675C81.4763 70.5002 81.1095 70.3319 80.8451 70.0471C80.5818 69.7635 80.4388 69.3865 80.4388 69.0002V40.7825C80.4385 40.5864 80.4757 40.3917 80.5472 40.2092C80.6188 40.0265 80.7249 39.8589 80.8607 39.717V39.7161L84.3128 36.1135L84.5042 35.929C84.9664 35.5169 85.53 35.2442 86.1361 35.1497ZM82.6165 15.343C85.3356 15.1043 87.2169 15.1446 90.1048 15.4631L90.3871 15.5071C91.0389 15.6413 91.6356 15.9829 92.0999 16.4836C92.6298 17.0553 92.9567 17.8007 93.0316 18.592H93.0306C93.3715 22.1355 93.3684 24.2704 93.0316 27.9465V27.9475C92.9713 28.5994 92.7394 29.2224 92.3607 29.7444C92.0291 30.2014 91.5957 30.566 91.097 30.802L90.8792 30.8948C90.2887 31.1229 89.6484 31.1666 89.0345 31.0188C88.421 30.871 87.8638 30.54 87.4261 30.0696V30.0686L85.7425 28.2522L70.5287 44.6418C70.2256 44.9685 69.8633 45.2294 69.4622 45.4084C69.0611 45.5875 68.6294 45.6808 68.1927 45.6809C67.7558 45.6809 67.3235 45.5876 66.9222 45.4084C66.5212 45.2294 66.1588 44.9685 65.8558 44.6418V44.6409L60.2787 38.634L46.4906 53.4846L46.4915 53.4856C46.1905 53.8211 45.8283 54.0913 45.4251 54.2776C45.0219 54.4639 44.5863 54.5627 44.1449 54.5667C43.7035 54.5705 43.2668 54.4792 42.8607 54.3C42.4545 54.1208 42.0879 53.8569 41.7816 53.5266C41.4754 53.1965 41.2347 52.8063 41.0726 52.3792C40.9106 51.9519 40.8295 51.495 40.8333 51.0354C40.8373 50.5758 40.9267 50.1207 41.096 49.6965C41.2654 49.2724 41.5116 48.886 41.8236 48.5618L57.9378 31.1926C58.2409 30.866 58.6022 30.6041 59.0033 30.425C59.4046 30.2459 59.8369 30.1536 60.2738 30.1536C60.7106 30.1536 61.1421 30.2459 61.5433 30.425C61.9442 30.604 62.3057 30.8652 62.6087 31.1917H62.6097L68.1898 37.2034L81.1214 23.2737L79.388 21.4065V21.4055C78.9513 20.9353 78.6507 20.3451 78.5169 19.7053C78.3832 19.0653 78.4202 18.3976 78.6253 17.7786C78.8306 17.1593 79.1969 16.6101 79.6859 16.1985C80.1753 15.7865 80.7679 15.5291 81.3949 15.4622L82.6165 15.343Z" fill="#27488E" stroke="#27488E"/>
</svg>
