<svg width="91" height="70" viewBox="0 0 91 70" fill="none" xmlns="http://www.w3.org/2000/svg">
<path d="M42.4825 8.31064L24.0613 28.5561C23.3345 29.3528 23.3661 30.5869 24.1403 31.3524C28.9589 36.1169 36.7792 36.1169 41.5977 31.3524L46.6217 26.3847C47.2852 25.7286 48.1226 25.3693 48.9757 25.3069C50.05 25.2131 51.1559 25.5724 51.9774 26.3847L79.8778 53.738L91 44.99V0L73.3056 9.99777L69.5455 7.51395C67.0507 5.87319 64.1211 4.99817 61.1248 4.99888H50.0026C49.8288 4.99888 49.6392 4.99889 49.4654 5.01451C46.7955 5.1551 44.2835 6.34233 42.4825 8.31064ZM18.4212 23.5416L35.2941 4.99888H29.0378C25.0092 4.99888 21.1543 6.57666 18.3106 9.38853L17.6944 9.99777L0 0V44.99L24.709 65.3448C28.3427 68.3441 32.9243 69.9844 37.6481 69.9844H40.1285L39.0226 68.8909C37.5375 67.4225 37.5375 65.048 39.0226 63.5952C40.5076 62.1424 42.909 62.1268 44.3783 63.5952L50.8557 70H52.2776C55.2951 70 58.2495 69.3283 60.9352 68.0786L56.717 63.892C55.2319 62.4236 55.2319 60.0491 56.717 58.5963C58.2021 57.1435 60.6035 57.1279 62.0727 58.5963L67.1283 63.5952L69.8931 60.8614C71.2991 59.4711 71.7099 57.4559 71.0937 55.6907L49.3075 34.3205L46.9535 36.6481C39.1648 44.3495 26.5575 44.3495 18.7687 36.6481C15.1351 33.0551 14.9929 27.2908 18.4212 23.526V23.5416Z" fill="#27488E"/>
</svg>
