<svg width="85" height="70" viewBox="0 0 85 70" fill="none" xmlns="http://www.w3.org/2000/svg">
<path d="M7.72727 35C3.47727 35 0 31.5 0 27.2222V7.77778C0 3.5 3.47727 0 7.72727 0H38.6364C42.8864 0 46.3636 3.5 46.3636 7.77778V27.2222C46.3636 31.5 42.8864 35 38.6364 35H30.9091V46.6667L19.3182 35H7.72727ZM77.2727 58.3333C81.5227 58.3333 85 54.8333 85 50.5556V31.1111C85 26.8333 81.5227 23.3333 77.2727 23.3333H54.0909V27.2222C54.0909 35.7778 47.1364 42.7778 38.6364 42.7778V50.5556C38.6364 54.8333 42.1136 58.3333 46.3636 58.3333H54.0909V70L65.6818 58.3333H77.2727Z" fill="white"/>
</svg>
