<svg width="1132" height="223" viewBox="0 0 1132 223" fill="none" xmlns="http://www.w3.org/2000/svg">
<g clip-path="url(#clip0_369_2)">
<path d="M828.75 239C828.75 255.377 822.244 271.083 810.664 282.664C799.083 294.244 783.377 300.75 767 300.75C750.623 300.75 734.917 294.244 723.336 282.664C711.756 271.083 705.25 255.377 705.25 239C705.25 222.623 711.756 206.917 723.336 195.336C734.917 183.756 750.623 177.25 767 177.25C783.377 177.25 799.083 183.756 810.664 195.336C822.244 206.917 828.75 222.623 828.75 239ZM691 239C691 259.156 699.007 278.487 713.26 292.74C727.513 306.993 746.844 315 767 315C787.156 315 806.487 306.993 820.74 292.74C834.993 278.487 843 259.156 843 239C843 218.844 834.993 199.513 820.74 185.26C806.487 171.007 787.156 163 767 163C746.844 163 727.513 171.007 713.26 185.26C699.007 199.513 691 218.844 691 239ZM759.875 198.625V239C759.875 241.375 761.062 243.602 763.052 244.938L791.552 263.938C794.817 266.134 799.241 265.244 801.438 261.948C803.634 258.653 802.744 254.259 799.448 252.062L774.125 235.2V198.625C774.125 194.677 770.948 191.5 767 191.5C763.052 191.5 759.875 194.677 759.875 198.625Z" fill="white" fill-opacity="0.07"/>
<path d="M767 160.5C787.819 160.5 807.786 168.771 822.508 183.492C837.229 198.214 845.5 218.181 845.5 239C845.5 259.819 837.229 279.786 822.508 294.508C807.786 309.229 787.819 317.5 767 317.5C746.181 317.5 726.214 309.229 711.492 294.508C696.771 279.786 688.5 259.819 688.5 239C688.5 218.181 696.771 198.214 711.492 183.492C726.214 168.771 746.181 160.5 767 160.5ZM767 179.75C751.286 179.75 736.215 185.992 725.104 197.104C713.992 208.215 707.75 223.286 707.75 239C707.75 254.714 713.992 269.785 725.104 280.896C736.215 292.008 751.286 298.25 767 298.25C782.714 298.25 797.785 292.008 808.896 280.896C820.008 269.785 826.25 254.714 826.25 239C826.25 223.286 820.008 208.215 808.896 197.104C797.785 185.992 782.714 179.75 767 179.75ZM767 189C772.329 189 776.625 193.296 776.625 198.625V233.86L800.834 249.981L800.835 249.982C805.273 252.941 806.484 258.885 803.518 263.335C800.563 267.767 794.592 268.989 790.165 266.018L761.665 247.018L761.657 247.013C758.981 245.215 757.375 242.212 757.375 239V198.625C757.375 193.296 761.671 189 767 189Z" stroke="white" stroke-opacity="0.07" stroke-width="5"/>
<path d="M946.947 145.37V91.1575C946.947 85.8425 948.815 81.3269 952.549 77.6107C956.284 73.8945 960.811 72.0321 966.132 72.0236C971.452 72.0151 975.984 73.8775 979.727 77.6107C983.47 81.3439 985.333 85.8595 985.316 91.1575V145.37C985.316 150.685 983.453 155.205 979.727 158.93C976.001 162.654 971.469 164.512 966.132 164.504C960.794 164.495 956.267 162.637 952.549 158.93C948.832 155.222 946.964 150.702 946.947 145.37ZM1010.89 142.5V40.1339C1010.89 34.8189 1012.76 30.3033 1016.5 26.5871C1020.23 22.8709 1024.76 21.0085 1030.08 21C1035.4 20.9915 1039.93 22.8539 1043.67 26.5871C1047.42 30.3203 1049.28 34.8359 1049.26 40.1339V142.5C1049.26 148.878 1047.29 153.661 1043.35 156.85C1039.42 160.039 1034.99 161.634 1030.08 161.634C1025.17 161.634 1020.75 160.039 1016.82 156.85C1012.89 153.661 1010.91 148.878 1010.89 142.5ZM883 186.508V142.181C883 136.866 884.867 132.351 888.602 128.634C892.336 124.918 896.864 123.056 902.184 123.047C907.505 123.039 912.036 124.901 915.779 128.634C919.522 132.368 921.385 136.883 921.368 142.181V186.508C921.368 192.886 919.399 197.669 915.46 200.858C911.521 204.047 907.095 205.642 902.184 205.642C897.273 205.642 892.852 204.047 888.922 200.858C884.991 197.669 883.017 192.886 883 186.508ZM913.695 264C908.153 264 904.26 261.398 902.018 256.193C899.776 250.989 900.684 246.363 904.742 242.315L957.179 190.016C959.524 187.677 962.35 186.401 965.658 186.189C968.967 185.976 971.895 187.039 974.445 189.378L1010.89 220.63L1082.52 149.197H1074.84C1071.22 149.197 1068.18 147.972 1065.74 145.523C1063.29 143.074 1062.06 140.047 1062.05 136.441C1062.04 132.835 1063.27 129.808 1065.74 127.359C1068.2 124.91 1071.24 123.685 1074.84 123.685H1113.21C1116.83 123.685 1119.87 124.91 1122.33 127.359C1124.78 129.808 1126.01 132.835 1126 136.441V174.709C1126 178.323 1124.77 181.354 1122.32 183.804C1119.86 186.253 1116.83 187.473 1113.21 187.464C1109.6 187.456 1106.56 186.231 1104.1 183.791C1101.65 181.35 1100.42 178.323 1100.42 174.709V167.055L1020.49 246.779C1018.14 249.118 1015.32 250.394 1012.01 250.606C1008.7 250.819 1005.77 249.756 1003.22 247.417L966.771 216.165L922.647 260.173C921.582 261.236 920.251 262.142 918.657 262.89C917.063 263.638 915.409 264.008 913.695 264Z" fill="white" fill-opacity="0.16"/>
<path d="M70.7857 223H112.214M50.0714 150.9H132.929M19 89.1C19 69.9779 26.6384 51.639 40.2348 38.1176C53.8312 24.5962 72.2718 17 91.5 17C110.728 17 129.169 24.5962 142.765 38.1176C156.362 51.639 164 69.9779 164 89.1C164.009 100.709 161.186 112.147 155.774 122.434C150.363 132.72 142.523 141.548 132.929 148.16L127.315 174.59C126.572 179.462 124.097 183.907 120.341 187.119C116.584 190.332 111.794 192.099 106.839 192.1H76.1611C71.2064 192.099 66.4162 190.332 62.6594 187.119C58.9026 183.907 56.4282 179.462 55.685 174.59L50.0714 148.273C40.4733 141.638 32.6337 132.789 27.2228 122.484C21.8119 112.18 18.9906 100.725 19 89.1Z" stroke="white" stroke-opacity="0.16" stroke-width="26" stroke-linecap="round" stroke-linejoin="round"/>
<path d="M249.996 269.807C247.709 268.083 244.841 267.35 242.021 267.77C239.202 268.19 236.663 269.728 234.961 272.046L219.854 292.66L215.21 288.154C214.192 287.16 212.991 286.38 211.676 285.858C210.361 285.335 208.957 285.081 207.544 285.11C206.132 285.138 204.739 285.448 203.445 286.023C202.151 286.598 200.982 287.425 200.003 288.459C198.03 290.544 196.953 293.338 197.009 296.227C197.066 299.117 198.251 301.865 200.304 303.869L213.748 316.967C214.849 318.038 216.162 318.858 217.599 319.375C219.037 319.891 220.566 320.091 222.086 319.962C223.606 319.833 225.081 319.377 226.413 318.625C227.746 317.873 228.906 316.842 229.815 315.601L252.217 285.072C253.061 283.922 253.672 282.615 254.017 281.225C254.361 279.835 254.433 278.39 254.226 276.972C254.02 275.555 253.54 274.192 252.814 272.963C252.088 271.733 251.131 270.661 249.996 269.807ZM242.027 115.113C240.629 115.322 239.285 115.808 238.073 116.544C236.86 117.28 235.803 118.251 234.961 119.402L219.854 140.016L215.21 135.509C214.193 134.515 212.993 133.734 211.678 133.21C210.363 132.686 208.96 132.431 207.547 132.458C206.135 132.485 204.742 132.794 203.447 133.367C202.153 133.941 200.983 134.767 200.003 135.8C199.024 136.832 198.255 138.051 197.74 139.385C197.225 140.719 196.974 142.143 197.002 143.575C197.03 145.008 197.336 146.421 197.903 147.733C198.469 149.046 199.285 150.232 200.304 151.224L213.748 164.308C214.848 165.379 216.16 166.201 217.597 166.719C219.034 167.236 220.563 167.438 222.083 167.31C223.602 167.182 225.078 166.727 226.411 165.977C227.744 165.226 228.905 164.197 229.815 162.956L252.217 132.427C253.061 131.277 253.672 129.97 254.017 128.58C254.361 127.191 254.433 125.746 254.226 124.328C254.02 122.91 253.54 121.548 252.814 120.318C252.088 119.089 251.131 118.016 249.996 117.163C247.712 115.435 244.846 114.698 242.027 115.113ZM242.027 191.435C240.629 191.644 239.285 192.13 238.073 192.866C236.86 193.602 235.803 194.573 234.961 195.724L219.854 216.338L215.21 211.831C214.193 210.837 212.993 210.056 211.678 209.532C210.363 209.009 208.96 208.753 207.547 208.78C206.135 208.807 204.742 209.116 203.447 209.69C202.153 210.263 200.983 211.09 200.003 212.122C199.024 213.155 198.255 214.373 197.74 215.707C197.225 217.041 196.974 218.465 197.002 219.898C197.03 221.33 197.336 222.743 197.903 224.055C198.469 225.368 199.285 226.554 200.304 227.547L213.748 240.63C214.848 241.702 216.16 242.523 217.597 243.041C219.034 243.558 220.563 243.76 222.083 243.632C223.602 243.504 225.078 243.05 226.411 242.299C227.744 241.549 228.905 240.519 229.815 239.278L252.217 208.749C253.061 207.6 253.672 206.292 254.017 204.903C254.361 203.513 254.433 202.068 254.226 200.65C254.02 199.232 253.54 197.87 252.814 196.64C252.088 195.411 251.131 194.339 249.996 193.485C247.712 191.758 244.846 191.02 242.027 191.435ZM279.421 130.276C265.088 130.276 265.088 152.082 279.421 152.082H358.25C372.583 152.082 372.583 130.276 358.25 130.276H279.421ZM279.421 206.598C265.088 206.598 265.088 228.404 279.421 228.404H358.25C372.583 228.404 372.583 206.598 358.25 206.598H279.421ZM279.421 282.92C265.088 282.92 265.088 304.727 279.421 304.727H358.25C372.583 304.727 372.583 282.92 358.25 282.92H279.421Z" fill="white" fill-opacity="0.1"/>
<path d="M241.801 266.286C245.019 265.807 248.292 266.644 250.897 268.608C252.19 269.581 253.28 270.802 254.105 272.2C254.931 273.598 255.477 275.146 255.711 276.756C255.945 278.366 255.864 280.007 255.473 281.586C255.13 282.967 254.555 284.278 253.774 285.46L253.427 285.959L231.024 316.486C229.99 317.899 228.67 319.074 227.15 319.932C225.631 320.789 223.948 321.309 222.213 321.456C220.478 321.604 218.733 321.375 217.093 320.786C215.453 320.197 213.956 319.262 212.703 318.043L212.702 318.042L199.258 304.943L199.041 304.727C196.836 302.466 195.572 299.435 195.51 296.257C195.446 292.977 196.668 289.8 198.914 287.428L199.342 286.998C200.363 286.02 201.545 285.226 202.836 284.652C204.312 283.997 205.902 283.642 207.515 283.609C209.127 283.577 210.729 283.868 212.229 284.464C213.729 285.059 215.096 285.947 216.255 287.077L219.662 290.384L233.751 271.159L233.752 271.158C235.688 268.521 238.582 266.765 241.801 266.286ZM358.251 281.42C362.248 281.42 365.353 282.957 367.44 285.339C369.503 287.692 370.5 290.784 370.5 293.823C370.5 296.863 369.503 299.954 367.44 302.308C365.353 304.69 362.248 306.226 358.251 306.227H279.421C275.423 306.227 272.318 304.69 270.23 302.308C268.168 299.954 267.171 296.863 267.171 293.823C267.171 290.784 268.168 287.692 270.23 285.339C272.318 282.957 275.423 281.42 279.421 281.42H358.251ZM241.809 189.951C245.026 189.478 248.295 190.32 250.896 192.286H250.897C252.19 193.259 253.28 194.48 254.105 195.878C254.931 197.276 255.477 198.824 255.711 200.434C255.945 202.044 255.864 203.685 255.473 205.264C255.13 206.645 254.555 207.955 253.774 209.138L253.427 209.637L231.024 240.166C229.988 241.577 228.667 242.751 227.146 243.606C225.626 244.462 223.943 244.981 222.208 245.127C220.473 245.273 218.728 245.043 217.089 244.452C215.552 243.899 214.142 243.041 212.939 241.931L212.702 241.705L199.258 228.621C198.098 227.491 197.169 226.142 196.525 224.65C195.881 223.159 195.534 221.553 195.502 219.927C195.47 218.3 195.756 216.683 196.341 215.167C196.926 213.651 197.8 212.265 198.915 211.09C200.03 209.914 201.363 208.972 202.84 208.318C204.316 207.664 205.906 207.311 207.519 207.28C209.131 207.249 210.733 207.541 212.233 208.139C213.732 208.735 215.098 209.625 216.255 210.755L219.662 214.062L233.751 194.837C234.709 193.528 235.913 192.423 237.295 191.584C238.677 190.745 240.21 190.189 241.806 189.951H241.809ZM358.251 205.098C362.248 205.098 365.353 206.634 367.44 209.017C369.503 211.37 370.5 214.461 370.5 217.501C370.5 220.541 369.503 223.632 367.44 225.985C365.353 228.368 362.248 229.904 358.251 229.904H279.421C275.423 229.904 272.318 228.368 270.23 225.985C268.168 223.632 267.171 220.541 267.171 217.501C267.171 214.461 268.168 211.37 270.23 209.017C272.318 206.634 275.423 205.098 279.421 205.098H358.251ZM241.809 113.629C245.026 113.156 248.295 113.997 250.896 115.964H250.897C252.19 116.937 253.28 118.158 254.105 119.556C254.931 120.954 255.477 122.501 255.711 124.111C255.945 125.721 255.864 127.363 255.473 128.941C255.13 130.323 254.555 131.633 253.774 132.815L253.427 133.314L231.024 163.844C229.988 165.255 228.667 166.428 227.146 167.284C225.626 168.14 223.943 168.659 222.208 168.805C220.473 168.951 218.728 168.72 217.089 168.13C215.552 167.576 214.142 166.718 212.939 165.608L212.702 165.383L199.258 152.299C198.098 151.169 197.169 149.82 196.525 148.328C195.881 146.837 195.534 145.231 195.502 143.604C195.47 141.978 195.756 140.361 196.341 138.845C196.926 137.329 197.8 135.943 198.915 134.768C200.03 133.592 201.363 132.65 202.84 131.996C204.316 131.342 205.906 130.989 207.519 130.958C209.131 130.927 210.733 131.219 212.233 131.816C213.732 132.413 215.098 133.302 216.255 134.433L219.662 137.739L233.751 118.515C234.709 117.206 235.913 116.1 237.295 115.262C238.677 114.423 240.21 113.867 241.806 113.629H241.809ZM358.251 128.775C362.248 128.776 365.353 130.312 367.44 132.694C369.503 135.047 370.5 138.139 370.5 141.179C370.5 144.218 369.503 147.31 367.44 149.663C365.353 152.045 362.248 153.582 358.251 153.582H279.421C275.423 153.582 272.318 152.045 270.23 149.663C268.168 147.31 267.171 144.218 267.171 141.179C267.171 138.139 268.168 135.047 270.23 132.694C272.318 130.312 275.423 128.775 279.421 128.775H358.251Z" stroke="white" stroke-opacity="0.1" stroke-width="3"/>
</g>
<defs>
<clipPath id="clip0_369_2">
<rect width="1132" height="223" fill="white"/>
</clipPath>
</defs>
</svg>
