<svg width="389" height="239" viewBox="0 0 389 239" fill="none" xmlns="http://www.w3.org/2000/svg">
<rect width="389" height="238.212" rx="20.0515" fill="white"/>
<path d="M29.3012 43.0385C28.9804 43.0385 28.743 43.0064 28.589 42.9423C28.4478 42.8781 28.3772 42.7947 28.3772 42.692C28.3772 42.6407 28.3836 42.5958 28.3965 42.5573C28.4093 42.5059 28.4221 42.4482 28.435 42.384L32.9009 29.8141C32.9394 29.7114 33.0292 29.6344 33.1703 29.5831C33.3243 29.5189 33.5233 29.4869 33.7671 29.4869H34.4408C34.6975 29.4869 34.8964 29.5189 35.0375 29.5831C35.1787 29.6344 35.2685 29.7114 35.307 29.8141L39.7729 42.4033C39.7986 42.4546 39.8114 42.5059 39.8114 42.5573C39.8243 42.5958 39.8307 42.6407 39.8307 42.692C39.8307 42.7818 39.7601 42.8653 39.6189 42.9423C39.4906 43.0064 39.2724 43.0385 38.9644 43.0385H38.618C38.3998 43.0385 38.2137 43.0128 38.0597 42.9615C37.9057 42.9102 37.8031 42.8268 37.7517 42.7113L34.4023 32.9325C34.3381 32.7529 34.2804 32.5668 34.2291 32.3743C34.1777 32.169 34.1392 31.97 34.1136 31.7776H34.0558C34.0173 31.97 33.9788 32.169 33.9403 32.3743C33.9018 32.5668 33.8505 32.7529 33.7863 32.9325L30.3984 42.7113C30.3471 42.8268 30.2508 42.9102 30.1097 42.9615C29.9685 43.0128 29.7953 43.0385 29.5899 43.0385H29.3012ZM30.6679 39.7276V38.0336H37.4822V39.7276H30.6679ZM45.6302 43.1347C44.0774 43.1347 42.916 42.7369 42.146 41.9413C41.376 41.1456 40.9911 39.8367 40.9911 38.0144C40.9911 36.3333 41.3825 35.0435 42.1653 34.1452C42.9609 33.2469 44.1287 32.7978 45.6687 32.7978C46.0408 32.7978 46.4002 32.8299 46.7466 32.894C47.106 32.9582 47.4268 33.048 47.7091 33.1635C48.0043 33.2662 48.2353 33.3817 48.4021 33.51C48.5689 33.6383 48.6523 33.7667 48.6523 33.895C48.6523 34.0105 48.6203 34.1581 48.5561 34.3377C48.5048 34.5046 48.4278 34.6586 48.3251 34.7997C48.2353 34.928 48.139 34.9922 48.0364 34.9922C47.9465 34.9922 47.7925 34.9473 47.5744 34.8575C47.369 34.7548 47.0996 34.6586 46.7659 34.5687C46.4451 34.4789 46.0537 34.434 45.5917 34.434C44.7319 34.434 44.0902 34.7291 43.6667 35.3195C43.2561 35.8969 43.0507 36.7824 43.0507 37.9759C43.0507 39.195 43.2561 40.0869 43.6667 40.6516C44.0902 41.2162 44.7704 41.4985 45.7072 41.4985C46.1435 41.4985 46.5285 41.4408 46.8621 41.3253C47.2086 41.2098 47.4974 41.0943 47.7284 40.9788C47.9594 40.8633 48.1198 40.8056 48.2096 40.8056C48.3123 40.8056 48.4021 40.8761 48.4791 41.0173C48.5689 41.1456 48.6395 41.2932 48.6908 41.46C48.755 41.6269 48.7871 41.768 48.7871 41.8835C48.7871 42.0247 48.6844 42.1723 48.4791 42.3263C48.2866 42.4674 48.0364 42.6022 47.7284 42.7305C47.4204 42.846 47.0803 42.9423 46.7081 43.0192C46.336 43.0962 45.9767 43.1347 45.6302 43.1347ZM54.9729 43.1347C53.4202 43.1347 52.2588 42.7369 51.4888 41.9413C50.7188 41.1456 50.3338 39.8367 50.3338 38.0144C50.3338 36.3333 50.7252 35.0435 51.508 34.1452C52.3037 33.2469 53.4715 32.7978 55.0114 32.7978C55.3836 32.7978 55.7429 32.8299 56.0894 32.894C56.4487 32.9582 56.7696 33.048 57.0519 33.1635C57.347 33.2662 57.578 33.3817 57.7449 33.51C57.9117 33.6383 57.9951 33.7667 57.9951 33.895C57.9951 34.0105 57.963 34.1581 57.8989 34.3377C57.8475 34.5046 57.7705 34.6586 57.6679 34.7997C57.578 34.928 57.4818 34.9922 57.3791 34.9922C57.2893 34.9922 57.1353 34.9473 56.9171 34.8575C56.7118 34.7548 56.4423 34.6586 56.1087 34.5687C55.7878 34.4789 55.3964 34.434 54.9344 34.434C54.0746 34.434 53.433 34.7291 53.0095 35.3195C52.5988 35.8969 52.3935 36.7824 52.3935 37.9759C52.3935 39.195 52.5988 40.0869 53.0095 40.6516C53.433 41.2162 54.1131 41.4985 55.0499 41.4985C55.4863 41.4985 55.8713 41.4408 56.2049 41.3253C56.5514 41.2098 56.8401 41.0943 57.0711 40.9788C57.3021 40.8633 57.4625 40.8056 57.5524 40.8056C57.655 40.8056 57.7449 40.8761 57.8219 41.0173C57.9117 41.1456 57.9823 41.2932 58.0336 41.46C58.0978 41.6269 58.1299 41.768 58.1299 41.8835C58.1299 42.0247 58.0272 42.1723 57.8219 42.3263C57.6294 42.4674 57.3791 42.6022 57.0711 42.7305C56.7631 42.846 56.4231 42.9423 56.0509 43.0192C55.6788 43.0962 55.3194 43.1347 54.9729 43.1347ZM64.2002 43.1347C62.7373 43.1347 61.6144 42.692 60.8316 41.8065C60.0616 40.9211 59.6766 39.6506 59.6766 37.9951C59.6766 36.3268 60.0616 35.0435 60.8316 34.1452C61.6144 33.2469 62.7373 32.7978 64.2002 32.7978C65.6503 32.7978 66.754 33.2469 67.5111 34.1452C68.2811 35.0307 68.6661 36.314 68.6661 37.9951C68.6661 39.6634 68.2875 40.9403 67.5304 41.8258C66.7861 42.6984 65.676 43.1347 64.2002 43.1347ZM64.1617 41.4985C65.0087 41.4985 65.6247 41.2098 66.0097 40.6323C66.4075 40.0548 66.6064 39.1694 66.6064 37.9759C66.6064 36.7824 66.4075 35.8969 66.0097 35.3195C65.6247 34.7291 65.0087 34.434 64.1617 34.434C63.3276 34.434 62.7116 34.7227 62.3138 35.3002C61.9288 35.8777 61.7363 36.7696 61.7363 37.9759C61.7363 39.1694 61.9288 40.0548 62.3138 40.6323C62.7116 41.2098 63.3276 41.4985 64.1617 41.4985ZM73.9277 43.1347C72.978 43.1347 72.2401 42.8717 71.714 42.3455C71.2007 41.8065 70.944 41.0494 70.944 40.0741V33.3753C70.944 33.2213 71.0082 33.1058 71.1365 33.0288C71.2648 32.9389 71.4894 32.894 71.8102 32.894H72.0797C72.4005 32.894 72.6251 32.9389 72.7535 33.0288C72.8818 33.1058 72.946 33.2213 72.946 33.3753V39.8431C72.946 40.3564 73.0807 40.7542 73.3502 41.0366C73.6197 41.306 74.0303 41.4408 74.5822 41.4408C74.8773 41.4408 75.1596 41.3895 75.4291 41.2868C75.7115 41.1841 75.9745 41.0366 76.2184 40.8441C76.4622 40.6516 76.6611 40.427 76.8151 40.1703V33.3753C76.8151 33.2213 76.8793 33.1058 77.0076 33.0288C77.1359 32.9389 77.3605 32.894 77.6813 32.894H77.9508C78.2716 32.894 78.4962 32.9389 78.6245 33.0288C78.7529 33.1058 78.817 33.2213 78.817 33.3753V39.9778C78.817 40.5168 78.8299 40.9531 78.8555 41.2868C78.894 41.6205 78.9261 41.8835 78.9518 42.076C78.9903 42.2685 79.0095 42.4161 79.0095 42.5188C79.0095 42.6086 78.9518 42.6856 78.8363 42.7498C78.7336 42.8139 78.6053 42.8653 78.4513 42.9038C78.2973 42.9294 78.1369 42.9551 77.9701 42.9808C77.8161 42.9936 77.6877 43 77.5851 43C77.4567 43 77.3541 42.9615 77.2771 42.8845C77.2129 42.8075 77.1552 42.6728 77.1038 42.4803C77.0525 42.2749 76.9948 42.0054 76.9306 41.6718C76.6996 41.9541 76.4173 42.2044 76.0836 42.4225C75.7628 42.6407 75.4163 42.8139 75.0441 42.9423C74.6848 43.0706 74.3127 43.1347 73.9277 43.1347ZM82.7948 43.0385C82.4739 43.0385 82.2494 43 82.121 42.923C81.9927 42.8332 81.9285 42.7113 81.9285 42.5573V35.9547C81.9285 35.4157 81.9093 34.9794 81.8708 34.6457C81.8451 34.3121 81.813 34.049 81.7745 33.8565C81.7489 33.664 81.736 33.5164 81.736 33.4138C81.736 33.3368 81.7874 33.2662 81.89 33.202C82.0055 33.1378 82.1403 33.0865 82.2943 33.048C82.4483 33.0095 82.6023 32.9839 82.7563 32.971C82.9231 32.9582 83.0578 32.9518 83.1605 32.9518C83.2888 32.9518 83.3851 32.9903 83.4492 33.0673C83.5262 33.1443 83.5904 33.279 83.6417 33.4715C83.6931 33.6512 83.7508 33.9142 83.815 34.2607C84.046 33.9656 84.3155 33.7153 84.6235 33.51C84.9443 33.2918 85.2844 33.1186 85.6437 32.9903C86.003 32.8619 86.3688 32.7978 86.7409 32.7978C87.3954 32.7978 87.9472 32.9197 88.3964 33.1635C88.8584 33.4073 89.2048 33.7602 89.4358 34.2222C89.6797 34.6842 89.8016 35.2489 89.8016 35.9162V42.5573C89.8016 42.7113 89.7374 42.8332 89.6091 42.923C89.4808 43 89.2562 43.0385 88.9354 43.0385H88.6659C88.345 43.0385 88.1205 43 87.9921 42.923C87.8638 42.8332 87.7996 42.7113 87.7996 42.5573V36.1472C87.7996 35.6082 87.6585 35.1975 87.3761 34.9152C87.0938 34.6329 86.6639 34.4917 86.0864 34.4917C85.8041 34.4917 85.5282 34.5431 85.2587 34.6457C84.9892 34.7484 84.739 34.896 84.508 35.0885C84.277 35.281 84.0845 35.5055 83.9305 35.7622V42.5573C83.9305 42.7113 83.8663 42.8332 83.738 42.923C83.6097 43 83.3851 43.0385 83.0643 43.0385H82.7948ZM95.454 43.1347C94.915 43.1347 94.4595 43.0321 94.0873 42.8268C93.728 42.6214 93.4585 42.3263 93.2788 41.9413C93.0992 41.5435 93.0093 41.0558 93.0093 40.4783V34.5687H92.1431C91.8479 34.5687 91.7004 34.3377 91.7004 33.8757V33.6255C91.7004 33.1635 91.8479 32.9325 92.1431 32.9325H93.0093L93.2596 30.9691C93.2852 30.8022 93.3558 30.6803 93.4713 30.6033C93.5868 30.5263 93.7536 30.4878 93.9718 30.4878H94.2605C94.53 30.4878 94.7225 30.5263 94.838 30.6033C94.9535 30.6803 95.0113 30.8022 95.0113 30.9691V32.9325H96.5127C96.8079 32.9325 96.9555 33.1635 96.9555 33.6255V33.8757C96.9555 34.3377 96.8079 34.5687 96.5127 34.5687H95.0113V40.4398C95.0113 40.812 95.069 41.0751 95.1845 41.229C95.3128 41.383 95.531 41.46 95.839 41.46C96.1213 41.46 96.3202 41.428 96.4357 41.3638C96.5641 41.2996 96.6731 41.2675 96.763 41.2675C96.84 41.2675 96.8977 41.3189 96.9362 41.4215C96.9876 41.5114 97.0261 41.6269 97.0517 41.768C97.0902 41.8964 97.1095 42.0247 97.1095 42.153C97.1223 42.2685 97.1287 42.3519 97.1287 42.4033C97.1287 42.5444 97.0325 42.6728 96.84 42.7883C96.6603 42.8909 96.4422 42.9743 96.1855 43.0385C95.9288 43.1027 95.685 43.1347 95.454 43.1347ZM100.089 43.0385C99.7684 43.0385 99.5438 43 99.4155 42.923C99.2872 42.8332 99.223 42.7113 99.223 42.5573V33.3753C99.223 33.2213 99.2872 33.1058 99.4155 33.0288C99.5438 32.9389 99.7684 32.894 100.089 32.894H100.359C100.68 32.894 100.904 32.9389 101.032 33.0288C101.161 33.1058 101.225 33.2213 101.225 33.3753V42.5573C101.225 42.7113 101.161 42.8332 101.032 42.923C100.904 43 100.68 43.0385 100.359 43.0385H100.089ZM100.224 31.6621C99.8518 31.6621 99.5887 31.6236 99.4347 31.5466C99.2807 31.4567 99.2037 31.3348 99.2037 31.1808V29.9296C99.2037 29.7756 99.2807 29.6601 99.4347 29.5831C99.5887 29.4933 99.8518 29.4484 100.224 29.4484C100.583 29.4484 100.84 29.4933 100.994 29.5831C101.148 29.6601 101.225 29.7756 101.225 29.9296V31.1808C101.225 31.3348 101.148 31.4567 100.994 31.5466C100.84 31.6236 100.583 31.6621 100.224 31.6621ZM105.184 43.0385C104.863 43.0385 104.638 43 104.51 42.923C104.382 42.8332 104.317 42.7113 104.317 42.5573V35.9547C104.317 35.4157 104.298 34.9794 104.26 34.6457C104.234 34.3121 104.202 34.049 104.163 33.8565C104.138 33.664 104.125 33.5164 104.125 33.4138C104.125 33.3368 104.176 33.2662 104.279 33.202C104.394 33.1378 104.529 33.0865 104.683 33.048C104.837 33.0095 104.991 32.9839 105.145 32.971C105.312 32.9582 105.447 32.9518 105.549 32.9518C105.678 32.9518 105.774 32.9903 105.838 33.0673C105.915 33.1443 105.979 33.279 106.031 33.4715C106.082 33.6512 106.14 33.9142 106.204 34.2607C106.435 33.9656 106.704 33.7153 107.012 33.51C107.333 33.2918 107.673 33.1186 108.032 32.9903C108.392 32.8619 108.758 32.7978 109.13 32.7978C109.784 32.7978 110.336 32.9197 110.785 33.1635C111.247 33.4073 111.594 33.7602 111.825 34.2222C112.068 34.6842 112.19 35.2489 112.19 35.9162V42.5573C112.19 42.7113 112.126 42.8332 111.998 42.923C111.87 43 111.645 43.0385 111.324 43.0385H111.055C110.734 43.0385 110.509 43 110.381 42.923C110.253 42.8332 110.188 42.7113 110.188 42.5573V36.1472C110.188 35.6082 110.047 35.1975 109.765 34.9152C109.483 34.6329 109.053 34.4917 108.475 34.4917C108.193 34.4917 107.917 34.5431 107.648 34.6457C107.378 34.7484 107.128 34.896 106.897 35.0885C106.666 35.281 106.473 35.5055 106.319 35.7622V42.5573C106.319 42.7113 106.255 42.8332 106.127 42.923C105.998 43 105.774 43.0385 105.453 43.0385H105.184ZM118.401 47.0809C117.567 47.0809 116.842 46.9911 116.226 46.8114C115.61 46.6446 115.135 46.3687 114.801 45.9837C114.468 45.6115 114.301 45.1239 114.301 44.5207C114.301 44.1614 114.371 43.8277 114.513 43.5197C114.654 43.2117 114.853 42.9423 115.109 42.7113C115.366 42.4674 115.661 42.2814 115.995 42.153L116.014 42.0953C115.783 41.9284 115.597 41.7167 115.456 41.46C115.315 41.2034 115.244 40.9018 115.244 40.5553C115.244 40.1575 115.334 39.811 115.514 39.5158C115.706 39.2207 115.976 38.964 116.322 38.7459C115.796 38.4764 115.392 38.1106 115.109 37.6486C114.827 37.1738 114.686 36.6348 114.686 36.0317C114.686 35.3644 114.84 34.7933 115.148 34.3185C115.469 33.8437 115.918 33.4715 116.495 33.202C117.086 32.9325 117.785 32.7978 118.594 32.7978C118.812 32.7978 119.023 32.8106 119.229 32.8363C119.434 32.8619 119.633 32.894 119.826 32.9325H123.213C123.367 32.9325 123.476 32.9903 123.541 33.1058C123.618 33.2084 123.656 33.3817 123.656 33.6255V33.8757C123.656 34.3249 123.515 34.5495 123.233 34.5495C123.156 34.5495 123.034 34.5431 122.867 34.5302C122.7 34.5174 122.527 34.5046 122.347 34.4917C122.18 34.4661 122.039 34.4404 121.924 34.4147L121.904 34.4532C122.046 34.6072 122.155 34.7676 122.232 34.9345C122.322 35.1013 122.379 35.2745 122.405 35.4542C122.443 35.6339 122.463 35.8264 122.463 36.0317C122.463 36.6733 122.309 37.2316 122.001 37.7064C121.693 38.1812 121.256 38.5534 120.692 38.8229C120.127 39.0795 119.441 39.2079 118.632 39.2079C118.26 39.2079 117.952 39.2464 117.708 39.3233C117.464 39.3875 117.285 39.4966 117.169 39.6506C117.066 39.7918 117.015 39.9842 117.015 40.2281C117.015 40.4847 117.099 40.6836 117.265 40.8248C117.432 40.966 117.657 41.0751 117.939 41.152C118.234 41.229 118.561 41.2868 118.921 41.3253C119.28 41.3638 119.646 41.4087 120.018 41.46C120.57 41.537 121.077 41.6654 121.539 41.845C122.014 42.0247 122.386 42.2878 122.655 42.6343C122.938 42.9808 123.079 43.462 123.079 44.078C123.079 44.694 122.899 45.2265 122.54 45.6757C122.18 46.1248 121.648 46.4713 120.942 46.7152C120.249 46.959 119.402 47.0809 118.401 47.0809ZM118.613 45.4832C119.485 45.4832 120.134 45.3741 120.557 45.1559C120.98 44.9378 121.192 44.6041 121.192 44.155C121.192 43.9111 121.109 43.7122 120.942 43.5582C120.788 43.4042 120.57 43.2823 120.288 43.1925C120.018 43.1155 119.71 43.0577 119.364 43.0192C119.03 42.9808 118.677 42.9423 118.305 42.9038C117.945 42.8524 117.599 42.7883 117.265 42.7113C116.957 42.8524 116.694 43.0385 116.476 43.2695C116.271 43.5133 116.168 43.8149 116.168 44.1742C116.168 44.4694 116.245 44.7132 116.399 44.9057C116.566 45.111 116.829 45.2586 117.188 45.3484C117.548 45.4383 118.022 45.4832 118.613 45.4832ZM118.574 37.6679C118.946 37.6679 119.28 37.6166 119.575 37.5139C119.883 37.4112 120.127 37.238 120.307 36.9942C120.499 36.7503 120.595 36.4231 120.595 36.0124C120.595 35.6018 120.499 35.2745 120.307 35.0307C120.127 34.7869 119.883 34.6136 119.575 34.511C119.28 34.4083 118.946 34.357 118.574 34.357C118.202 34.357 117.862 34.4083 117.554 34.511C117.259 34.6136 117.022 34.7869 116.842 35.0307C116.662 35.2745 116.572 35.6018 116.572 36.0124C116.572 36.6284 116.765 37.0583 117.15 37.3022C117.548 37.546 118.022 37.6679 118.574 37.6679ZM125.233 38.6689C124.938 38.6689 124.79 38.4379 124.79 37.9759V37.8026C124.79 37.3535 124.938 37.1289 125.233 37.1289H128.89C129.185 37.1289 129.333 37.3535 129.333 37.8026V37.9759C129.333 38.4379 129.185 38.6689 128.89 38.6689H125.233ZM137.424 43.1347C135.293 43.1347 133.721 42.5765 132.707 41.46C131.694 40.3436 131.187 38.6047 131.187 36.2434C131.187 33.9463 131.713 32.2331 132.765 31.1038C133.83 29.9617 135.396 29.3906 137.462 29.3906C137.898 29.3906 138.322 29.4227 138.733 29.4869C139.156 29.551 139.541 29.6344 139.888 29.7371C140.247 29.8398 140.542 29.9617 140.773 30.1028C140.914 30.1927 141.03 30.2825 141.12 30.3723C141.209 30.4622 141.254 30.552 141.254 30.6418C141.254 30.7317 141.229 30.8472 141.177 30.9883C141.139 31.1167 141.087 31.2514 141.023 31.3926C140.959 31.5209 140.882 31.63 140.792 31.7198C140.715 31.7968 140.632 31.8353 140.542 31.8353C140.427 31.8353 140.24 31.7775 139.984 31.6621C139.727 31.5466 139.393 31.4375 138.983 31.3348C138.572 31.2321 138.072 31.1808 137.481 31.1808C136.532 31.1808 135.749 31.3605 135.133 31.7198C134.517 32.0663 134.055 32.6181 133.747 33.3753C133.452 34.1196 133.304 35.082 133.304 36.2627C133.304 37.4176 133.452 38.3737 133.747 39.1309C134.042 39.8752 134.498 40.4334 135.114 40.8056C135.73 41.1777 136.5 41.3638 137.424 41.3638C137.911 41.3638 138.348 41.3189 138.733 41.229C139.118 41.1392 139.451 41.043 139.734 40.9403C140.029 40.8376 140.266 40.7414 140.446 40.6516C140.625 40.5617 140.754 40.5168 140.831 40.5168C140.921 40.5168 141.004 40.5681 141.081 40.6708C141.171 40.7606 141.248 40.8697 141.312 40.9981C141.376 41.1264 141.421 41.2547 141.447 41.383C141.472 41.5114 141.485 41.6012 141.485 41.6525C141.485 41.8065 141.427 41.9349 141.312 42.0375C141.209 42.1402 141.049 42.2557 140.831 42.384C140.574 42.5252 140.266 42.6535 139.907 42.769C139.547 42.8717 139.156 42.9551 138.733 43.0192C138.309 43.0962 137.873 43.1347 137.424 43.1347ZM147.571 43.1347C146.108 43.1347 144.985 42.692 144.202 41.8065C143.432 40.9211 143.047 39.6506 143.047 37.9951C143.047 36.3268 143.432 35.0435 144.202 34.1452C144.985 33.2469 146.108 32.7978 147.571 32.7978C149.021 32.7978 150.125 33.2469 150.882 34.1452C151.652 35.0307 152.037 36.314 152.037 37.9951C152.037 39.6634 151.658 40.9403 150.901 41.8258C150.157 42.6984 149.047 43.1347 147.571 43.1347ZM147.532 41.4985C148.379 41.4985 148.995 41.2098 149.38 40.6323C149.778 40.0548 149.977 39.1694 149.977 37.9759C149.977 36.7824 149.778 35.8969 149.38 35.3195C148.995 34.7291 148.379 34.434 147.532 34.434C146.698 34.434 146.082 34.7227 145.684 35.3002C145.299 35.8777 145.107 36.7696 145.107 37.9759C145.107 39.1694 145.299 40.0548 145.684 40.6323C146.082 41.2098 146.698 41.4985 147.532 41.4985ZM155.45 43.0385C155.129 43.0385 154.905 43 154.777 42.923C154.648 42.8332 154.584 42.7113 154.584 42.5573V35.9547C154.584 35.4157 154.565 34.9794 154.526 34.6457C154.501 34.3121 154.469 34.049 154.43 33.8565C154.404 33.664 154.392 33.5164 154.392 33.4138C154.392 33.3368 154.443 33.2662 154.546 33.202C154.661 33.1378 154.796 33.0865 154.95 33.048C155.104 33.0095 155.258 32.9839 155.412 32.971C155.579 32.9582 155.713 32.9518 155.816 32.9518C155.944 32.9518 156.041 32.9903 156.105 33.0673C156.182 33.1443 156.246 33.279 156.297 33.4715C156.349 33.6512 156.406 33.9142 156.471 34.2607C156.702 33.9656 156.965 33.7153 157.26 33.51C157.568 33.2918 157.895 33.1186 158.241 32.9903C158.601 32.8619 158.967 32.7978 159.339 32.7978C159.788 32.7978 160.186 32.8619 160.532 32.9903C160.891 33.1058 161.199 33.2854 161.456 33.5293C161.726 33.7602 161.931 34.0554 162.072 34.4147C162.303 34.0939 162.573 33.818 162.881 33.587C163.201 33.3432 163.548 33.1507 163.92 33.0095C164.292 32.8684 164.671 32.7978 165.056 32.7978C165.697 32.7978 166.243 32.9197 166.692 33.1635C167.141 33.4073 167.481 33.7602 167.712 34.2222C167.943 34.6842 168.059 35.2489 168.059 35.9162V42.5573C168.059 42.7113 167.995 42.8332 167.866 42.923C167.738 43 167.513 43.0385 167.192 43.0385H166.923C166.602 43.0385 166.378 43 166.249 42.923C166.121 42.8332 166.057 42.7113 166.057 42.5573V36.1472C166.057 35.6082 165.922 35.1975 165.653 34.9152C165.383 34.6329 164.966 34.4917 164.401 34.4917C164.209 34.4917 164.01 34.5238 163.805 34.588C163.599 34.6393 163.4 34.7291 163.208 34.8575C163.028 34.9858 162.849 35.1398 162.669 35.3195C162.489 35.4863 162.322 35.6916 162.168 35.9354V35.0307C162.245 35.1719 162.29 35.3195 162.303 35.4735C162.329 35.6274 162.342 35.7814 162.342 35.9354V42.5573C162.342 42.7113 162.271 42.8332 162.13 42.923C162.002 43 161.777 43.0385 161.456 43.0385H161.206C160.885 43.0385 160.654 43 160.513 42.923C160.385 42.8332 160.32 42.7113 160.32 42.5573V36.1472C160.32 35.6082 160.186 35.1975 159.916 34.9152C159.647 34.6329 159.236 34.4917 158.684 34.4917C158.415 34.4917 158.145 34.5431 157.876 34.6457C157.619 34.7484 157.375 34.896 157.144 35.0885C156.926 35.281 156.74 35.4991 156.586 35.7429V42.5573C156.586 42.7113 156.522 42.8332 156.394 42.923C156.265 43 156.041 43.0385 155.72 43.0385H155.45ZM171.767 46.9846C171.446 46.9846 171.222 46.9397 171.094 46.8499C170.965 46.7729 170.901 46.6574 170.901 46.5034V35.9547C170.901 35.4157 170.882 34.9794 170.843 34.6457C170.818 34.3121 170.786 34.049 170.747 33.8565C170.721 33.664 170.709 33.5164 170.709 33.4138C170.709 33.3368 170.76 33.2662 170.863 33.202C170.978 33.1378 171.113 33.0865 171.267 33.048C171.421 33.0095 171.575 32.9839 171.729 32.971C171.896 32.9582 172.03 32.9518 172.133 32.9518C172.261 32.9518 172.358 32.9903 172.422 33.0673C172.486 33.1314 172.544 33.2533 172.595 33.433C172.646 33.5998 172.704 33.8308 172.768 34.126C173.025 33.8437 173.307 33.6063 173.615 33.4138C173.923 33.2084 174.25 33.0544 174.597 32.9518C174.943 32.8491 175.296 32.7978 175.656 32.7978C176.438 32.7978 177.106 32.9967 177.658 33.3945C178.209 33.7923 178.633 34.3698 178.928 35.127C179.236 35.8841 179.39 36.8145 179.39 37.9181C179.39 38.9448 179.236 39.8495 178.928 40.6323C178.633 41.4023 178.197 42.0119 177.619 42.461C177.042 42.9102 176.355 43.1347 175.559 43.1347C175.213 43.1347 174.879 43.0898 174.558 43C174.238 42.9102 173.936 42.7883 173.654 42.6343C173.371 42.4803 173.121 42.307 172.903 42.1145V46.5034C172.903 46.6574 172.839 46.7729 172.71 46.8499C172.582 46.9397 172.358 46.9846 172.037 46.9846H171.767ZM175.155 41.4793C175.861 41.4793 176.4 41.1713 176.772 40.5553C177.144 39.9393 177.33 39.0603 177.33 37.9181C177.33 36.7503 177.125 35.8905 176.714 35.3387C176.317 34.7741 175.765 34.4917 175.059 34.4917C174.661 34.4917 174.276 34.5944 173.904 34.7997C173.532 35.005 173.198 35.2874 172.903 35.6467V40.4206C173.237 40.7671 173.596 41.0301 173.981 41.2098C174.366 41.3895 174.757 41.4793 175.155 41.4793ZM184.303 43.1347C183.751 43.1347 183.296 43.0321 182.937 42.8268C182.577 42.6214 182.308 42.3263 182.128 41.9413C181.948 41.5435 181.859 41.0558 181.859 40.4783V29.0056C181.859 28.8388 181.923 28.7169 182.051 28.6399C182.179 28.5501 182.404 28.5051 182.725 28.5051H182.994C183.315 28.5051 183.54 28.5501 183.668 28.6399C183.796 28.7169 183.861 28.8388 183.861 29.0056V40.4398C183.861 40.8248 183.918 41.0943 184.034 41.2483C184.162 41.3895 184.38 41.46 184.688 41.46C184.958 41.46 185.157 41.428 185.285 41.3638C185.413 41.2996 185.522 41.2675 185.612 41.2675C185.676 41.2675 185.734 41.3189 185.786 41.4215C185.837 41.5114 185.875 41.6269 185.901 41.768C185.94 41.8964 185.959 42.0247 185.959 42.153C185.972 42.2685 185.978 42.3519 185.978 42.4033C185.978 42.5444 185.882 42.6728 185.689 42.7883C185.51 42.8909 185.291 42.9743 185.035 43.0385C184.778 43.1027 184.534 43.1347 184.303 43.1347ZM188.517 43.0385C188.196 43.0385 187.971 43 187.843 42.923C187.714 42.8332 187.65 42.7113 187.65 42.5573V33.3753C187.65 33.2213 187.714 33.1058 187.843 33.0288C187.971 32.9389 188.196 32.894 188.517 32.894H188.786C189.107 32.894 189.331 32.9389 189.46 33.0288C189.588 33.1058 189.652 33.2213 189.652 33.3753V42.5573C189.652 42.7113 189.588 42.8332 189.46 42.923C189.331 43 189.107 43.0385 188.786 43.0385H188.517ZM188.651 31.6621C188.279 31.6621 188.016 31.6236 187.862 31.5466C187.708 31.4567 187.631 31.3348 187.631 31.1808V29.9296C187.631 29.7756 187.708 29.6601 187.862 29.5831C188.016 29.4933 188.279 29.4484 188.651 29.4484C189.011 29.4484 189.267 29.4933 189.421 29.5831C189.575 29.6601 189.652 29.7756 189.652 29.9296V31.1808C189.652 31.3348 189.575 31.4567 189.421 31.5466C189.267 31.6236 189.011 31.6621 188.651 31.6621ZM195.247 43.1347C194.285 43.1347 193.515 42.8909 192.937 42.4033C192.373 41.9028 192.09 41.1905 192.09 40.2666C192.09 39.6763 192.186 39.1629 192.379 38.7266C192.571 38.2903 192.892 37.9246 193.341 37.6294C193.803 37.3342 194.432 37.1161 195.228 36.9749C196.023 36.8209 197.018 36.7439 198.212 36.7439V35.9162C198.212 35.6339 198.147 35.3836 198.019 35.1655C197.904 34.9473 197.705 34.7741 197.422 34.6457C197.14 34.5046 196.761 34.434 196.287 34.434C195.748 34.434 195.266 34.4981 194.843 34.6265C194.419 34.742 194.073 34.8639 193.803 34.9922C193.534 35.1077 193.354 35.1655 193.264 35.1655C193.187 35.1655 193.117 35.127 193.053 35.05C192.988 34.9601 192.924 34.8511 192.86 34.7227C192.809 34.5944 192.764 34.4661 192.725 34.3377C192.687 34.2094 192.668 34.1003 192.668 34.0105C192.668 33.8822 192.777 33.7538 192.995 33.6255C193.213 33.4843 193.502 33.356 193.861 33.2405C194.233 33.1122 194.638 33.0095 195.074 32.9325C195.523 32.8427 195.966 32.7978 196.402 32.7978C197.031 32.7978 197.583 32.8748 198.058 33.0288C198.532 33.1699 198.924 33.3753 199.232 33.6447C199.553 33.9142 199.79 34.2415 199.944 34.6265C200.111 34.9986 200.194 35.4157 200.194 35.8777V39.9778C200.194 40.5425 200.213 40.9981 200.252 41.3445C200.29 41.6782 200.323 41.9349 200.348 42.1145C200.387 42.2942 200.406 42.4353 200.406 42.538C200.406 42.615 200.355 42.6856 200.252 42.7498C200.149 42.8011 200.021 42.846 199.867 42.8845C199.713 42.923 199.553 42.9551 199.386 42.9808C199.232 42.9936 199.097 43 198.981 43C198.84 43 198.731 42.9487 198.654 42.846C198.59 42.7433 198.532 42.5958 198.481 42.4033C198.443 42.1979 198.391 41.9541 198.327 41.6718C198.147 41.8899 197.916 42.1145 197.634 42.3455C197.352 42.5637 197.012 42.7498 196.614 42.9038C196.216 43.0577 195.76 43.1347 195.247 43.1347ZM195.574 41.4793C195.972 41.4793 196.331 41.4215 196.652 41.306C196.973 41.1777 197.262 41.0173 197.519 40.8248C197.775 40.6323 198.006 40.4206 198.212 40.1896V38.2646C197.403 38.2646 196.736 38.2967 196.21 38.3609C195.683 38.425 195.266 38.5341 194.958 38.6881C194.663 38.8293 194.451 39.0218 194.323 39.2656C194.195 39.4966 194.131 39.7789 194.131 40.1126C194.131 40.5489 194.253 40.889 194.496 41.1328C194.74 41.3638 195.1 41.4793 195.574 41.4793ZM204.1 43.0385C203.78 43.0385 203.555 43 203.427 42.923C203.298 42.8332 203.234 42.7113 203.234 42.5573V35.9547C203.234 35.4157 203.215 34.9794 203.176 34.6457C203.151 34.3121 203.119 34.049 203.08 33.8565C203.054 33.664 203.042 33.5164 203.042 33.4138C203.042 33.3368 203.093 33.2662 203.196 33.202C203.311 33.1378 203.446 33.0865 203.6 33.048C203.754 33.0095 203.908 32.9839 204.062 32.971C204.229 32.9582 204.363 32.9518 204.466 32.9518C204.594 32.9518 204.691 32.9903 204.755 33.0673C204.832 33.1443 204.896 33.279 204.947 33.4715C204.999 33.6512 205.056 33.9142 205.121 34.2607C205.352 33.9656 205.621 33.7153 205.929 33.51C206.25 33.2918 206.59 33.1186 206.949 32.9903C207.309 32.8619 207.674 32.7978 208.047 32.7978C208.701 32.7978 209.253 32.9197 209.702 33.1635C210.164 33.4073 210.51 33.7602 210.741 34.2222C210.985 34.6842 211.107 35.2489 211.107 35.9162V42.5573C211.107 42.7113 211.043 42.8332 210.915 42.923C210.786 43 210.562 43.0385 210.241 43.0385H209.971C209.651 43.0385 209.426 43 209.298 42.923C209.169 42.8332 209.105 42.7113 209.105 42.5573V36.1472C209.105 35.6082 208.964 35.1975 208.682 34.9152C208.399 34.6329 207.97 34.4917 207.392 34.4917C207.11 34.4917 206.834 34.5431 206.564 34.6457C206.295 34.7484 206.045 34.896 205.814 35.0885C205.583 35.281 205.39 35.5055 205.236 35.7622V42.5573C205.236 42.7113 205.172 42.8332 205.044 42.923C204.915 43 204.691 43.0385 204.37 43.0385H204.1ZM218.011 43.1347C216.458 43.1347 215.297 42.7369 214.527 41.9413C213.757 41.1456 213.372 39.8367 213.372 38.0144C213.372 36.3333 213.763 35.0435 214.546 34.1452C215.342 33.2469 216.509 32.7978 218.049 32.7978C218.421 32.7978 218.781 32.8299 219.127 32.894C219.487 32.9582 219.807 33.048 220.09 33.1635C220.385 33.2662 220.616 33.3817 220.783 33.51C220.95 33.6383 221.033 33.7667 221.033 33.895C221.033 34.0105 221.001 34.1581 220.937 34.3377C220.885 34.5046 220.808 34.6586 220.706 34.7997C220.616 34.928 220.52 34.9922 220.417 34.9922C220.327 34.9922 220.173 34.9473 219.955 34.8575C219.75 34.7548 219.48 34.6586 219.147 34.5687C218.826 34.4789 218.434 34.434 217.972 34.434C217.113 34.434 216.471 34.7291 216.047 35.3195C215.637 35.8969 215.431 36.7824 215.431 37.9759C215.431 39.195 215.637 40.0869 216.047 40.6516C216.471 41.2162 217.151 41.4985 218.088 41.4985C218.524 41.4985 218.909 41.4408 219.243 41.3253C219.589 41.2098 219.878 41.0943 220.109 40.9788C220.34 40.8633 220.5 40.8056 220.59 40.8056C220.693 40.8056 220.783 40.8761 220.86 41.0173C220.95 41.1456 221.02 41.2932 221.071 41.46C221.136 41.6269 221.168 41.768 221.168 41.8835C221.168 42.0247 221.065 42.1723 220.86 42.3263C220.667 42.4674 220.417 42.6022 220.109 42.7305C219.801 42.846 219.461 42.9423 219.089 43.0192C218.717 43.0962 218.357 43.1347 218.011 43.1347ZM227.431 43.1347C225.878 43.1347 224.704 42.7241 223.908 41.9028C223.112 41.0815 222.714 39.7853 222.714 38.0144C222.714 36.8594 222.894 35.8969 223.253 35.127C223.626 34.357 224.152 33.7795 224.832 33.3945C225.512 32.9967 226.327 32.7978 227.277 32.7978C228.188 32.7978 228.938 33.0031 229.529 33.4138C230.119 33.8116 230.555 34.3826 230.838 35.127C231.12 35.8713 231.261 36.7503 231.261 37.7641C231.261 37.8925 231.223 38.0336 231.146 38.1876C231.069 38.3288 230.966 38.4507 230.838 38.5534C230.722 38.656 230.6 38.7074 230.472 38.7074H224.774C224.8 39.6827 225.037 40.3949 225.486 40.8441C225.948 41.2804 226.616 41.4985 227.488 41.4985C228.053 41.4985 228.534 41.428 228.932 41.2868C229.343 41.1456 229.67 41.0109 229.914 40.8826C230.17 40.7542 230.337 40.6901 230.414 40.6901C230.517 40.6901 230.613 40.7542 230.703 40.8826C230.793 41.0109 230.863 41.1649 230.915 41.3445C230.979 41.5114 231.011 41.6461 231.011 41.7488C231.011 41.8899 230.908 42.0375 230.703 42.1915C230.498 42.3455 230.222 42.4995 229.875 42.6535C229.542 42.7947 229.163 42.9102 228.74 43C228.316 43.0898 227.88 43.1347 227.431 43.1347ZM224.755 37.1674H229.298C229.298 36.2563 229.112 35.5761 228.74 35.127C228.367 34.665 227.828 34.434 227.123 34.434C226.648 34.434 226.237 34.5366 225.891 34.742C225.544 34.9473 225.268 35.2489 225.063 35.6467C224.87 36.0445 224.768 36.5514 224.755 37.1674Z" fill="#35334C"/>
<path d="M30.5794 74.0385C30.2714 74.0385 30.0469 74 29.9057 73.923C29.7645 73.8332 29.694 73.7113 29.694 73.5573V61.1606C29.694 60.7371 29.9057 60.5254 30.3292 60.5254H36.3158C36.5853 60.5254 36.72 60.7564 36.72 61.2183V61.6033C36.72 62.0653 36.5853 62.2963 36.3158 62.2963H31.7921V66.7237H36.0463C36.3286 66.7237 36.4698 66.9547 36.4698 67.4167V67.8017C36.4698 68.2637 36.3286 68.4946 36.0463 68.4946H31.7921V73.5573C31.7921 73.7113 31.7216 73.8332 31.5804 73.923C31.4521 74 31.2211 74.0385 30.8874 74.0385H30.5794ZM40.1066 74.0385C39.7857 74.0385 39.5612 74 39.4328 73.923C39.3045 73.8332 39.2403 73.7113 39.2403 73.5573V64.3753C39.2403 64.2213 39.3045 64.1058 39.4328 64.0288C39.5612 63.9389 39.7857 63.894 40.1066 63.894H40.3761C40.6969 63.894 40.9215 63.9389 41.0498 64.0288C41.1781 64.1058 41.2423 64.2213 41.2423 64.3753V73.5573C41.2423 73.7113 41.1781 73.8332 41.0498 73.923C40.9215 74 40.6969 74.0385 40.3761 74.0385H40.1066ZM40.2413 62.6621C39.8692 62.6621 39.6061 62.6236 39.4521 62.5466C39.2981 62.4567 39.2211 62.3348 39.2211 62.1808V60.9296C39.2211 60.7756 39.2981 60.6601 39.4521 60.5831C39.6061 60.4933 39.8692 60.4484 40.2413 60.4484C40.6006 60.4484 40.8573 60.4933 41.0113 60.5831C41.1653 60.6601 41.2423 60.7756 41.2423 60.9296V62.1808C41.2423 62.3348 41.1653 62.4567 41.0113 62.5466C40.8573 62.6236 40.6006 62.6621 40.2413 62.6621ZM46.7024 74.1347C46.1506 74.1347 45.695 74.0321 45.3357 73.8268C44.9763 73.6214 44.7068 73.3263 44.5272 72.9413C44.3475 72.5435 44.2577 72.0558 44.2577 71.4783V60.0056C44.2577 59.8388 44.3219 59.7169 44.4502 59.6399C44.5785 59.5501 44.8031 59.5051 45.1239 59.5051H45.3934C45.7142 59.5051 45.9388 59.5501 46.0671 59.6399C46.1955 59.7169 46.2596 59.8388 46.2596 60.0056V71.4398C46.2596 71.8248 46.3174 72.0943 46.4329 72.2483C46.5612 72.3895 46.7794 72.46 47.0874 72.46C47.3569 72.46 47.5558 72.428 47.6841 72.3638C47.8124 72.2996 47.9215 72.2675 48.0113 72.2675C48.0755 72.2675 48.1333 72.3189 48.1846 72.4215C48.2359 72.5114 48.2744 72.6269 48.3001 72.768C48.3386 72.8964 48.3578 73.0247 48.3578 73.153C48.3707 73.2685 48.3771 73.3519 48.3771 73.4033C48.3771 73.5444 48.2808 73.6728 48.0883 73.7883C47.9087 73.8909 47.6905 73.9743 47.4339 74.0385C47.1772 74.1027 46.9334 74.1347 46.7024 74.1347ZM52.4171 74.1347C51.8652 74.1347 51.4097 74.0321 51.0504 73.8268C50.691 73.6214 50.4215 73.3263 50.2419 72.9413C50.0622 72.5435 49.9724 72.0558 49.9724 71.4783V60.0056C49.9724 59.8388 50.0365 59.7169 50.1649 59.6399C50.2932 59.5501 50.5178 59.5051 50.8386 59.5051H51.1081C51.4289 59.5051 51.6535 59.5501 51.7818 59.6399C51.9102 59.7169 51.9743 59.8388 51.9743 60.0056V71.4398C51.9743 71.8248 52.0321 72.0943 52.1476 72.2483C52.2759 72.3895 52.4941 72.46 52.8021 72.46C53.0716 72.46 53.2705 72.428 53.3988 72.3638C53.5271 72.2996 53.6362 72.2675 53.726 72.2675C53.7902 72.2675 53.8479 72.3189 53.8993 72.4215C53.9506 72.5114 53.9891 72.6269 54.0148 72.768C54.0533 72.8964 54.0725 73.0247 54.0725 73.153C54.0854 73.2685 54.0918 73.3519 54.0918 73.4033C54.0918 73.5444 53.9955 73.6728 53.803 73.7883C53.6234 73.8909 53.4052 73.9743 53.1485 74.0385C52.8919 74.1027 52.6481 74.1347 52.4171 74.1347ZM56.6303 74.0385C56.3095 74.0385 56.0849 74 55.9566 73.923C55.8282 73.8332 55.7641 73.7113 55.7641 73.5573V64.3753C55.7641 64.2213 55.8282 64.1058 55.9566 64.0288C56.0849 63.9389 56.3095 63.894 56.6303 63.894H56.8998C57.2206 63.894 57.4452 63.9389 57.5735 64.0288C57.7019 64.1058 57.766 64.2213 57.766 64.3753V73.5573C57.766 73.7113 57.7019 73.8332 57.5735 73.923C57.4452 74 57.2206 74.0385 56.8998 74.0385H56.6303ZM56.765 62.6621C56.3929 62.6621 56.1298 62.6236 55.9758 62.5466C55.8218 62.4567 55.7448 62.3348 55.7448 62.1808V60.9296C55.7448 60.7756 55.8218 60.6601 55.9758 60.5831C56.1298 60.4933 56.3929 60.4484 56.765 60.4484C57.1244 60.4484 57.381 60.4933 57.535 60.5831C57.689 60.6601 57.766 60.7756 57.766 60.9296V62.1808C57.766 62.3348 57.689 62.4567 57.535 62.5466C57.381 62.6236 57.1244 62.6621 56.765 62.6621ZM61.7246 74.0385C61.4038 74.0385 61.1792 74 61.0509 73.923C60.9226 73.8332 60.8584 73.7113 60.8584 73.5573V66.9547C60.8584 66.4157 60.8392 65.9794 60.8007 65.6457C60.775 65.3121 60.7429 65.049 60.7044 64.8565C60.6788 64.664 60.6659 64.5164 60.6659 64.4138C60.6659 64.3368 60.7173 64.2662 60.8199 64.202C60.9354 64.1378 61.0702 64.0865 61.2242 64.048C61.3782 64.0095 61.5321 63.9839 61.6861 63.971C61.853 63.9582 61.9877 63.9518 62.0904 63.9518C62.2187 63.9518 62.315 63.9903 62.3791 64.0673C62.4561 64.1443 62.5203 64.279 62.5716 64.4715C62.623 64.6512 62.6807 64.9142 62.7449 65.2607C62.9759 64.9656 63.2454 64.7153 63.5533 64.51C63.8742 64.2918 64.2142 64.1186 64.5736 63.9903C64.9329 63.8619 65.2986 63.7978 65.6708 63.7978C66.3253 63.7978 66.8771 63.9197 67.3262 64.1635C67.7882 64.4073 68.1347 64.7602 68.3657 65.2222C68.6095 65.6842 68.7315 66.2489 68.7315 66.9162V73.5573C68.7315 73.7113 68.6673 73.8332 68.539 73.923C68.4106 74 68.1861 74.0385 67.8652 74.0385H67.5957C67.2749 74.0385 67.0503 74 66.922 73.923C66.7937 73.8332 66.7295 73.7113 66.7295 73.5573V67.1472C66.7295 66.6082 66.5883 66.1975 66.306 65.9152C66.0237 65.6329 65.5938 65.4917 65.0163 65.4917C64.734 65.4917 64.4581 65.5431 64.1886 65.6457C63.9191 65.7484 63.6688 65.896 63.4378 66.0885C63.2069 66.281 63.0144 66.5055 62.8604 66.7622V73.5573C62.8604 73.7113 62.7962 73.8332 62.6679 73.923C62.5395 74 62.315 74.0385 61.9941 74.0385H61.7246ZM74.9421 78.0809C74.108 78.0809 73.3829 77.9911 72.7669 77.8114C72.1509 77.6446 71.6761 77.3687 71.3425 76.9837C71.0088 76.6115 70.842 76.1239 70.842 75.5207C70.842 75.1614 70.9126 74.8277 71.0537 74.5197C71.1949 74.2117 71.3938 73.9423 71.6505 73.7113C71.9071 73.4674 72.2023 73.2814 72.5359 73.153L72.5552 73.0953C72.3242 72.9284 72.1381 72.7167 71.997 72.46C71.8558 72.2034 71.7852 71.9018 71.7852 71.5553C71.7852 71.1575 71.875 70.811 72.0547 70.5158C72.2472 70.2207 72.5167 69.964 72.8632 69.7459C72.337 69.4764 71.9328 69.1106 71.6505 68.6486C71.3681 68.1738 71.227 67.6348 71.227 67.0317C71.227 66.3644 71.381 65.7933 71.689 65.3185C72.0098 64.8437 72.4589 64.4715 73.0364 64.202C73.6267 63.9325 74.3261 63.7978 75.1346 63.7978C75.3528 63.7978 75.5645 63.8106 75.7699 63.8363C75.9752 63.8619 76.1741 63.894 76.3666 63.9325H79.7545C79.9085 63.9325 80.0176 63.9903 80.0817 64.1058C80.1587 64.2084 80.1972 64.3817 80.1972 64.6255V64.8757C80.1972 65.3249 80.0561 65.5495 79.7737 65.5495C79.6967 65.5495 79.5748 65.5431 79.408 65.5302C79.2412 65.5174 79.0679 65.5046 78.8883 65.4917C78.7214 65.4661 78.5803 65.4404 78.4648 65.4147L78.4455 65.4532C78.5867 65.6072 78.6958 65.7676 78.7728 65.9345C78.8626 66.1013 78.9204 66.2745 78.946 66.4542C78.9845 66.6339 79.0038 66.8264 79.0038 67.0317C79.0038 67.6733 78.8498 68.2316 78.5418 68.7064C78.2338 69.1812 77.7975 69.5534 77.2328 69.8229C76.6682 70.0795 75.9816 70.2079 75.1731 70.2079C74.801 70.2079 74.493 70.2464 74.2491 70.3233C74.0053 70.3875 73.8257 70.4966 73.7102 70.6506C73.6075 70.7918 73.5562 70.9842 73.5562 71.2281C73.5562 71.4847 73.6396 71.6836 73.8064 71.8248C73.9732 71.966 74.1978 72.0751 74.4801 72.152C74.7753 72.229 75.1025 72.2868 75.4619 72.3253C75.8212 72.3638 76.1869 72.4087 76.5591 72.46C77.1109 72.537 77.6178 72.6654 78.0798 72.845C78.5546 73.0247 78.9268 73.2878 79.1963 73.6343C79.4786 73.9808 79.6197 74.462 79.6197 75.078C79.6197 75.694 79.4401 76.2265 79.0808 76.6757C78.7214 77.1248 78.1889 77.4713 77.4831 77.7152C76.7901 77.959 75.9431 78.0809 74.9421 78.0809ZM75.1539 76.4832C76.0265 76.4832 76.6746 76.3741 77.0981 76.1559C77.5216 75.9378 77.7333 75.6041 77.7333 75.155C77.7333 74.9111 77.6499 74.7122 77.4831 74.5582C77.3291 74.4042 77.1109 74.2823 76.8286 74.1925C76.5591 74.1155 76.2511 74.0577 75.9046 74.0192C75.5709 73.9808 75.218 73.9423 74.8459 73.9038C74.4866 73.8524 74.1401 73.7883 73.8064 73.7113C73.4984 73.8524 73.2353 74.0385 73.0172 74.2695C72.8118 74.5133 72.7092 74.8149 72.7092 75.1742C72.7092 75.4694 72.7862 75.7132 72.9402 75.9057C73.107 76.111 73.3701 76.2586 73.7294 76.3484C74.0887 76.4383 74.5636 76.4832 75.1539 76.4832ZM75.1154 68.6679C75.4875 68.6679 75.8212 68.6166 76.1163 68.5139C76.4243 68.4112 76.6682 68.238 76.8478 67.9942C77.0403 67.7503 77.1366 67.4231 77.1366 67.0124C77.1366 66.6018 77.0403 66.2745 76.8478 66.0307C76.6682 65.7869 76.4243 65.6136 76.1163 65.511C75.8212 65.4083 75.4875 65.357 75.1154 65.357C74.7432 65.357 74.4031 65.4083 74.0951 65.511C73.8 65.6136 73.5626 65.7869 73.3829 66.0307C73.2033 66.2745 73.1134 66.6018 73.1134 67.0124C73.1134 67.6284 73.3059 68.0583 73.6909 68.3022C74.0887 68.546 74.5636 68.6679 75.1154 68.6679ZM89.8823 74.1347C89.3176 74.1347 88.7915 74.0834 88.3038 73.9808C87.829 73.8781 87.4183 73.7562 87.0719 73.615C86.7254 73.461 86.443 73.3134 86.2249 73.1723C86.0965 73.0824 85.9811 72.9926 85.8784 72.9028C85.7886 72.8129 85.7436 72.7103 85.7436 72.5948C85.7436 72.505 85.7565 72.3959 85.7821 72.2675C85.8206 72.1264 85.8656 71.9916 85.9169 71.8633C85.9811 71.7221 86.0452 71.6066 86.1094 71.5168C86.1864 71.4142 86.2634 71.3628 86.3404 71.3628C86.4687 71.3628 86.6933 71.4462 87.0141 71.6131C87.3349 71.7799 87.7328 71.9467 88.2076 72.1136C88.6952 72.2804 89.2278 72.3638 89.8053 72.3638C90.3058 72.3638 90.7228 72.2932 91.0565 72.152C91.3902 71.9981 91.6404 71.7735 91.8072 71.4783C91.9741 71.1832 92.0575 70.811 92.0575 70.3618C92.0575 70.0025 91.9741 69.7009 91.8072 69.4571C91.6532 69.2005 91.4351 68.9823 91.1527 68.8026C90.8704 68.6101 90.556 68.4433 90.2095 68.3022C89.863 68.161 89.5037 68.0134 89.1316 67.8594C88.7466 67.7054 88.368 67.5386 87.9958 67.3589C87.6237 67.1664 87.2836 66.929 86.9756 66.6467C86.6805 66.3644 86.443 66.0179 86.2634 65.6072C86.0965 65.1837 86.0131 64.664 86.0131 64.048C86.0131 63.4834 86.1222 62.9765 86.3404 62.5273C86.5585 62.0782 86.8665 61.6932 87.2644 61.3723C87.6622 61.0515 88.1177 60.8077 88.6311 60.6409C89.1572 60.474 89.7219 60.3906 90.325 60.3906C90.6715 60.3906 91.0244 60.4227 91.3837 60.4869C91.7431 60.551 92.0767 60.6409 92.3847 60.7564C92.6927 60.859 92.9558 60.9809 93.1739 61.1221C93.2894 61.1863 93.3857 61.2633 93.4627 61.3531C93.5397 61.4429 93.5782 61.5263 93.5782 61.6033C93.5782 61.6932 93.5589 61.8087 93.5204 61.9498C93.4948 62.091 93.4563 62.2321 93.4049 62.3733C93.3536 62.5016 93.2894 62.6171 93.2124 62.7198C93.1354 62.8096 93.0584 62.8545 92.9814 62.8545C92.8531 62.8545 92.6606 62.7968 92.404 62.6813C92.1473 62.5658 91.8457 62.4503 91.4992 62.3348C91.1527 62.2193 90.7549 62.1616 90.3058 62.1616C89.8438 62.1616 89.4524 62.2386 89.1316 62.3926C88.8107 62.5337 88.5605 62.7455 88.3808 63.0278C88.2012 63.2973 88.1113 63.6245 88.1113 64.0095C88.1113 64.4458 88.2268 64.7987 88.4578 65.0682C88.6888 65.3249 88.9904 65.5366 89.3625 65.7035C89.7475 65.8575 90.1582 66.0243 90.5945 66.204C91.0052 66.3708 91.4222 66.5569 91.8457 66.7622C92.2692 66.9547 92.6606 67.2049 93.0199 67.5129C93.3793 67.8081 93.6616 68.1802 93.8669 68.6294C94.0851 69.0657 94.1942 69.6175 94.1942 70.2848C94.1942 70.9137 94.0851 71.4719 93.8669 71.9596C93.6616 72.4344 93.3664 72.8322 92.9814 73.153C92.5965 73.4738 92.1409 73.7177 91.6147 73.8845C91.0886 74.0513 90.5111 74.1347 89.8823 74.1347ZM99.1413 74.1347C98.6023 74.1347 98.1467 74.0321 97.7746 73.8268C97.4152 73.6214 97.1458 73.3263 96.9661 72.9413C96.7864 72.5435 96.6966 72.0558 96.6966 71.4783V65.5687H95.8304C95.5352 65.5687 95.3876 65.3377 95.3876 64.8757V64.6255C95.3876 64.1635 95.5352 63.9325 95.8304 63.9325H96.6966L96.9468 61.9691C96.9725 61.8022 97.0431 61.6803 97.1586 61.6033C97.2741 61.5263 97.4409 61.4878 97.6591 61.4878H97.9478C98.2173 61.4878 98.4098 61.5263 98.5253 61.6033C98.6408 61.6803 98.6985 61.8022 98.6985 61.9691V63.9325H100.2C100.495 63.9325 100.643 64.1635 100.643 64.6255V64.8757C100.643 65.3377 100.495 65.5687 100.2 65.5687H98.6985V71.4398C98.6985 71.812 98.7563 72.0751 98.8718 72.229C99.0001 72.383 99.2183 72.46 99.5263 72.46C99.8086 72.46 100.008 72.428 100.123 72.3638C100.251 72.2996 100.36 72.2675 100.45 72.2675C100.527 72.2675 100.585 72.3189 100.623 72.4215C100.675 72.5114 100.713 72.6269 100.739 72.768C100.777 72.8964 100.797 73.0247 100.797 73.153C100.81 73.2685 100.816 73.3519 100.816 73.4033C100.816 73.5444 100.72 73.6728 100.527 73.7883C100.348 73.8909 100.129 73.9743 99.8728 74.0385C99.6161 74.1027 99.3723 74.1347 99.1413 74.1347ZM105.413 74.1347C104.45 74.1347 103.68 73.8909 103.103 73.4033C102.538 72.9028 102.256 72.1905 102.256 71.2666C102.256 70.6763 102.352 70.1629 102.545 69.7266C102.737 69.2903 103.058 68.9246 103.507 68.6294C103.969 68.3342 104.598 68.1161 105.393 67.9749C106.189 67.8209 107.184 67.7439 108.377 67.7439V66.9162C108.377 66.6339 108.313 66.3836 108.185 66.1655C108.069 65.9473 107.87 65.7741 107.588 65.6457C107.306 65.5046 106.927 65.434 106.452 65.434C105.913 65.434 105.432 65.4981 105.008 65.6265C104.585 65.742 104.238 65.8639 103.969 65.9922C103.7 66.1077 103.52 66.1655 103.43 66.1655C103.353 66.1655 103.282 66.127 103.218 66.05C103.154 65.9601 103.09 65.8511 103.026 65.7227C102.974 65.5944 102.93 65.4661 102.891 65.3377C102.853 65.2094 102.833 65.1003 102.833 65.0105C102.833 64.8822 102.942 64.7538 103.161 64.6255C103.379 64.4843 103.667 64.356 104.027 64.2405C104.399 64.1122 104.803 64.0095 105.239 63.9325C105.689 63.8427 106.131 63.7978 106.568 63.7978C107.196 63.7978 107.748 63.8748 108.223 64.0288C108.698 64.1699 109.089 64.3753 109.397 64.6447C109.718 64.9142 109.956 65.2415 110.11 65.6265C110.276 65.9986 110.36 66.4157 110.36 66.8777V70.9778C110.36 71.5425 110.379 71.9981 110.418 72.3445C110.456 72.6782 110.488 72.9349 110.514 73.1145C110.552 73.2942 110.572 73.4353 110.572 73.538C110.572 73.615 110.52 73.6856 110.418 73.7498C110.315 73.8011 110.187 73.846 110.033 73.8845C109.879 73.923 109.718 73.9551 109.551 73.9808C109.397 73.9936 109.263 74 109.147 74C109.006 74 108.897 73.9487 108.82 73.846C108.756 73.7433 108.698 73.5958 108.647 73.4033C108.608 73.1979 108.557 72.9541 108.493 72.6718C108.313 72.8899 108.082 73.1145 107.8 73.3455C107.517 73.5637 107.177 73.7498 106.779 73.9038C106.382 74.0577 105.926 74.1347 105.413 74.1347ZM105.74 72.4793C106.138 72.4793 106.497 72.4215 106.818 72.306C107.139 72.1777 107.427 72.0173 107.684 71.8248C107.941 71.6323 108.172 71.4206 108.377 71.1896V69.2646C107.569 69.2646 106.901 69.2967 106.375 69.3609C105.849 69.425 105.432 69.5341 105.124 69.6881C104.829 69.8293 104.617 70.0218 104.489 70.2656C104.36 70.4966 104.296 70.7789 104.296 71.1126C104.296 71.5489 104.418 71.889 104.662 72.1328C104.906 72.3638 105.265 72.4793 105.74 72.4793ZM116.21 74.1347C115.671 74.1347 115.216 74.0321 114.843 73.8268C114.484 73.6214 114.215 73.3263 114.035 72.9413C113.855 72.5435 113.765 72.0558 113.765 71.4783V65.5687H112.899C112.604 65.5687 112.457 65.3377 112.457 64.8757V64.6255C112.457 64.1635 112.604 63.9325 112.899 63.9325H113.765L114.016 61.9691C114.041 61.8022 114.112 61.6803 114.227 61.6033C114.343 61.5263 114.51 61.4878 114.728 61.4878H115.017C115.286 61.4878 115.479 61.5263 115.594 61.6033C115.71 61.6803 115.767 61.8022 115.767 61.9691V63.9325H117.269C117.564 63.9325 117.712 64.1635 117.712 64.6255V64.8757C117.712 65.3377 117.564 65.5687 117.269 65.5687H115.767V71.4398C115.767 71.812 115.825 72.0751 115.941 72.229C116.069 72.383 116.287 72.46 116.595 72.46C116.877 72.46 117.076 72.428 117.192 72.3638C117.32 72.2996 117.429 72.2675 117.519 72.2675C117.596 72.2675 117.654 72.3189 117.692 72.4215C117.744 72.5114 117.782 72.6269 117.808 72.768C117.846 72.8964 117.866 73.0247 117.866 73.153C117.878 73.2685 117.885 73.3519 117.885 73.4033C117.885 73.5444 117.789 73.6728 117.596 73.7883C117.416 73.8909 117.198 73.9743 116.942 74.0385C116.685 74.1027 116.441 74.1347 116.21 74.1347ZM122.693 74.1347C121.744 74.1347 121.006 73.8717 120.48 73.3455C119.966 72.8065 119.71 72.0494 119.71 71.0741V64.3753C119.71 64.2213 119.774 64.1058 119.902 64.0288C120.03 63.9389 120.255 63.894 120.576 63.894H120.845C121.166 63.894 121.391 63.9389 121.519 64.0288C121.647 64.1058 121.712 64.2213 121.712 64.3753V70.8431C121.712 71.3564 121.846 71.7542 122.116 72.0366C122.385 72.306 122.796 72.4408 123.348 72.4408C123.643 72.4408 123.925 72.3895 124.195 72.2868C124.477 72.1841 124.74 72.0366 124.984 71.8441C125.228 71.6516 125.427 71.427 125.581 71.1703V64.3753C125.581 64.2213 125.645 64.1058 125.773 64.0288C125.902 63.9389 126.126 63.894 126.447 63.894H126.716C127.037 63.894 127.262 63.9389 127.39 64.0288C127.519 64.1058 127.583 64.2213 127.583 64.3753V70.9778C127.583 71.5168 127.596 71.9531 127.621 72.2868C127.66 72.6205 127.692 72.8835 127.717 73.076C127.756 73.2685 127.775 73.4161 127.775 73.5188C127.775 73.6086 127.717 73.6856 127.602 73.7498C127.499 73.8139 127.371 73.8653 127.217 73.9038C127.063 73.9294 126.903 73.9551 126.736 73.9808C126.582 73.9936 126.453 74 126.351 74C126.222 74 126.12 73.9615 126.043 73.8845C125.979 73.8075 125.921 73.6728 125.869 73.4803C125.818 73.2749 125.76 73.0054 125.696 72.6718C125.465 72.9541 125.183 73.2044 124.849 73.4225C124.528 73.6407 124.182 73.8139 123.81 73.9423C123.45 74.0706 123.078 74.1347 122.693 74.1347ZM132.927 74.1732C132.516 74.1732 132.125 74.1347 131.753 74.0577C131.381 73.9808 131.047 73.8781 130.752 73.7498C130.47 73.6214 130.245 73.4867 130.078 73.3455C129.911 73.2044 129.828 73.0632 129.828 72.922C129.828 72.8194 129.873 72.6846 129.963 72.5178C130.053 72.3381 130.155 72.1777 130.271 72.0366C130.386 71.8826 130.495 71.8056 130.598 71.8056C130.662 71.8056 130.784 71.8697 130.964 71.9981C131.143 72.1136 131.387 72.229 131.695 72.3445C132.003 72.46 132.362 72.5178 132.773 72.5178C133.325 72.5178 133.742 72.4151 134.024 72.2098C134.307 71.9916 134.448 71.6772 134.448 71.2666C134.448 70.9714 134.371 70.7276 134.217 70.5351C134.063 70.3426 133.845 70.1822 133.562 70.0539C133.293 69.9255 132.985 69.8036 132.638 69.6881C132.33 69.5726 132.022 69.4443 131.714 69.3031C131.406 69.162 131.124 68.9823 130.867 68.7641C130.624 68.546 130.425 68.2701 130.271 67.9364C130.13 67.6028 130.059 67.1857 130.059 66.6852C130.059 66.1077 130.194 65.6008 130.463 65.1645C130.746 64.7282 131.131 64.3945 131.618 64.1635C132.119 63.9197 132.69 63.7978 133.331 63.7978C133.652 63.7978 133.967 63.817 134.275 63.8555C134.583 63.894 134.865 63.9582 135.122 64.048C135.378 64.125 135.584 64.2213 135.738 64.3368C135.904 64.4523 135.988 64.5742 135.988 64.7025C135.988 64.818 135.949 64.972 135.872 65.1645C135.795 65.3441 135.705 65.511 135.603 65.665C135.5 65.8061 135.397 65.8767 135.295 65.8767C135.231 65.8767 135.051 65.7997 134.756 65.6457C134.474 65.4917 134.076 65.4147 133.562 65.4147C133.126 65.4147 132.76 65.511 132.465 65.7035C132.183 65.8831 132.042 66.159 132.042 66.5312C132.042 66.7622 132.093 66.9611 132.196 67.1279C132.298 67.2819 132.465 67.4231 132.696 67.5514C132.927 67.6669 133.222 67.7888 133.582 67.9172C133.954 68.0455 134.313 68.1931 134.66 68.3599C135.006 68.5267 135.314 68.7321 135.584 68.9759C135.853 69.2069 136.058 69.4956 136.2 69.8421C136.354 70.1886 136.431 70.5993 136.431 71.0741C136.431 71.6772 136.283 72.2098 135.988 72.6718C135.693 73.1338 135.282 73.4995 134.756 73.769C134.23 74.0385 133.62 74.1732 132.927 74.1732ZM138.8 74.0385C138.492 74.0385 138.261 74 138.107 73.923C137.966 73.8332 137.895 73.7113 137.895 73.5573V72.152C137.895 71.9852 137.966 71.8633 138.107 71.7863C138.261 71.7093 138.492 71.6708 138.8 71.6708H139.185C139.506 71.6708 139.737 71.7093 139.878 71.7863C140.019 71.8633 140.09 71.9852 140.09 72.152V73.5573C140.09 73.7113 140.019 73.8332 139.878 73.923C139.737 74 139.506 74.0385 139.185 74.0385H138.8ZM138.8 66.2617C138.492 66.2617 138.261 66.2232 138.107 66.1462C137.966 66.0564 137.895 65.9345 137.895 65.7805V64.3753C137.895 64.2084 137.966 64.0865 138.107 64.0095C138.261 63.9325 138.492 63.894 138.8 63.894H139.185C139.506 63.894 139.737 63.9325 139.878 64.0095C140.019 64.0865 140.09 64.2084 140.09 64.3753V65.7805C140.09 65.9345 140.019 66.0564 139.878 66.1462C139.737 66.2232 139.506 66.2617 139.185 66.2617H138.8Z" fill="#797A8A"/>
<path d="M146.624 74.0385C146.304 74.0385 146.066 74.0064 145.912 73.9423C145.771 73.8781 145.7 73.7947 145.7 73.692C145.7 73.6407 145.707 73.5958 145.72 73.5573C145.732 73.5059 145.745 73.4482 145.758 73.384L150.224 60.8141C150.263 60.7114 150.352 60.6344 150.493 60.5831C150.647 60.5189 150.846 60.4869 151.09 60.4869H151.764C152.021 60.4869 152.22 60.5189 152.361 60.5831C152.502 60.6344 152.592 60.7114 152.63 60.8141L157.096 73.4033C157.122 73.4546 157.135 73.5059 157.135 73.5573C157.147 73.5958 157.154 73.6407 157.154 73.692C157.154 73.7818 157.083 73.8653 156.942 73.9423C156.814 74.0064 156.596 74.0385 156.288 74.0385H155.941C155.723 74.0385 155.537 74.0128 155.383 73.9615C155.229 73.9102 155.126 73.8268 155.075 73.7113L151.725 63.9325C151.661 63.7529 151.604 63.5668 151.552 63.3743C151.501 63.169 151.462 62.97 151.437 62.7776H151.379C151.34 62.97 151.302 63.169 151.263 63.3743C151.225 63.5668 151.174 63.7529 151.109 63.9325L147.722 73.7113C147.67 73.8268 147.574 73.9102 147.433 73.9615C147.292 74.0128 147.118 74.0385 146.913 74.0385H146.624ZM147.991 70.7276V69.0336H154.805V70.7276H147.991ZM159.758 77.9846C159.437 77.9846 159.213 77.9397 159.084 77.8499C158.956 77.7729 158.892 77.6574 158.892 77.5034V66.9547C158.892 66.4157 158.872 65.9794 158.834 65.6457C158.808 65.3121 158.776 65.049 158.738 64.8565C158.712 64.664 158.699 64.5164 158.699 64.4138C158.699 64.3368 158.751 64.2662 158.853 64.202C158.969 64.1378 159.103 64.0865 159.257 64.048C159.411 64.0095 159.565 63.9839 159.719 63.971C159.886 63.9582 160.021 63.9518 160.124 63.9518C160.252 63.9518 160.348 63.9903 160.412 64.0673C160.477 64.1314 160.534 64.2533 160.586 64.433C160.637 64.5998 160.695 64.8308 160.759 65.126C161.016 64.8437 161.298 64.6063 161.606 64.4138C161.914 64.2084 162.241 64.0544 162.588 63.9518C162.934 63.8491 163.287 63.7978 163.646 63.7978C164.429 63.7978 165.096 63.9967 165.648 64.3945C166.2 64.7923 166.624 65.3698 166.919 66.127C167.227 66.8841 167.381 67.8145 167.381 68.9181C167.381 69.9448 167.227 70.8495 166.919 71.6323C166.624 72.4023 166.187 73.0119 165.61 73.461C165.032 73.9102 164.346 74.1347 163.55 74.1347C163.204 74.1347 162.87 74.0898 162.549 74C162.228 73.9102 161.927 73.7883 161.644 73.6343C161.362 73.4803 161.112 73.307 160.894 73.1145V77.5034C160.894 77.6574 160.829 77.7729 160.701 77.8499C160.573 77.9397 160.348 77.9846 160.027 77.9846H159.758ZM163.146 72.4793C163.852 72.4793 164.391 72.1713 164.763 71.5553C165.135 70.9393 165.321 70.0603 165.321 68.9181C165.321 67.7503 165.116 66.8905 164.705 66.3387C164.307 65.7741 163.755 65.4917 163.05 65.4917C162.652 65.4917 162.267 65.5944 161.895 65.7997C161.522 66.005 161.189 66.2874 160.894 66.6467V71.4206C161.227 71.7671 161.587 72.0301 161.972 72.2098C162.357 72.3895 162.748 72.4793 163.146 72.4793ZM170.793 77.9846C170.472 77.9846 170.247 77.9397 170.119 77.8499C169.99 77.7729 169.926 77.6574 169.926 77.5034V66.9547C169.926 66.4157 169.907 65.9794 169.869 65.6457C169.843 65.3121 169.811 65.049 169.772 64.8565C169.747 64.664 169.734 64.5164 169.734 64.4138C169.734 64.3368 169.785 64.2662 169.888 64.202C170.003 64.1378 170.138 64.0865 170.292 64.048C170.446 64.0095 170.6 63.9839 170.754 63.971C170.921 63.9582 171.056 63.9518 171.158 63.9518C171.287 63.9518 171.383 63.9903 171.447 64.0673C171.511 64.1314 171.569 64.2533 171.62 64.433C171.672 64.5998 171.729 64.8308 171.794 65.126C172.05 64.8437 172.332 64.6063 172.64 64.4138C172.948 64.2084 173.276 64.0544 173.622 63.9518C173.969 63.8491 174.322 63.7978 174.681 63.7978C175.464 63.7978 176.131 63.9967 176.683 64.3945C177.235 64.7923 177.658 65.3698 177.953 66.127C178.261 66.8841 178.415 67.8145 178.415 68.9181C178.415 69.9448 178.261 70.8495 177.953 71.6323C177.658 72.4023 177.222 73.0119 176.644 73.461C176.067 73.9102 175.38 74.1347 174.585 74.1347C174.238 74.1347 173.905 74.0898 173.584 74C173.263 73.9102 172.961 73.7883 172.679 73.6343C172.397 73.4803 172.146 73.307 171.928 73.1145V77.5034C171.928 77.6574 171.864 77.7729 171.736 77.8499C171.607 77.9397 171.383 77.9846 171.062 77.9846H170.793ZM174.18 72.4793C174.886 72.4793 175.425 72.1713 175.797 71.5553C176.17 70.9393 176.356 70.0603 176.356 68.9181C176.356 67.7503 176.15 66.8905 175.74 66.3387C175.342 65.7741 174.79 65.4917 174.084 65.4917C173.686 65.4917 173.301 65.5944 172.929 65.7997C172.557 66.005 172.223 66.2874 171.928 66.6467V71.4206C172.262 71.7671 172.621 72.0301 173.006 72.2098C173.391 72.3895 173.783 72.4793 174.18 72.4793ZM181.904 74.0385C181.596 74.0385 181.372 74 181.23 73.923C181.089 73.8332 181.019 73.7113 181.019 73.5573V66.9547C181.019 66.4157 180.999 65.9794 180.961 65.6457C180.935 65.3121 180.903 65.049 180.865 64.8565C180.839 64.664 180.826 64.5164 180.826 64.4138C180.826 64.3368 180.877 64.2662 180.98 64.202C181.096 64.1378 181.23 64.0865 181.384 64.048C181.538 64.0095 181.692 63.9839 181.846 63.971C182.013 63.9582 182.148 63.9518 182.251 63.9518C182.379 63.9518 182.482 63.9967 182.559 64.0865C182.636 64.1635 182.7 64.3047 182.751 64.51C182.815 64.7025 182.873 64.972 182.924 65.3185C183.104 64.9848 183.322 64.7089 183.579 64.4908C183.836 64.2598 184.118 64.0865 184.426 63.971C184.734 63.8555 185.055 63.7978 185.388 63.7978C185.645 63.7978 185.831 63.8555 185.947 63.971C186.062 64.0865 186.12 64.2598 186.12 64.4908C186.12 64.6191 186.107 64.7667 186.081 64.9335C186.056 65.0875 186.024 65.2415 185.985 65.3955C185.947 65.5366 185.895 65.6586 185.831 65.7612C185.78 65.8511 185.709 65.896 185.619 65.896C185.517 65.896 185.401 65.8703 185.273 65.819C185.144 65.7548 184.946 65.7227 184.676 65.7227C184.291 65.7227 183.945 65.8254 183.637 66.0307C183.341 66.236 183.136 66.5184 183.021 66.8777V73.5573C183.021 73.7113 182.95 73.8332 182.809 73.923C182.668 74 182.437 74.0385 182.116 74.0385H181.904ZM191.58 74.1347C190.118 74.1347 188.995 73.692 188.212 72.8065C187.442 71.9211 187.057 70.6506 187.057 68.9951C187.057 67.3268 187.442 66.0435 188.212 65.1452C188.995 64.2469 190.118 63.7978 191.58 63.7978C193.031 63.7978 194.134 64.2469 194.891 65.1452C195.661 66.0307 196.046 67.314 196.046 68.9951C196.046 70.6634 195.668 71.9403 194.911 72.8258C194.166 73.6984 193.056 74.1347 191.58 74.1347ZM191.542 72.4985C192.389 72.4985 193.005 72.2098 193.39 71.6323C193.788 71.0548 193.987 70.1694 193.987 68.9759C193.987 67.7824 193.788 66.8969 193.39 66.3195C193.005 65.7291 192.389 65.434 191.542 65.434C190.708 65.434 190.092 65.7227 189.694 66.3002C189.309 66.8777 189.117 67.7696 189.117 68.9759C189.117 70.1694 189.309 71.0548 189.694 71.6323C190.092 72.2098 190.708 72.4985 191.542 72.4985ZM201.158 74.0385C200.94 74.0385 200.748 74.0128 200.581 73.9615C200.427 73.8973 200.318 73.7818 200.254 73.615L197.251 64.5293C197.238 64.4908 197.219 64.4458 197.193 64.3945C197.18 64.3432 197.174 64.2918 197.174 64.2405C197.174 64.1378 197.251 64.0544 197.405 63.9903C197.559 63.9261 197.79 63.894 198.098 63.894H198.425C198.643 63.894 198.829 63.9197 198.983 63.971C199.15 64.0223 199.253 64.1058 199.291 64.2213L201.543 72.1713H201.62L203.892 64.2213C203.93 64.1058 204.027 64.0223 204.181 63.971C204.347 63.9197 204.54 63.894 204.758 63.894H205.008C205.316 63.894 205.534 63.9261 205.663 63.9903C205.791 64.0544 205.855 64.1378 205.855 64.2405C205.855 64.2918 205.849 64.3432 205.836 64.3945C205.836 64.433 205.823 64.4843 205.798 64.5485L202.795 73.615C202.743 73.7818 202.628 73.8973 202.448 73.9615C202.281 74.0128 202.089 74.0385 201.871 74.0385H201.158ZM211.699 74.1347C210.146 74.1347 208.972 73.7241 208.177 72.9028C207.381 72.0815 206.983 70.7853 206.983 69.0144C206.983 67.8594 207.163 66.8969 207.522 66.127C207.894 65.357 208.42 64.7795 209.101 64.3945C209.781 63.9967 210.596 63.7978 211.545 63.7978C212.456 63.7978 213.207 64.0031 213.797 64.4138C214.388 64.8116 214.824 65.3826 215.106 66.127C215.389 66.8713 215.53 67.7503 215.53 68.7641C215.53 68.8925 215.491 69.0336 215.414 69.1876C215.337 69.3288 215.235 69.4507 215.106 69.5534C214.991 69.656 214.869 69.7074 214.741 69.7074H209.043C209.068 70.6827 209.306 71.3949 209.755 71.8441C210.217 72.2804 210.884 72.4985 211.757 72.4985C212.322 72.4985 212.803 72.428 213.201 72.2868C213.611 72.1456 213.939 72.0109 214.182 71.8826C214.439 71.7542 214.606 71.6901 214.683 71.6901C214.786 71.6901 214.882 71.7542 214.972 71.8826C215.061 72.0109 215.132 72.1649 215.183 72.3445C215.248 72.5114 215.28 72.6461 215.28 72.7488C215.28 72.8899 215.177 73.0375 214.972 73.1915C214.766 73.3455 214.49 73.4995 214.144 73.6535C213.81 73.7947 213.432 73.9102 213.008 74C212.585 74.0898 212.148 74.1347 211.699 74.1347ZM209.024 68.1674H213.566C213.566 67.2563 213.38 66.5761 213.008 66.127C212.636 65.665 212.097 65.434 211.391 65.434C210.916 65.434 210.506 65.5366 210.159 65.742C209.813 65.9473 209.537 66.2489 209.332 66.6467C209.139 67.0445 209.036 67.5514 209.024 68.1674ZM220.81 74.1347C220.066 74.1347 219.418 73.9358 218.866 73.538C218.327 73.1402 217.91 72.5627 217.614 71.8056C217.319 71.0356 217.172 70.1052 217.172 69.0144C217.172 67.9877 217.319 67.0894 217.614 66.3195C217.922 65.5366 218.352 64.9207 218.904 64.4715C219.469 64.0223 220.136 63.7978 220.906 63.7978C221.419 63.7978 221.901 63.8812 222.35 64.048C222.812 64.202 223.197 64.3945 223.505 64.6255V60.0056C223.505 59.8388 223.575 59.7169 223.717 59.6399C223.858 59.5501 224.089 59.5051 224.41 59.5051H224.621C224.929 59.5051 225.154 59.5501 225.295 59.6399C225.436 59.7169 225.507 59.8388 225.507 60.0056V70.9778C225.507 71.5168 225.52 71.9531 225.545 72.2868C225.584 72.6205 225.616 72.8835 225.642 73.076C225.68 73.2685 225.699 73.4161 225.699 73.5188C225.699 73.6086 225.642 73.6856 225.526 73.7498C225.423 73.8139 225.295 73.8653 225.141 73.9038C224.987 73.9294 224.827 73.9551 224.66 73.9808C224.506 73.9936 224.377 74 224.275 74C224.146 74 224.044 73.9615 223.967 73.8845C223.903 73.8075 223.845 73.6728 223.794 73.4803C223.742 73.2749 223.684 73.0054 223.62 72.6718C223.402 72.9669 223.139 73.2236 222.831 73.4418C222.523 73.6599 222.196 73.8332 221.849 73.9615C221.516 74.077 221.169 74.1347 220.81 74.1347ZM221.407 72.4408C221.804 72.4408 222.189 72.3253 222.562 72.0943C222.934 71.8505 223.248 71.5425 223.505 71.1703V66.3195C223.184 66.0371 222.831 65.8254 222.446 65.6842C222.074 65.5302 221.702 65.4532 221.33 65.4532C220.649 65.4532 220.13 65.7612 219.77 66.3772C219.411 66.9932 219.231 67.8722 219.231 69.0144C219.231 70.1822 219.424 71.0484 219.809 71.6131C220.194 72.1649 220.726 72.4408 221.407 72.4408Z" fill="#60BD31"/>
<path d="M29 211H361.856" stroke="#797A8A" stroke-width="1.60412" stroke-linecap="round"/>
<rect x="27.2314" y="91" width="152.691" height="24" fill="#D9D9D9"/>
<rect x="27.2314" y="127" width="334.558" height="16" fill="#ECECEC"/>
<rect x="27.2314" y="155" width="79.7493" height="16" fill="#D9D9D9"/>
<rect x="113.789" y="155" width="146.855" height="16" fill="#ECECEC"/>
<rect x="240.22" y="183" width="121.569" height="16" fill="#ECECEC"/>
<rect x="269.397" y="155" width="92.3925" height="16" fill="#D9D9D9"/>
</svg>
