<svg width="389" height="239" viewBox="0 0 389 239" fill="none" xmlns="http://www.w3.org/2000/svg">
<rect width="389" height="238.212" rx="20.0515" fill="white"/>
<line x1="61" y1="192.508" x2="361" y2="192.508" stroke="#797A8A"/>
<line x1="61" y1="147.508" x2="361" y2="147.508" stroke="#797A8A"/>
<line x1="61" y1="101.508" x2="361" y2="101.508" stroke="#797A8A"/>
<path d="M28.0718 58.0078H360.928" stroke="#797A8A" stroke-width="1.60412" stroke-linecap="round"/>
<path d="M38.1396 199.143C37.3183 199.143 36.574 198.892 35.9067 198.392C35.2394 197.891 34.7068 197.134 34.309 196.12C33.9111 195.107 33.7122 193.823 33.7122 192.27C33.7122 190.705 33.9111 189.422 34.309 188.421C34.7068 187.407 35.2394 186.65 35.9067 186.149C36.574 185.649 37.3183 185.398 38.1396 185.398C38.9738 185.398 39.7245 185.649 40.3918 186.149C41.072 186.65 41.6109 187.407 42.0088 188.421C42.4066 189.422 42.6055 190.705 42.6055 192.27C42.6055 193.823 42.4066 195.107 42.0088 196.12C41.6109 197.134 41.072 197.891 40.3918 198.392C39.7245 198.892 38.9738 199.143 38.1396 199.143ZM38.1396 197.506C38.5759 197.506 38.9802 197.333 39.3523 196.987C39.7245 196.627 40.0261 196.069 40.2571 195.312C40.488 194.542 40.6035 193.528 40.6035 192.27C40.6035 191.013 40.488 190.005 40.2571 189.248C40.0261 188.478 39.7245 187.92 39.3523 187.574C38.9802 187.214 38.5759 187.035 38.1396 187.035C37.7161 187.035 37.3183 187.214 36.9461 187.574C36.574 187.92 36.2724 188.478 36.0414 189.248C35.8233 190.005 35.7142 191.013 35.7142 192.27C35.7142 193.528 35.8233 194.542 36.0414 195.312C36.2724 196.069 36.574 196.627 36.9461 196.987C37.3183 197.333 37.7161 197.506 38.1396 197.506Z" fill="#797A8A"/>
<path d="M37.4851 154.143C36.7665 154.143 36.1312 154.078 35.5794 153.95C35.0276 153.822 34.5977 153.661 34.2897 153.469C33.9817 153.276 33.8277 153.09 33.8277 152.911C33.8277 152.821 33.8534 152.718 33.9047 152.603C33.9689 152.474 34.0395 152.346 34.1165 152.218C34.1935 152.089 34.2769 151.987 34.3667 151.91C34.4565 151.833 34.5335 151.794 34.5977 151.794C34.7132 151.794 34.8864 151.852 35.1174 151.967C35.3613 152.083 35.6757 152.205 36.0607 152.333C36.4457 152.449 36.9141 152.506 37.4659 152.506C38.3514 152.506 39.0251 152.288 39.4871 151.852C39.9619 151.403 40.1993 150.755 40.1993 149.908C40.1993 149.099 39.9362 148.483 39.4101 148.06C38.8839 147.636 38.0883 147.424 37.0231 147.424H35.2522C35.0212 147.424 34.8608 147.373 34.771 147.27C34.6811 147.168 34.6426 147.007 34.6555 146.789L35.0019 141.168C35.0148 140.937 35.0725 140.777 35.1752 140.687C35.2779 140.585 35.4447 140.533 35.6757 140.533H40.95C41.2452 140.533 41.3928 140.764 41.3928 141.226V141.534C41.3928 141.958 41.2452 142.169 40.95 142.169H36.0607L36.9076 141.361L36.5804 146.578L35.8104 145.788H37.4851C38.0626 145.788 38.6273 145.852 39.1791 145.981C39.7437 146.109 40.2506 146.334 40.6998 146.655C41.1489 146.963 41.5083 147.38 41.7778 147.906C42.0473 148.432 42.182 149.093 42.182 149.888C42.182 150.594 42.0665 151.21 41.8355 151.736C41.6045 152.263 41.2773 152.705 40.8538 153.065C40.4303 153.424 39.9298 153.693 39.3523 153.873C38.7748 154.053 38.1524 154.143 37.4851 154.143Z" fill="#797A8A"/>
<path d="M29.3667 108.008C29.0716 108.008 28.924 107.777 28.924 107.315V107.065C28.924 106.603 29.0716 106.372 29.3667 106.372H32.4851V95.6881L33.2744 96.3619L29.4437 96.9971C29.2897 97.0099 29.1678 96.9714 29.078 96.8816C29.001 96.7789 28.9432 96.6442 28.9047 96.4774C28.8791 96.3105 28.8662 96.163 28.8662 96.0346C28.8662 95.8293 28.8983 95.6881 28.9625 95.6111C29.0266 95.5213 29.1229 95.4636 29.2512 95.4379L33.8133 94.4754C33.9545 94.4754 34.0957 94.5203 34.2368 94.6102C34.3908 94.7 34.4678 94.8091 34.4678 94.9374V106.372H37.336C37.6312 106.372 37.7787 106.603 37.7787 107.065V107.315C37.7787 107.777 37.6312 108.008 37.336 108.008H29.3667ZM43.4411 108.143C42.6198 108.143 41.8755 107.892 41.2082 107.392C40.5408 106.891 40.0083 106.134 39.6104 105.12C39.2126 104.107 39.0137 102.823 39.0137 101.27C39.0137 99.7049 39.2126 98.4216 39.6104 97.4206C40.0083 96.4068 40.5408 95.6496 41.2082 95.1492C41.8755 94.6487 42.6198 94.3984 43.4411 94.3984C44.2752 94.3984 45.026 94.6487 45.6933 95.1492C46.3734 95.6496 46.9124 96.4068 47.3102 97.4206C47.7081 98.4216 47.907 99.7049 47.907 101.27C47.907 102.823 47.7081 104.107 47.3102 105.12C46.9124 106.134 46.3734 106.891 45.6933 107.392C45.026 107.892 44.2752 108.143 43.4411 108.143ZM43.4411 106.506C43.8774 106.506 44.2817 106.333 44.6538 105.987C45.026 105.627 45.3275 105.069 45.5585 104.312C45.7895 103.542 45.905 102.528 45.905 101.27C45.905 100.013 45.7895 99.0055 45.5585 98.2483C45.3275 97.4783 45.026 96.9201 44.6538 96.5736C44.2817 96.2143 43.8774 96.0346 43.4411 96.0346C43.0176 96.0346 42.6198 96.2143 42.2476 96.5736C41.8755 96.9201 41.5739 97.4783 41.3429 98.2483C41.1247 99.0055 41.0157 100.013 41.0157 101.27C41.0157 102.528 41.1247 103.542 41.3429 104.312C41.5739 105.069 41.8755 105.627 42.2476 105.987C42.6198 106.333 43.0176 106.506 43.4411 106.506Z" fill="#797A8A"/>
<circle cx="81" cy="169.008" r="3" fill="#D9D9D9"/>
<circle cx="146" cy="147.008" r="3" fill="#D9D9D9"/>
<circle cx="211" cy="156.008" r="3" fill="#D9D9D9"/>
<circle cx="276" cy="115.008" r="3" fill="#D9D9D9"/>
<circle cx="341" cy="101.008" r="3" fill="#D9D9D9"/>
<path d="M62 192L81 169" stroke="#202C4B" stroke-opacity="0.8" stroke-width="8" stroke-linecap="round"/>
<path d="M146 147L81 169" stroke="#2F416F" stroke-opacity="0.8" stroke-width="8" stroke-linecap="round"/>
<path d="M146 147L211 156" stroke="#3F5793" stroke-opacity="0.8" stroke-width="8" stroke-linecap="round"/>
<path d="M276 115L211 156" stroke="#506DB4" stroke-opacity="0.8" stroke-width="8" stroke-linecap="round"/>
<path d="M276 115L341 101" stroke="#748BC3" stroke-opacity="0.8" stroke-width="8" stroke-linecap="round"/>
<path d="M30.5794 43.0463C30.2714 43.0463 30.0469 43.0078 29.9057 42.9308C29.7645 42.841 29.694 42.7191 29.694 42.5651V29.9759C29.694 29.8219 29.7645 29.7064 29.9057 29.6294C30.0469 29.5396 30.2714 29.4947 30.5794 29.4947H31.3494C31.6446 29.4947 31.882 29.5268 32.0616 29.5909C32.2413 29.6551 32.3696 29.7642 32.4466 29.9182L35.642 36.001C35.7319 36.1678 35.8217 36.3603 35.9115 36.5785C36.0142 36.7838 36.0912 36.9763 36.1425 37.156C36.2067 36.9635 36.2965 36.7581 36.412 36.54C36.5275 36.309 36.6238 36.1165 36.7008 35.9625L39.8577 29.9182C39.9475 29.7642 40.0758 29.6551 40.2427 29.5909C40.4095 29.5268 40.6341 29.4947 40.9164 29.4947H41.6479C41.9687 29.4947 42.1933 29.5396 42.3216 29.6294C42.4628 29.7064 42.5334 29.8219 42.5334 29.9759V42.5651C42.5334 42.7191 42.4628 42.841 42.3216 42.9308C42.1933 43.0078 41.9687 43.0463 41.6479 43.0463H41.3976C41.0897 43.0463 40.8651 43.0078 40.7239 42.9308C40.5827 42.841 40.5122 42.7191 40.5122 42.5651V33.9606C40.5122 33.7809 40.5122 33.6076 40.5122 33.4408C40.5122 33.2612 40.5122 33.0879 40.5122 32.9211L40.4352 32.9018C40.371 33.0558 40.3004 33.2034 40.2234 33.3446C40.1464 33.4729 40.0758 33.6076 40.0117 33.7488L37.2783 38.9847C37.1884 39.1515 37.0729 39.267 36.9318 39.3312C36.7906 39.3825 36.5853 39.4082 36.3158 39.4082H35.9693C35.6998 39.4082 35.4945 39.3825 35.3533 39.3312C35.2121 39.267 35.0902 39.1515 34.9876 38.9847L32.2156 33.6526C32.1515 33.5242 32.0809 33.3895 32.0039 33.2483C31.9269 33.1072 31.8563 32.966 31.7921 32.8248L31.7152 32.8441C31.7152 33.0109 31.7152 33.1842 31.7152 33.3638C31.7152 33.5306 31.7152 33.6975 31.7152 33.8643V42.5651C31.7152 42.7191 31.6446 42.841 31.5034 42.9308C31.3751 43.0078 31.1505 43.0463 30.8297 43.0463H30.5794ZM51.249 43.1426C49.3112 43.1426 47.829 42.5522 46.8024 41.3716C45.7757 40.191 45.2624 38.4842 45.2624 36.2512C45.2624 33.9926 45.7757 32.2858 46.8024 31.1309C47.829 29.9759 49.3112 29.3984 51.249 29.3984C53.1996 29.3984 54.6883 29.9759 55.7149 31.1309C56.7415 32.2858 57.2549 33.9926 57.2549 36.2512C57.2549 38.4842 56.7415 40.191 55.7149 41.3716C54.6883 42.5522 53.1996 43.1426 51.249 43.1426ZM51.249 41.3716C52.5195 41.3716 53.482 40.9353 54.1364 40.0626C54.8038 39.19 55.1374 37.9131 55.1374 36.232C55.1374 34.5637 54.8038 33.3061 54.1364 32.4591C53.482 31.5993 52.5195 31.1694 51.249 31.1694C49.9914 31.1694 49.0289 31.5993 48.3616 32.4591C47.7071 33.3061 47.3799 34.5637 47.3799 36.232C47.3799 37.9131 47.7071 39.19 48.3616 40.0626C49.0289 40.9353 49.9914 41.3716 51.249 41.3716ZM60.8823 43.0463C60.5743 43.0463 60.3498 43.0078 60.2086 42.9308C60.0674 42.841 59.9969 42.7191 59.9969 42.5651V29.9759C59.9969 29.8219 60.0674 29.7064 60.2086 29.6294C60.3498 29.5396 60.5743 29.4947 60.8823 29.4947H61.4213C61.5881 29.4947 61.7293 29.5075 61.8448 29.5332C61.9603 29.5588 62.063 29.6038 62.1528 29.6679C62.2426 29.7321 62.326 29.8219 62.403 29.9374L67.9084 38.3494C68.0367 38.5419 68.1586 38.7408 68.2741 38.9462C68.3896 39.1515 68.4923 39.3568 68.5821 39.5622L68.6591 39.5429C68.6463 39.3247 68.6335 39.113 68.6206 38.9077C68.6206 38.7023 68.6206 38.4585 68.6206 38.1762V29.9759C68.6206 29.8219 68.6912 29.7064 68.8324 29.6294C68.9735 29.5396 69.1981 29.4947 69.5061 29.4947H69.7563C70.0772 29.4947 70.3017 29.5396 70.4301 29.6294C70.5712 29.7064 70.6418 29.8219 70.6418 29.9759V42.5651C70.6418 42.7191 70.5712 42.841 70.4301 42.9308C70.3017 43.0078 70.0772 43.0463 69.7563 43.0463H69.2366C69.0954 43.0463 68.9671 43.0335 68.8516 43.0078C68.749 42.995 68.6591 42.9629 68.5821 42.9116C68.5051 42.8602 68.441 42.7897 68.3896 42.6998L62.7303 34.0568C62.602 33.8643 62.48 33.6718 62.3645 33.4793C62.2619 33.274 62.1592 33.0687 62.0565 32.8633L61.9796 32.8826C62.0052 33.1007 62.018 33.3125 62.018 33.5178C62.018 33.7231 62.018 33.967 62.018 34.2493V42.5651C62.018 42.7191 61.9475 42.841 61.8063 42.9308C61.678 43.0078 61.4534 43.0463 61.1326 43.0463H60.8823ZM77.2588 43.0463C76.9508 43.0463 76.7263 43.0078 76.5851 42.9308C76.4568 42.841 76.3926 42.7191 76.3926 42.5651V31.3041H72.8892C72.6069 31.3041 72.4657 31.0731 72.4657 30.6111V30.2262C72.4657 29.7642 72.6069 29.5332 72.8892 29.5332H81.9557C82.238 29.5332 82.3792 29.7642 82.3792 30.2262V30.6111C82.3792 31.0731 82.238 31.3041 81.9557 31.3041H78.4908V42.5651C78.4908 42.7191 78.4202 42.841 78.2791 42.9308C78.1507 43.0078 77.939 43.0463 77.6438 43.0463H77.2588ZM85.2826 43.0463C84.9746 43.0463 84.75 43.0078 84.6088 42.9308C84.4677 42.841 84.3971 42.7191 84.3971 42.5651V29.9759C84.3971 29.8219 84.4677 29.7064 84.6088 29.6294C84.75 29.5396 84.9746 29.4947 85.2826 29.4947H85.5905C85.9242 29.4947 86.1552 29.5396 86.2835 29.6294C86.4247 29.7064 86.4953 29.8219 86.4953 29.9759V35.231H93.0208V29.9759C93.0208 29.8219 93.0914 29.7064 93.2326 29.6294C93.3738 29.5396 93.6048 29.4947 93.9256 29.4947H94.2336C94.5544 29.4947 94.779 29.5396 94.9073 29.6294C95.0485 29.7064 95.119 29.8219 95.119 29.9759V42.5651C95.119 42.7191 95.0485 42.841 94.9073 42.9308C94.779 43.0078 94.5544 43.0463 94.2336 43.0463H93.9256C93.6048 43.0463 93.3738 43.0078 93.2326 42.9308C93.0914 42.841 93.0208 42.7191 93.0208 42.5651V36.9827H86.4953V42.5651C86.4953 42.7191 86.4247 42.841 86.2835 42.9308C86.1552 43.0078 85.9242 43.0463 85.5905 43.0463H85.2826ZM99.1499 43.0078C98.7264 43.0078 98.5146 42.7961 98.5146 42.3726V29.9759C98.5146 29.8219 98.5852 29.7064 98.7264 29.6294C98.8675 29.5396 99.0921 29.4947 99.4001 29.4947H99.7081C100.042 29.4947 100.273 29.5396 100.401 29.6294C100.542 29.7064 100.613 29.8219 100.613 29.9759V41.2369H105.56C105.842 41.2369 105.983 41.4679 105.983 41.9298V42.3148C105.983 42.7768 105.842 43.0078 105.56 43.0078H99.1499ZM110.027 43.0463C109.706 43.0463 109.475 43.0078 109.334 42.9308C109.193 42.841 109.122 42.7191 109.122 42.5651V36.3667L105.176 30.2262C105.125 30.1492 105.08 30.0786 105.041 30.0144C105.016 29.9502 105.003 29.8925 105.003 29.8412C105.003 29.7257 105.08 29.6423 105.234 29.5909C105.388 29.5268 105.638 29.4947 105.985 29.4947H106.37C106.626 29.4947 106.825 29.5203 106.966 29.5717C107.108 29.6102 107.223 29.7 107.313 29.8412L110.624 35.1733H109.796L113.145 29.8412C113.222 29.7 113.344 29.6102 113.511 29.5717C113.678 29.5203 113.883 29.4947 114.127 29.4947H114.435C114.756 29.4947 114.987 29.5268 115.128 29.5909C115.269 29.6423 115.34 29.7257 115.34 29.8412C115.34 29.8925 115.327 29.9502 115.301 30.0144C115.276 30.0786 115.231 30.1492 115.167 30.2262L111.22 36.4245V42.5651C111.22 42.7191 111.15 42.841 111.009 42.9308C110.88 43.0078 110.649 43.0463 110.316 43.0463H110.027ZM122.748 43.0463C122.44 43.0463 122.215 43.0078 122.074 42.9308C121.933 42.841 121.862 42.7191 121.862 42.5651V30.1684C121.862 29.7449 122.074 29.5332 122.497 29.5332H126.29C127.804 29.5332 128.933 29.854 129.677 30.4956C130.422 31.1373 130.794 32.0805 130.794 33.3253C130.794 33.89 130.698 34.3905 130.505 34.8268C130.326 35.2631 130.056 35.6288 129.697 35.924C129.35 36.2063 128.92 36.4052 128.407 36.5207V36.5977C128.753 36.7004 129.049 36.9186 129.292 37.2522C129.549 37.5859 129.774 38.0029 129.966 38.5034L131.487 42.3148C131.525 42.3918 131.551 42.4688 131.564 42.5458C131.577 42.61 131.583 42.6613 131.583 42.6998C131.583 42.8153 131.513 42.9051 131.371 42.9693C131.23 43.0206 130.999 43.0463 130.678 43.0463H130.313C130.095 43.0463 129.908 43.0142 129.754 42.9501C129.6 42.8859 129.491 42.7897 129.427 42.6613L127.887 38.7152C127.746 38.3687 127.586 38.0928 127.406 37.8874C127.226 37.6693 126.995 37.5153 126.713 37.4255C126.431 37.3356 126.071 37.2907 125.635 37.2907H123.96V42.5651C123.96 42.7191 123.89 42.841 123.749 42.9308C123.62 43.0078 123.389 43.0463 123.056 43.0463H122.748ZM123.96 35.5775H126.328C127.162 35.5775 127.759 35.4171 128.118 35.0963C128.49 34.7626 128.676 34.23 128.676 33.4986C128.676 32.7286 128.49 32.1704 128.118 31.8239C127.759 31.4774 127.162 31.3041 126.328 31.3041H123.96V35.5775ZM134.246 43.0078C133.823 43.0078 133.611 42.7961 133.611 42.3726V30.1684C133.611 29.7449 133.823 29.5332 134.246 29.5332H140.984C141.279 29.5332 141.426 29.7642 141.426 30.2262V30.6111C141.426 31.0731 141.279 31.3041 140.984 31.3041H135.709V35.231H140.425C140.721 35.231 140.868 35.462 140.868 35.924V36.309C140.868 36.771 140.721 37.002 140.425 37.002H135.709V41.2369H141.003C141.298 41.2369 141.446 41.4679 141.446 41.9298V42.3148C141.446 42.7768 141.298 43.0078 141.003 43.0078H134.246ZM148.027 43.0463C147.77 43.0463 147.571 43.0142 147.43 42.9501C147.289 42.8859 147.199 42.8025 147.161 42.6998L142.695 30.1299C142.682 30.0786 142.669 30.0337 142.656 29.9952C142.644 29.9438 142.637 29.8925 142.637 29.8412C142.637 29.7385 142.701 29.6551 142.83 29.5909C142.971 29.5268 143.195 29.4947 143.503 29.4947H143.869C144.087 29.4947 144.273 29.5203 144.427 29.5717C144.581 29.623 144.678 29.7064 144.716 29.8219L148.373 40.9289H148.45L152.069 29.8219C152.108 29.7064 152.198 29.623 152.339 29.5717C152.48 29.5203 152.653 29.4947 152.859 29.4947H153.167C153.5 29.4947 153.738 29.5268 153.879 29.5909C154.02 29.6551 154.091 29.7385 154.091 29.8412C154.091 29.8925 154.084 29.9438 154.071 29.9952C154.071 30.0337 154.059 30.085 154.033 30.1492L149.567 42.6998C149.528 42.8025 149.432 42.8859 149.278 42.9501C149.137 43.0142 148.945 43.0463 148.701 43.0463H148.027ZM156.635 43.0078C156.212 43.0078 156 42.7961 156 42.3726V30.1684C156 29.7449 156.212 29.5332 156.635 29.5332H163.372C163.668 29.5332 163.815 29.7642 163.815 30.2262V30.6111C163.815 31.0731 163.668 31.3041 163.372 31.3041H158.098V35.231H162.814C163.109 35.231 163.257 35.462 163.257 35.924V36.309C163.257 36.771 163.109 37.002 162.814 37.002H158.098V41.2369H163.392C163.687 41.2369 163.834 41.4679 163.834 41.9298V42.3148C163.834 42.7768 163.687 43.0078 163.392 43.0078H156.635ZM167.394 43.0463C167.086 43.0463 166.861 43.0078 166.72 42.9308C166.579 42.841 166.508 42.7191 166.508 42.5651V29.9759C166.508 29.8219 166.579 29.7064 166.72 29.6294C166.861 29.5396 167.086 29.4947 167.394 29.4947H167.933C168.099 29.4947 168.241 29.5075 168.356 29.5332C168.472 29.5588 168.574 29.6038 168.664 29.6679C168.754 29.7321 168.837 29.8219 168.914 29.9374L174.42 38.3494C174.548 38.5419 174.67 38.7408 174.785 38.9462C174.901 39.1515 175.004 39.3568 175.093 39.5622L175.17 39.5429C175.158 39.3247 175.145 39.113 175.132 38.9077C175.132 38.7023 175.132 38.4585 175.132 38.1762V29.9759C175.132 29.8219 175.203 29.7064 175.344 29.6294C175.485 29.5396 175.709 29.4947 176.017 29.4947H176.268C176.588 29.4947 176.813 29.5396 176.941 29.6294C177.083 29.7064 177.153 29.8219 177.153 29.9759V42.5651C177.153 42.7191 177.083 42.841 176.941 42.9308C176.813 43.0078 176.588 43.0463 176.268 43.0463H175.748C175.607 43.0463 175.478 43.0335 175.363 43.0078C175.26 42.995 175.17 42.9629 175.093 42.9116C175.016 42.8602 174.952 42.7897 174.901 42.6998L169.242 34.0568C169.113 33.8643 168.991 33.6718 168.876 33.4793C168.773 33.274 168.671 33.0687 168.568 32.8633L168.491 32.8826C168.517 33.1007 168.529 33.3125 168.529 33.5178C168.529 33.7231 168.529 33.967 168.529 34.2493V42.5651C168.529 42.7191 168.459 42.841 168.318 42.9308C168.189 43.0078 167.965 43.0463 167.644 43.0463H167.394ZM185.503 43.1426C183.847 43.1426 182.545 42.7447 181.595 41.9491C180.645 41.1406 180.17 40.037 180.17 38.6382V29.9759C180.17 29.8219 180.241 29.7064 180.382 29.6294C180.523 29.5396 180.754 29.4947 181.075 29.4947H181.364C181.698 29.4947 181.929 29.5396 182.057 29.6294C182.198 29.7064 182.269 29.8219 182.269 29.9759V38.5804C182.269 39.4531 182.557 40.1396 183.135 40.6401C183.712 41.1278 184.502 41.3716 185.503 41.3716C186.516 41.3716 187.312 41.1278 187.89 40.6401C188.467 40.1396 188.756 39.4531 188.756 38.5804V29.9759C188.756 29.8219 188.826 29.7064 188.968 29.6294C189.109 29.5396 189.34 29.4947 189.66 29.4947H189.949C190.283 29.4947 190.514 29.5396 190.642 29.6294C190.783 29.7064 190.854 29.8219 190.854 29.9759V38.6382C190.854 40.037 190.379 41.1406 189.429 41.9491C188.48 42.7447 187.171 43.1426 185.503 43.1426ZM194.683 43.0078C194.259 43.0078 194.048 42.7961 194.048 42.3726V30.1684C194.048 29.7449 194.259 29.5332 194.683 29.5332H201.42C201.715 29.5332 201.863 29.7642 201.863 30.2262V30.6111C201.863 31.0731 201.715 31.3041 201.42 31.3041H196.146V35.231H200.862C201.157 35.231 201.305 35.462 201.305 35.924V36.309C201.305 36.771 201.157 37.002 200.862 37.002H196.146V41.2369H201.44C201.735 41.2369 201.882 41.4679 201.882 41.9298V42.3148C201.882 42.7768 201.735 43.0078 201.44 43.0078H194.683Z" fill="#35334C"/>
</svg>
