<svg width="389" height="271" viewBox="0 0 389 271" fill="none" xmlns="http://www.w3.org/2000/svg">
<rect width="389" height="238.212" rx="20.0515" fill="white"/>
<path d="M171.458 262.841L219.5 213.5" stroke="#FF4B4B" stroke-width="16" stroke-linecap="round"/>
<path d="M246.763 240.026L289.197 197.595" stroke="#FF4B4B" stroke-width="16" stroke-linecap="round"/>
<path d="M319.202 209.169C317.623 210.715 317.596 213.247 319.142 214.826C320.687 216.405 323.219 216.432 324.798 214.886L322 212.028L319.202 209.169ZM383.736 151.595L338.997 163.073L371.306 196.079L383.736 151.595ZM322 212.028L324.798 214.886L360.808 179.637L358.01 176.778L355.212 173.92L319.202 209.169L322 212.028Z" fill="#FF4B4B"/>
<path d="M220.5 215L246.5 240.524" stroke="#FF4B4B" stroke-width="16" stroke-linecap="round"/>
<path d="M290 197.182L313.516 220.524" stroke="#FF4B4B" stroke-width="16" stroke-linecap="round"/>
<path d="M314 220.894L363.5 171.394" stroke="#FF4B4B" stroke-width="16" stroke-linecap="round"/>
<path d="M342 102C326.6 102 314 114.6 314 130C314 145.4 326.6 158 342 158C357.4 158 370 145.4 370 130C370 114.6 357.4 102 342 102ZM336.4 144L322.4 130L326.348 126.052L336.4 136.076L357.652 114.824L361.6 118.8L336.4 144Z" fill="#60BD31"/>
<rect x="187" y="47" width="109" height="44" rx="2" fill="#D9D9D9"/>
<rect x="194" y="54" width="31" height="30" rx="1" fill="#FAFAFA"/>
<rect x="232" y="66" width="58" height="6" rx="1" fill="#ECECEC"/>
<rect x="232" y="56" width="30" height="6" rx="1" fill="#BFBFBF"/>
<rect x="232" y="76" width="58" height="6" rx="1" fill="#ECECEC"/>
<rect x="187" y="97" width="109" height="44" rx="2" fill="#D9D9D9"/>
<rect x="194" y="104" width="31" height="30" rx="1" fill="#FAFAFA"/>
<rect x="232" y="116" width="58" height="6" rx="1" fill="#ECECEC"/>
<rect x="232" y="106" width="30" height="6" rx="1" fill="#BFBFBF"/>
<rect x="232" y="126" width="58" height="6" rx="1" fill="#ECECEC"/>
<rect x="187" y="147" width="109" height="44" rx="2" fill="#D9D9D9"/>
<rect x="194" y="154" width="31" height="30" rx="1" fill="#FAFAFA"/>
<rect x="232" y="166" width="58" height="6" rx="1" fill="#ECECEC"/>
<rect x="232" y="156" width="30" height="6" rx="1" fill="#BFBFBF"/>
<rect x="232" y="176" width="58" height="6" rx="1" fill="#ECECEC"/>
<rect x="31" y="52" width="109" height="133" rx="2" fill="#D9D9D9"/>
<path d="M96.926 115.4H95V110C95 110 95 101 86 101C77 101 77 110 77 110V115.4H75.074C74.1526 115.4 73.269 115.766 72.6175 116.418C71.966 117.069 71.6 117.953 71.6 118.874V133.544C71.6047 134.462 71.9728 135.341 72.6238 135.989C73.2748 136.636 74.1557 137 75.074 137H96.926C97.8473 137 98.731 136.634 99.3825 135.982C100.034 135.331 100.4 134.447 100.4 133.526V118.874C100.4 117.953 100.034 117.069 99.3825 116.418C98.731 115.766 97.8473 115.4 96.926 115.4ZM86 129.8C85.288 129.8 84.5919 129.589 83.9999 129.193C83.4079 128.798 82.9465 128.235 82.674 127.578C82.4015 126.92 82.3302 126.196 82.4691 125.498C82.6081 124.799 82.9509 124.158 83.4544 123.654C83.9579 123.151 84.5993 122.808 85.2977 122.669C85.996 122.53 86.7198 122.602 87.3776 122.874C88.0354 123.147 88.5977 123.608 88.9933 124.2C89.3888 124.792 89.6 125.488 89.6 126.2C89.6 127.155 89.2207 128.07 88.5456 128.746C87.8704 129.421 86.9548 129.8 86 129.8ZM91.4 115.4H80.6V110.9C80.6 108.2 80.6 104.6 86 104.6C91.4 104.6 91.4 108.2 91.4 110.9V115.4Z" fill="#27488E"/>
<rect x="39" y="60" width="93" height="4" rx="1" fill="#F2F2F2"/>
<rect x="39" y="70" width="93" height="4" rx="1" fill="#E6E6E6"/>
<rect x="39" y="80" width="93" height="4" rx="1" fill="#BFBFBF" fill-opacity="0.7"/>
<rect x="39" y="90" width="93" height="4" rx="1" fill="#E6E6E6"/>
<rect x="39" y="100" width="35" height="4" rx="1" fill="#BFBFBF" fill-opacity="0.7"/>
<rect x="39" y="110" width="27" height="4" rx="1" fill="#F2F2F2"/>
<rect x="105" y="110" width="27" height="4" rx="1" fill="#E6E6E6"/>
<rect x="105" y="120" width="27" height="4" rx="1" fill="#BFBFBF" fill-opacity="0.7"/>
<rect x="105" y="130" width="27" height="4" rx="1" fill="#F2F2F2"/>
<rect x="105" y="140" width="27" height="4" rx="1" fill="#F2F2F2"/>
<rect x="39" y="120" width="27" height="4" rx="1" fill="#F2F2F2"/>
<rect x="39" y="130" width="27" height="4" rx="1" fill="#E6E6E6"/>
<rect x="39" y="140" width="29" height="4" rx="1" fill="#BFBFBF" fill-opacity="0.7"/>
<rect x="39" y="150" width="93" height="4" rx="1" fill="#E6E6E6"/>
<rect x="39" y="160" width="66" height="4" rx="1" fill="#F2F2F2"/>
<rect x="97" y="100" width="35" height="4" rx="1" fill="#F2F2F2"/>
<path d="M153 123C152.448 123 152 123.448 152 124C152 124.552 152.448 125 153 125V124V123ZM174 124L164 118.226V129.774L174 124ZM153 124V125H165V124V123H153V124Z" fill="black"/>
<path d="M108.994 172.028C108.826 172.028 108.674 171.958 108.539 171.818C108.404 171.678 108.336 171.447 108.336 171.125C108.336 170.864 108.366 170.607 108.427 170.355C108.488 170.103 108.555 169.849 108.63 169.592C108.709 169.331 108.775 169.062 108.826 168.787C108.882 168.507 108.901 168.213 108.882 167.905C108.756 167.924 108.632 167.956 108.511 168.003C108.39 168.05 108.271 168.117 108.154 168.206C108.154 167.912 108.18 167.674 108.231 167.492C108.282 167.305 108.383 167.17 108.532 167.086C108.681 167.002 108.903 166.96 109.197 166.96C109.356 166.96 109.533 166.972 109.729 166.995C109.925 167.018 110.126 167.042 110.331 167.065C110.541 167.088 110.739 167.1 110.926 167.1C111.108 167.1 111.271 167.084 111.416 167.051C111.561 167.014 111.673 166.948 111.752 166.855C111.845 166.916 111.915 167 111.962 167.107C112.013 167.21 112.039 167.322 112.039 167.443C112.039 167.569 112.009 167.693 111.948 167.814C111.892 167.931 111.803 168.029 111.682 168.108C111.561 168.183 111.402 168.22 111.206 168.22C111.001 168.22 110.777 168.187 110.534 168.122C110.291 168.057 110.042 168.001 109.785 167.954C109.808 168.057 109.825 168.159 109.834 168.262C109.848 168.365 109.855 168.47 109.855 168.577C109.855 168.694 109.85 168.81 109.841 168.927C109.832 169.039 109.818 169.156 109.799 169.277C109.897 169.226 110.016 169.179 110.156 169.137C110.296 169.095 110.438 169.06 110.583 169.032C110.732 169.004 110.865 168.99 110.982 168.99C111.057 168.99 111.122 168.997 111.178 169.011C111.225 169.109 111.248 169.228 111.248 169.368C111.248 169.592 111.192 169.821 111.08 170.054L111.031 170.075C110.858 169.982 110.658 169.909 110.429 169.858C110.205 169.807 109.969 169.772 109.722 169.753C109.675 170.019 109.631 170.29 109.589 170.565C109.547 170.84 109.526 171.123 109.526 171.412C109.526 171.473 109.526 171.536 109.526 171.601C109.531 171.666 109.535 171.732 109.54 171.797C109.386 171.951 109.204 172.028 108.994 172.028ZM113.174 172.049C112.824 172.049 112.535 171.979 112.306 171.839C112.078 171.699 111.907 171.515 111.795 171.286C111.688 171.053 111.634 170.805 111.634 170.544C111.634 170.297 111.679 170.049 111.767 169.802C111.861 169.555 111.994 169.331 112.166 169.13C112.344 168.925 112.558 168.761 112.81 168.64C113.062 168.514 113.352 168.451 113.678 168.451C114.028 168.451 114.315 168.523 114.539 168.668C114.768 168.808 114.936 168.995 115.043 169.228C115.155 169.461 115.211 169.711 115.211 169.977C115.211 170.22 115.167 170.465 115.078 170.712C114.99 170.955 114.857 171.179 114.679 171.384C114.507 171.585 114.294 171.746 114.042 171.867C113.79 171.988 113.501 172.049 113.174 172.049ZM113.363 171.454C113.489 171.454 113.594 171.389 113.678 171.258C113.762 171.127 113.825 170.962 113.867 170.761C113.909 170.556 113.93 170.348 113.93 170.138C113.93 169.951 113.912 169.776 113.874 169.613C113.842 169.445 113.79 169.31 113.72 169.207C113.65 169.1 113.559 169.046 113.447 169.046C113.326 169.046 113.221 169.111 113.132 169.242C113.048 169.373 112.985 169.538 112.943 169.739C112.901 169.94 112.88 170.147 112.88 170.362C112.88 170.549 112.897 170.726 112.929 170.894C112.967 171.057 113.02 171.193 113.09 171.3C113.16 171.403 113.251 171.454 113.363 171.454ZM116.412 172.028C116.244 172.028 116.094 171.96 115.964 171.825C115.833 171.685 115.768 171.489 115.768 171.237C115.768 171.116 115.782 170.978 115.81 170.824C115.838 170.67 115.87 170.514 115.908 170.355C115.945 170.192 115.978 170.04 116.006 169.9C116.034 169.755 116.048 169.636 116.048 169.543C116.048 169.445 116.029 169.368 115.992 169.312C115.959 169.251 115.915 169.221 115.859 169.221C115.77 169.221 115.679 169.282 115.586 169.403L115.544 169.375C115.539 169.3 115.555 169.212 115.593 169.109C115.63 169.006 115.688 168.908 115.768 168.815C115.847 168.717 115.947 168.635 116.069 168.57C116.195 168.505 116.342 168.472 116.51 168.472C116.757 168.472 116.937 168.544 117.049 168.689C117.161 168.829 117.217 168.999 117.217 169.2C117.217 169.233 117.214 169.268 117.21 169.305C117.21 169.338 117.207 169.37 117.203 169.403C117.371 169.1 117.546 168.869 117.728 168.71C117.914 168.547 118.087 168.465 118.246 168.465C118.395 168.465 118.505 168.523 118.575 168.64C118.645 168.757 118.68 168.897 118.68 169.06C118.68 169.209 118.649 169.361 118.589 169.515C118.533 169.669 118.446 169.797 118.33 169.9C118.218 169.998 118.08 170.045 117.917 170.04L117.889 170.026C117.884 169.905 117.844 169.809 117.77 169.739C117.695 169.669 117.611 169.634 117.518 169.634C117.392 169.634 117.273 169.697 117.161 169.823C117.053 169.949 117 170.131 117 170.369C117 170.514 117.016 170.67 117.049 170.838C117.081 171.006 117.098 171.148 117.098 171.265C117.098 171.405 117.065 171.533 117 171.65C116.934 171.767 116.85 171.86 116.748 171.93C116.645 171.995 116.533 172.028 116.412 172.028ZM119.962 172.063C119.672 172.063 119.432 172.023 119.241 171.944C119.049 171.865 118.907 171.764 118.814 171.643C118.72 171.517 118.674 171.391 118.674 171.265C118.674 171.088 118.753 170.931 118.912 170.796C119.07 170.656 119.285 170.586 119.556 170.586C119.556 170.824 119.586 171.015 119.647 171.16C119.707 171.3 119.784 171.4 119.878 171.461C119.976 171.522 120.069 171.552 120.158 171.552C120.265 171.552 120.354 171.522 120.424 171.461C120.498 171.396 120.536 171.316 120.536 171.223C120.536 171.092 120.468 170.978 120.333 170.88C120.197 170.782 120.022 170.672 119.808 170.551C119.7 170.486 119.584 170.411 119.458 170.327C119.332 170.238 119.224 170.133 119.136 170.012C119.047 169.886 119.003 169.737 119.003 169.564C119.003 169.382 119.054 169.221 119.157 169.081C119.264 168.941 119.404 168.824 119.577 168.731C119.749 168.633 119.936 168.561 120.137 168.514C120.337 168.463 120.533 168.437 120.725 168.437C121.084 168.437 121.355 168.509 121.537 168.654C121.719 168.799 121.81 168.953 121.81 169.116C121.81 169.256 121.74 169.382 121.6 169.494C121.46 169.606 121.245 169.662 120.956 169.662C120.96 169.424 120.911 169.251 120.809 169.144C120.706 169.032 120.596 168.976 120.48 168.976C120.396 168.976 120.326 169.002 120.27 169.053C120.214 169.104 120.186 169.179 120.186 169.277C120.186 169.389 120.221 169.487 120.291 169.571C120.365 169.65 120.456 169.723 120.564 169.788C120.676 169.849 120.79 169.907 120.907 169.963C121.065 170.038 121.215 170.117 121.355 170.201C121.495 170.285 121.609 170.381 121.698 170.488C121.786 170.595 121.831 170.726 121.831 170.88C121.831 171.09 121.744 171.286 121.572 171.468C121.404 171.645 121.177 171.79 120.893 171.902C120.608 172.009 120.298 172.063 119.962 172.063ZM123.588 172.049C123.28 172.049 123.019 171.979 122.804 171.839C122.594 171.699 122.436 171.517 122.328 171.293C122.221 171.064 122.167 170.819 122.167 170.558C122.167 170.311 122.214 170.063 122.307 169.816C122.405 169.569 122.548 169.342 122.734 169.137C122.921 168.927 123.147 168.761 123.413 168.64C123.684 168.514 123.994 168.451 124.344 168.451C124.69 168.451 124.946 168.521 125.114 168.661C125.282 168.796 125.366 168.946 125.366 169.109C125.366 169.282 125.28 169.44 125.107 169.585C124.935 169.73 124.683 169.802 124.351 169.802C124.37 169.732 124.384 169.662 124.393 169.592C124.407 169.517 124.414 169.447 124.414 169.382C124.414 169.284 124.393 169.202 124.351 169.137C124.309 169.067 124.235 169.032 124.127 169.032C124.029 169.032 123.924 169.076 123.812 169.165C123.705 169.254 123.612 169.384 123.532 169.557C123.458 169.73 123.42 169.942 123.42 170.194C123.42 170.441 123.46 170.642 123.539 170.796C123.623 170.95 123.731 171.062 123.861 171.132C123.992 171.197 124.13 171.23 124.274 171.23C124.466 171.23 124.65 171.181 124.827 171.083C125.005 170.98 125.133 170.84 125.212 170.663L125.282 170.691C125.282 170.934 125.226 171.141 125.114 171.314C125.007 171.482 124.867 171.622 124.694 171.734C124.522 171.841 124.337 171.921 124.141 171.972C123.945 172.023 123.761 172.049 123.588 172.049ZM127.133 172.049C126.792 172.049 126.51 171.981 126.286 171.846C126.062 171.706 125.894 171.524 125.782 171.3C125.67 171.071 125.614 170.826 125.614 170.565C125.614 170.318 125.661 170.07 125.754 169.823C125.852 169.571 125.992 169.342 126.174 169.137C126.361 168.932 126.585 168.766 126.846 168.64C127.112 168.514 127.411 168.451 127.742 168.451C128.153 168.451 128.451 168.544 128.638 168.731C128.829 168.913 128.925 169.135 128.925 169.396C128.925 169.62 128.864 169.828 128.743 170.019C128.626 170.206 128.47 170.357 128.274 170.474C128.078 170.586 127.863 170.642 127.63 170.642C127.509 170.642 127.385 170.623 127.259 170.586C127.133 170.549 127.009 170.49 126.888 170.411C126.911 170.7 126.995 170.91 127.14 171.041C127.285 171.172 127.457 171.237 127.658 171.237C127.798 171.237 127.938 171.211 128.078 171.16C128.218 171.104 128.346 171.034 128.463 170.95C128.584 170.861 128.678 170.768 128.743 170.67L128.792 170.705C128.792 170.948 128.741 171.155 128.638 171.328C128.54 171.496 128.409 171.634 128.246 171.741C128.083 171.848 127.903 171.928 127.707 171.979C127.516 172.026 127.324 172.049 127.133 172.049ZM127.294 170.159C127.443 170.159 127.565 170.117 127.658 170.033C127.751 169.944 127.821 169.842 127.868 169.725C127.915 169.608 127.938 169.506 127.938 169.417C127.938 169.31 127.908 169.221 127.847 169.151C127.786 169.076 127.702 169.039 127.595 169.039C127.511 169.039 127.418 169.069 127.315 169.13C127.217 169.191 127.128 169.296 127.049 169.445C126.97 169.59 126.918 169.793 126.895 170.054C127.044 170.124 127.177 170.159 127.294 170.159ZM130.125 172.021C129.952 172.021 129.796 171.953 129.656 171.818C129.516 171.678 129.446 171.484 129.446 171.237C129.446 171.116 129.462 170.978 129.495 170.824C129.527 170.67 129.562 170.514 129.6 170.355C129.642 170.196 129.679 170.047 129.712 169.907C129.744 169.767 129.761 169.653 129.761 169.564C129.761 169.471 129.742 169.398 129.705 169.347C129.667 169.291 129.618 169.263 129.558 169.263C129.478 169.263 129.392 169.31 129.299 169.403L129.257 169.375C129.252 169.3 129.268 169.212 129.306 169.109C129.343 169.006 129.399 168.908 129.474 168.815C129.553 168.717 129.653 168.635 129.775 168.57C129.896 168.505 130.041 168.472 130.209 168.472C130.456 168.472 130.638 168.544 130.755 168.689C130.876 168.829 130.937 169.002 130.937 169.207C130.937 169.282 130.93 169.354 130.916 169.424C131.014 169.279 131.135 169.135 131.28 168.99C131.424 168.841 131.583 168.717 131.756 168.619C131.933 168.521 132.115 168.472 132.302 168.472C132.521 168.472 132.67 168.542 132.75 168.682C132.829 168.822 132.869 168.997 132.869 169.207C132.869 169.403 132.848 169.613 132.806 169.837C132.764 170.061 132.722 170.278 132.68 170.488C132.638 170.693 132.617 170.866 132.617 171.006C132.617 171.193 132.67 171.286 132.778 171.286C132.834 171.286 132.883 171.27 132.925 171.237C132.967 171.2 132.995 171.165 133.009 171.132L133.058 171.153C133.058 171.326 133.009 171.477 132.911 171.608C132.817 171.739 132.698 171.841 132.554 171.916C132.409 171.986 132.262 172.021 132.113 172.021C131.931 172.021 131.77 171.958 131.63 171.832C131.49 171.706 131.42 171.501 131.42 171.216C131.42 171.048 131.441 170.866 131.483 170.67C131.529 170.474 131.574 170.285 131.616 170.103C131.658 169.921 131.679 169.772 131.679 169.655C131.679 169.585 131.665 169.531 131.637 169.494C131.613 169.452 131.569 169.431 131.504 169.431C131.396 169.431 131.277 169.48 131.147 169.578C131.021 169.676 130.911 169.807 130.818 169.97C130.729 170.133 130.685 170.313 130.685 170.509C130.685 170.635 130.699 170.756 130.727 170.873C130.759 170.99 130.776 171.116 130.776 171.251C130.776 171.503 130.71 171.694 130.58 171.825C130.449 171.956 130.297 172.021 130.125 172.021ZM134.395 172.028C134.227 172.028 134.068 171.97 133.919 171.853C133.774 171.736 133.655 171.566 133.562 171.342C133.473 171.118 133.429 170.847 133.429 170.53C133.429 170.203 133.475 169.912 133.569 169.655C133.662 169.398 133.783 169.181 133.933 169.004C134.087 168.822 134.252 168.684 134.43 168.591C134.612 168.498 134.789 168.451 134.962 168.451C135.153 168.451 135.323 168.512 135.473 168.633C135.622 168.75 135.725 168.934 135.781 169.186C135.823 168.953 135.858 168.731 135.886 168.521C135.918 168.306 135.935 168.117 135.935 167.954C135.935 167.739 135.907 167.583 135.851 167.485V167.443C135.958 167.322 136.075 167.233 136.201 167.177C136.331 167.116 136.455 167.086 136.572 167.086C136.726 167.086 136.856 167.135 136.964 167.233C137.071 167.326 137.125 167.462 137.125 167.639C137.125 167.737 137.108 167.882 137.076 168.073C137.043 168.264 137.003 168.484 136.957 168.731C136.91 168.974 136.861 169.226 136.81 169.487C136.763 169.744 136.723 169.991 136.691 170.229C136.658 170.462 136.642 170.665 136.642 170.838C136.642 170.983 136.656 171.099 136.684 171.188C136.716 171.272 136.768 171.314 136.838 171.314C136.889 171.314 136.94 171.298 136.992 171.265C137.048 171.228 137.085 171.186 137.104 171.139L137.153 171.174C137.153 171.328 137.104 171.47 137.006 171.601C136.908 171.727 136.784 171.83 136.635 171.909C136.485 171.988 136.331 172.028 136.173 172.028C136 172.028 135.862 171.981 135.76 171.888C135.662 171.79 135.592 171.666 135.55 171.517C135.508 171.368 135.484 171.214 135.48 171.055C135.335 171.391 135.165 171.638 134.969 171.797C134.777 171.951 134.586 172.028 134.395 172.028ZM134.864 171.139C134.985 171.139 135.12 171.029 135.27 170.81C135.419 170.591 135.55 170.271 135.662 169.851L135.704 169.634C135.629 169.461 135.547 169.34 135.459 169.27C135.375 169.195 135.293 169.158 135.214 169.158C135.097 169.158 134.987 169.223 134.885 169.354C134.782 169.48 134.698 169.643 134.633 169.844C134.572 170.04 134.542 170.248 134.542 170.467C134.542 170.677 134.572 170.843 134.633 170.964C134.693 171.081 134.77 171.139 134.864 171.139Z" fill="#27488E"/>
</svg>
