<svg width="389" height="192" viewBox="0 0 389 192" fill="none" xmlns="http://www.w3.org/2000/svg">
<rect width="389" height="192" rx="20.0515" fill="white"/>
<line x1="61" y1="153.508" x2="361" y2="153.508" stroke="#797A8A"/>
<line x1="61" y1="112.508" x2="361" y2="112.508" stroke="#797A8A"/>
<line x1="61" y1="77.5078" x2="361" y2="77.5078" stroke="#797A8A"/>
<path d="M27.9998 43H360.855" stroke="#797A8A" stroke-width="1.60412" stroke-linecap="round"/>
<path d="M38.1396 160.143C37.3183 160.143 36.574 159.892 35.9067 159.392C35.2394 158.891 34.7068 158.134 34.309 157.12C33.9111 156.107 33.7122 154.823 33.7122 153.27C33.7122 151.705 33.9111 150.422 34.309 149.421C34.7068 148.407 35.2394 147.65 35.9067 147.149C36.574 146.649 37.3183 146.398 38.1396 146.398C38.9738 146.398 39.7245 146.649 40.3918 147.149C41.072 147.65 41.6109 148.407 42.0088 149.421C42.4066 150.422 42.6055 151.705 42.6055 153.27C42.6055 154.823 42.4066 156.107 42.0088 157.12C41.6109 158.134 41.072 158.891 40.3918 159.392C39.7245 159.892 38.9738 160.143 38.1396 160.143ZM38.1396 158.506C38.5759 158.506 38.9802 158.333 39.3523 157.987C39.7245 157.627 40.0261 157.069 40.2571 156.312C40.488 155.542 40.6035 154.528 40.6035 153.27C40.6035 152.013 40.488 151.005 40.2571 150.248C40.0261 149.478 39.7245 148.92 39.3523 148.574C38.9802 148.214 38.5759 148.035 38.1396 148.035C37.7161 148.035 37.3183 148.214 36.9461 148.574C36.574 148.92 36.2724 149.478 36.0414 150.248C35.8233 151.005 35.7142 152.013 35.7142 153.27C35.7142 154.528 35.8233 155.542 36.0414 156.312C36.2724 157.069 36.574 157.627 36.9461 157.987C37.3183 158.333 37.7161 158.506 38.1396 158.506Z" fill="#797A8A"/>
<path d="M37.4851 119.143C36.7665 119.143 36.1312 119.078 35.5794 118.95C35.0276 118.822 34.5977 118.661 34.2897 118.469C33.9817 118.276 33.8277 118.09 33.8277 117.911C33.8277 117.821 33.8534 117.718 33.9047 117.603C33.9689 117.474 34.0395 117.346 34.1165 117.218C34.1935 117.089 34.2769 116.987 34.3667 116.91C34.4565 116.833 34.5335 116.794 34.5977 116.794C34.7132 116.794 34.8864 116.852 35.1174 116.967C35.3613 117.083 35.6757 117.205 36.0607 117.333C36.4457 117.449 36.9141 117.506 37.4659 117.506C38.3514 117.506 39.0251 117.288 39.4871 116.852C39.9619 116.403 40.1993 115.755 40.1993 114.908C40.1993 114.099 39.9362 113.483 39.4101 113.06C38.8839 112.636 38.0883 112.424 37.0231 112.424H35.2522C35.0212 112.424 34.8608 112.373 34.771 112.27C34.6811 112.168 34.6426 112.007 34.6555 111.789L35.0019 106.168C35.0148 105.937 35.0725 105.777 35.1752 105.687C35.2779 105.585 35.4447 105.533 35.6757 105.533H40.95C41.2452 105.533 41.3928 105.764 41.3928 106.226V106.534C41.3928 106.958 41.2452 107.169 40.95 107.169H36.0607L36.9076 106.361L36.5804 111.578L35.8104 110.788H37.4851C38.0626 110.788 38.6273 110.852 39.1791 110.981C39.7437 111.109 40.2506 111.334 40.6998 111.655C41.1489 111.963 41.5083 112.38 41.7778 112.906C42.0473 113.432 42.182 114.093 42.182 114.888C42.182 115.594 42.0665 116.21 41.8355 116.736C41.6045 117.263 41.2773 117.705 40.8538 118.065C40.4303 118.424 39.9298 118.693 39.3523 118.873C38.7748 119.053 38.1524 119.143 37.4851 119.143Z" fill="#797A8A"/>
<path d="M29.3667 84.0078C29.0716 84.0078 28.924 83.7768 28.924 83.3148V83.0646C28.924 82.6026 29.0716 82.3716 29.3667 82.3716H32.4851V71.6881L33.2744 72.3619L29.4437 72.9971C29.2897 73.0099 29.1678 72.9714 29.078 72.8816C29.001 72.7789 28.9432 72.6442 28.9047 72.4774C28.8791 72.3105 28.8662 72.163 28.8662 72.0346C28.8662 71.8293 28.8983 71.6881 28.9625 71.6111C29.0266 71.5213 29.1229 71.4636 29.2512 71.4379L33.8133 70.4754C33.9545 70.4754 34.0957 70.5203 34.2368 70.6102C34.3908 70.7 34.4678 70.8091 34.4678 70.9374V82.3716H37.336C37.6312 82.3716 37.7787 82.6026 37.7787 83.0646V83.3148C37.7787 83.7768 37.6312 84.0078 37.336 84.0078H29.3667ZM43.4411 84.1426C42.6198 84.1426 41.8755 83.8923 41.2082 83.3918C40.5408 82.8913 40.0083 82.1342 39.6104 81.1204C39.2126 80.1066 39.0137 78.8233 39.0137 77.2705C39.0137 75.7049 39.2126 74.4216 39.6104 73.4206C40.0083 72.4068 40.5408 71.6496 41.2082 71.1492C41.8755 70.6487 42.6198 70.3984 43.4411 70.3984C44.2752 70.3984 45.026 70.6487 45.6933 71.1492C46.3734 71.6496 46.9124 72.4068 47.3102 73.4206C47.7081 74.4216 47.907 75.7049 47.907 77.2705C47.907 78.8233 47.7081 80.1066 47.3102 81.1204C46.9124 82.1342 46.3734 82.8913 45.6933 83.3918C45.026 83.8923 44.2752 84.1426 43.4411 84.1426ZM43.4411 82.5064C43.8774 82.5064 44.2817 82.3331 44.6538 81.9866C45.026 81.6273 45.3275 81.0691 45.5585 80.3119C45.7895 79.5419 45.905 78.5281 45.905 77.2705C45.905 76.0129 45.7895 75.0055 45.5585 74.2483C45.3275 73.4783 45.026 72.9201 44.6538 72.5736C44.2817 72.2143 43.8774 72.0346 43.4411 72.0346C43.0176 72.0346 42.6198 72.2143 42.2476 72.5736C41.8755 72.9201 41.5739 73.4783 41.3429 74.2483C41.1247 75.0055 41.0157 76.0129 41.0157 77.2705C41.0157 78.5281 41.1247 79.5419 41.3429 80.3119C41.5739 81.0691 41.8755 81.6273 42.2476 81.9866C42.6198 82.3331 43.0176 82.5064 43.4411 82.5064Z" fill="#797A8A"/>
<circle cx="81" cy="131" r="3" fill="#D9D9D9"/>
<circle cx="146" cy="109" r="3" fill="#D9D9D9"/>
<circle cx="211" cy="118" r="3" fill="#D9D9D9"/>
<circle cx="276" cy="77" r="3" fill="#D9D9D9"/>
<circle cx="341" cy="63" r="3" fill="#D9D9D9"/>
<path d="M62 153.992L81 130.992" stroke="#202C4B" stroke-opacity="0.8" stroke-width="8" stroke-linecap="round"/>
<path d="M146 108.992L81 130.992" stroke="#2F416F" stroke-opacity="0.8" stroke-width="8" stroke-linecap="round"/>
<path d="M146 108.992L211 117.992" stroke="#3F5793" stroke-opacity="0.8" stroke-width="8" stroke-linecap="round"/>
<path d="M276 76.9922L211 117.992" stroke="#506DB4" stroke-opacity="0.8" stroke-width="8" stroke-linecap="round"/>
<path d="M276 76.9922L341 62.9922" stroke="#748BC3" stroke-opacity="0.8" stroke-width="8" stroke-linecap="round"/>
<path d="M30.5794 34.0385C30.2714 34.0385 30.0469 34 29.9057 33.923C29.7645 33.8332 29.694 33.7113 29.694 33.5573V20.9681C29.694 20.8141 29.7645 20.6986 29.9057 20.6216C30.0469 20.5318 30.2714 20.4869 30.5794 20.4869H31.3494C31.6446 20.4869 31.882 20.5189 32.0616 20.5831C32.2413 20.6473 32.3696 20.7564 32.4466 20.9104L35.642 26.9932C35.7319 27.16 35.8217 27.3525 35.9115 27.5707C36.0142 27.776 36.0912 27.9685 36.1425 28.1482C36.2067 27.9557 36.2965 27.7503 36.412 27.5322C36.5275 27.3012 36.6238 27.1087 36.7008 26.9547L39.8577 20.9104C39.9475 20.7564 40.0758 20.6473 40.2427 20.5831C40.4095 20.5189 40.6341 20.4869 40.9164 20.4869H41.6479C41.9687 20.4869 42.1933 20.5318 42.3216 20.6216C42.4628 20.6986 42.5334 20.8141 42.5334 20.9681V33.5573C42.5334 33.7113 42.4628 33.8332 42.3216 33.923C42.1933 34 41.9687 34.0385 41.6479 34.0385H41.3976C41.0897 34.0385 40.8651 34 40.7239 33.923C40.5827 33.8332 40.5122 33.7113 40.5122 33.5573V24.9527C40.5122 24.7731 40.5122 24.5998 40.5122 24.433C40.5122 24.2533 40.5122 24.0801 40.5122 23.9133L40.4352 23.894C40.371 24.048 40.3004 24.1956 40.2234 24.3368C40.1464 24.4651 40.0758 24.5998 40.0117 24.741L37.2783 29.9769C37.1884 30.1437 37.0729 30.2592 36.9318 30.3233C36.7906 30.3747 36.5853 30.4003 36.3158 30.4003H35.9693C35.6998 30.4003 35.4945 30.3747 35.3533 30.3233C35.2121 30.2592 35.0902 30.1437 34.9876 29.9769L32.2156 24.6447C32.1515 24.5164 32.0809 24.3817 32.0039 24.2405C31.9269 24.0993 31.8563 23.9582 31.7921 23.817L31.7152 23.8363C31.7152 24.0031 31.7152 24.1763 31.7152 24.356C31.7152 24.5228 31.7152 24.6897 31.7152 24.8565V33.5573C31.7152 33.7113 31.6446 33.8332 31.5034 33.923C31.3751 34 31.1505 34.0385 30.8297 34.0385H30.5794ZM51.249 34.1347C49.3112 34.1347 47.829 33.5444 46.8024 32.3638C45.7757 31.1832 45.2624 29.4764 45.2624 27.2434C45.2624 24.9848 45.7757 23.278 46.8024 22.1231C47.829 20.9681 49.3112 20.3906 51.249 20.3906C53.1996 20.3906 54.6883 20.9681 55.7149 22.1231C56.7415 23.278 57.2549 24.9848 57.2549 27.2434C57.2549 29.4764 56.7415 31.1832 55.7149 32.3638C54.6883 33.5444 53.1996 34.1347 51.249 34.1347ZM51.249 32.3638C52.5195 32.3638 53.482 31.9275 54.1364 31.0548C54.8038 30.1822 55.1374 28.9053 55.1374 27.2242C55.1374 25.5559 54.8038 24.2983 54.1364 23.4513C53.482 22.5915 52.5195 22.1616 51.249 22.1616C49.9914 22.1616 49.0289 22.5915 48.3616 23.4513C47.7071 24.2983 47.3799 25.5559 47.3799 27.2242C47.3799 28.9053 47.7071 30.1822 48.3616 31.0548C49.0289 31.9275 49.9914 32.3638 51.249 32.3638ZM60.8823 34.0385C60.5743 34.0385 60.3498 34 60.2086 33.923C60.0674 33.8332 59.9969 33.7113 59.9969 33.5573V20.9681C59.9969 20.8141 60.0674 20.6986 60.2086 20.6216C60.3498 20.5318 60.5743 20.4869 60.8823 20.4869H61.4213C61.5881 20.4869 61.7293 20.4997 61.8448 20.5254C61.9603 20.551 62.063 20.5959 62.1528 20.6601C62.2426 20.7243 62.326 20.8141 62.403 20.9296L67.9084 29.3416C68.0367 29.5341 68.1586 29.733 68.2741 29.9384C68.3896 30.1437 68.4923 30.349 68.5821 30.5543L68.6591 30.5351C68.6463 30.3169 68.6335 30.1052 68.6206 29.8999C68.6206 29.6945 68.6206 29.4507 68.6206 29.1684V20.9681C68.6206 20.8141 68.6912 20.6986 68.8324 20.6216C68.9735 20.5318 69.1981 20.4869 69.5061 20.4869H69.7563C70.0772 20.4869 70.3017 20.5318 70.4301 20.6216C70.5712 20.6986 70.6418 20.8141 70.6418 20.9681V33.5573C70.6418 33.7113 70.5712 33.8332 70.4301 33.923C70.3017 34 70.0772 34.0385 69.7563 34.0385H69.2366C69.0954 34.0385 68.9671 34.0257 68.8516 34C68.749 33.9872 68.6591 33.9551 68.5821 33.9038C68.5051 33.8524 68.441 33.7818 68.3896 33.692L62.7303 25.049C62.602 24.8565 62.48 24.664 62.3645 24.4715C62.2619 24.2662 62.1592 24.0608 62.0565 23.8555L61.9796 23.8748C62.0052 24.0929 62.018 24.3047 62.018 24.51C62.018 24.7153 62.018 24.9592 62.018 25.2415V33.5573C62.018 33.7113 61.9475 33.8332 61.8063 33.923C61.678 34 61.4534 34.0385 61.1326 34.0385H60.8823ZM77.2588 34.0385C76.9508 34.0385 76.7263 34 76.5851 33.923C76.4568 33.8332 76.3926 33.7113 76.3926 33.5573V22.2963H72.8892C72.6069 22.2963 72.4657 22.0653 72.4657 21.6033V21.2183C72.4657 20.7564 72.6069 20.5254 72.8892 20.5254H81.9557C82.238 20.5254 82.3792 20.7564 82.3792 21.2183V21.6033C82.3792 22.0653 82.238 22.2963 81.9557 22.2963H78.4908V33.5573C78.4908 33.7113 78.4202 33.8332 78.2791 33.923C78.1507 34 77.939 34.0385 77.6438 34.0385H77.2588ZM85.2826 34.0385C84.9746 34.0385 84.75 34 84.6088 33.923C84.4677 33.8332 84.3971 33.7113 84.3971 33.5573V20.9681C84.3971 20.8141 84.4677 20.6986 84.6088 20.6216C84.75 20.5318 84.9746 20.4869 85.2826 20.4869H85.5905C85.9242 20.4869 86.1552 20.5318 86.2835 20.6216C86.4247 20.6986 86.4953 20.8141 86.4953 20.9681V26.2232H93.0208V20.9681C93.0208 20.8141 93.0914 20.6986 93.2326 20.6216C93.3738 20.5318 93.6048 20.4869 93.9256 20.4869H94.2336C94.5544 20.4869 94.779 20.5318 94.9073 20.6216C95.0485 20.6986 95.119 20.8141 95.119 20.9681V33.5573C95.119 33.7113 95.0485 33.8332 94.9073 33.923C94.779 34 94.5544 34.0385 94.2336 34.0385H93.9256C93.6048 34.0385 93.3738 34 93.2326 33.923C93.0914 33.8332 93.0208 33.7113 93.0208 33.5573V27.9749H86.4953V33.5573C86.4953 33.7113 86.4247 33.8332 86.2835 33.923C86.1552 34 85.9242 34.0385 85.5905 34.0385H85.2826ZM99.1499 34C98.7264 34 98.5146 33.7883 98.5146 33.3648V20.9681C98.5146 20.8141 98.5852 20.6986 98.7264 20.6216C98.8675 20.5318 99.0921 20.4869 99.4001 20.4869H99.7081C100.042 20.4869 100.273 20.5318 100.401 20.6216C100.542 20.6986 100.613 20.8141 100.613 20.9681V32.229H105.56C105.842 32.229 105.983 32.46 105.983 32.922V33.307C105.983 33.769 105.842 34 105.56 34H99.1499ZM110.027 34.0385C109.706 34.0385 109.475 34 109.334 33.923C109.193 33.8332 109.122 33.7113 109.122 33.5573V27.3589L105.176 21.2183C105.125 21.1413 105.08 21.0708 105.041 21.0066C105.016 20.9424 105.003 20.8847 105.003 20.8334C105.003 20.7179 105.08 20.6344 105.234 20.5831C105.388 20.5189 105.638 20.4869 105.985 20.4869H106.37C106.626 20.4869 106.825 20.5125 106.966 20.5639C107.108 20.6024 107.223 20.6922 107.313 20.8334L110.624 26.1655H109.796L113.145 20.8334C113.222 20.6922 113.344 20.6024 113.511 20.5639C113.678 20.5125 113.883 20.4869 114.127 20.4869H114.435C114.756 20.4869 114.987 20.5189 115.128 20.5831C115.269 20.6344 115.34 20.7179 115.34 20.8334C115.34 20.8847 115.327 20.9424 115.301 21.0066C115.276 21.0708 115.231 21.1413 115.167 21.2183L111.22 27.4167V33.5573C111.22 33.7113 111.15 33.8332 111.009 33.923C110.88 34 110.649 34.0385 110.316 34.0385H110.027ZM122.748 34.0385C122.44 34.0385 122.215 34 122.074 33.923C121.933 33.8332 121.862 33.7113 121.862 33.5573V21.1606C121.862 20.7371 122.074 20.5254 122.497 20.5254H126.29C127.804 20.5254 128.933 20.8462 129.677 21.4878C130.422 22.1295 130.794 23.0727 130.794 24.3175C130.794 24.8822 130.698 25.3826 130.505 25.819C130.326 26.2553 130.056 26.621 129.697 26.9162C129.35 27.1985 128.92 27.3974 128.407 27.5129V27.5899C128.753 27.6926 129.049 27.9107 129.292 28.2444C129.549 28.5781 129.774 28.9951 129.966 29.4956L131.487 33.307C131.525 33.384 131.551 33.461 131.564 33.538C131.577 33.6022 131.583 33.6535 131.583 33.692C131.583 33.8075 131.513 33.8973 131.371 33.9615C131.23 34.0128 130.999 34.0385 130.678 34.0385H130.313C130.095 34.0385 129.908 34.0064 129.754 33.9423C129.6 33.8781 129.491 33.7818 129.427 33.6535L127.887 29.7074C127.746 29.3609 127.586 29.085 127.406 28.8796C127.226 28.6615 126.995 28.5075 126.713 28.4176C126.431 28.3278 126.071 28.2829 125.635 28.2829H123.96V33.5573C123.96 33.7113 123.89 33.8332 123.749 33.923C123.62 34 123.389 34.0385 123.056 34.0385H122.748ZM123.96 26.5697H126.328C127.162 26.5697 127.759 26.4093 128.118 26.0885C128.49 25.7548 128.676 25.2222 128.676 24.4908C128.676 23.7208 128.49 23.1625 128.118 22.816C127.759 22.4696 127.162 22.2963 126.328 22.2963H123.96V26.5697ZM134.246 34C133.823 34 133.611 33.7883 133.611 33.3648V21.1606C133.611 20.7371 133.823 20.5254 134.246 20.5254H140.984C141.279 20.5254 141.426 20.7564 141.426 21.2183V21.6033C141.426 22.0653 141.279 22.2963 140.984 22.2963H135.709V26.2232H140.425C140.721 26.2232 140.868 26.4542 140.868 26.9162V27.3012C140.868 27.7632 140.721 27.9942 140.425 27.9942H135.709V32.229H141.003C141.298 32.229 141.446 32.46 141.446 32.922V33.307C141.446 33.769 141.298 34 141.003 34H134.246ZM148.027 34.0385C147.77 34.0385 147.571 34.0064 147.43 33.9423C147.289 33.8781 147.199 33.7947 147.161 33.692L142.695 21.1221C142.682 21.0708 142.669 21.0258 142.656 20.9873C142.644 20.936 142.637 20.8847 142.637 20.8334C142.637 20.7307 142.701 20.6473 142.83 20.5831C142.971 20.5189 143.195 20.4869 143.503 20.4869H143.869C144.087 20.4869 144.273 20.5125 144.427 20.5639C144.581 20.6152 144.678 20.6986 144.716 20.8141L148.373 31.9211H148.45L152.069 20.8141C152.108 20.6986 152.198 20.6152 152.339 20.5639C152.48 20.5125 152.653 20.4869 152.859 20.4869H153.167C153.5 20.4869 153.738 20.5189 153.879 20.5831C154.02 20.6473 154.091 20.7307 154.091 20.8334C154.091 20.8847 154.084 20.936 154.071 20.9873C154.071 21.0258 154.059 21.0772 154.033 21.1413L149.567 33.692C149.528 33.7947 149.432 33.8781 149.278 33.9423C149.137 34.0064 148.945 34.0385 148.701 34.0385H148.027ZM156.635 34C156.212 34 156 33.7883 156 33.3648V21.1606C156 20.7371 156.212 20.5254 156.635 20.5254H163.372C163.668 20.5254 163.815 20.7564 163.815 21.2183V21.6033C163.815 22.0653 163.668 22.2963 163.372 22.2963H158.098V26.2232H162.814C163.109 26.2232 163.257 26.4542 163.257 26.9162V27.3012C163.257 27.7632 163.109 27.9942 162.814 27.9942H158.098V32.229H163.392C163.687 32.229 163.834 32.46 163.834 32.922V33.307C163.834 33.769 163.687 34 163.392 34H156.635ZM167.394 34.0385C167.086 34.0385 166.861 34 166.72 33.923C166.579 33.8332 166.508 33.7113 166.508 33.5573V20.9681C166.508 20.8141 166.579 20.6986 166.72 20.6216C166.861 20.5318 167.086 20.4869 167.394 20.4869H167.933C168.099 20.4869 168.241 20.4997 168.356 20.5254C168.472 20.551 168.574 20.5959 168.664 20.6601C168.754 20.7243 168.837 20.8141 168.914 20.9296L174.42 29.3416C174.548 29.5341 174.67 29.733 174.785 29.9384C174.901 30.1437 175.004 30.349 175.093 30.5543L175.17 30.5351C175.158 30.3169 175.145 30.1052 175.132 29.8999C175.132 29.6945 175.132 29.4507 175.132 29.1684V20.9681C175.132 20.8141 175.203 20.6986 175.344 20.6216C175.485 20.5318 175.709 20.4869 176.017 20.4869H176.268C176.588 20.4869 176.813 20.5318 176.941 20.6216C177.083 20.6986 177.153 20.8141 177.153 20.9681V33.5573C177.153 33.7113 177.083 33.8332 176.941 33.923C176.813 34 176.588 34.0385 176.268 34.0385H175.748C175.607 34.0385 175.478 34.0257 175.363 34C175.26 33.9872 175.17 33.9551 175.093 33.9038C175.016 33.8524 174.952 33.7818 174.901 33.692L169.242 25.049C169.113 24.8565 168.991 24.664 168.876 24.4715C168.773 24.2662 168.671 24.0608 168.568 23.8555L168.491 23.8748C168.517 24.0929 168.529 24.3047 168.529 24.51C168.529 24.7153 168.529 24.9592 168.529 25.2415V33.5573C168.529 33.7113 168.459 33.8332 168.318 33.923C168.189 34 167.965 34.0385 167.644 34.0385H167.394ZM185.503 34.1347C183.847 34.1347 182.545 33.7369 181.595 32.9413C180.645 32.1328 180.17 31.0292 180.17 29.6304V20.9681C180.17 20.8141 180.241 20.6986 180.382 20.6216C180.523 20.5318 180.754 20.4869 181.075 20.4869H181.364C181.698 20.4869 181.929 20.5318 182.057 20.6216C182.198 20.6986 182.269 20.8141 182.269 20.9681V29.5726C182.269 30.4453 182.557 31.1318 183.135 31.6323C183.712 32.12 184.502 32.3638 185.503 32.3638C186.516 32.3638 187.312 32.12 187.89 31.6323C188.467 31.1318 188.756 30.4453 188.756 29.5726V20.9681C188.756 20.8141 188.826 20.6986 188.968 20.6216C189.109 20.5318 189.34 20.4869 189.66 20.4869H189.949C190.283 20.4869 190.514 20.5318 190.642 20.6216C190.783 20.6986 190.854 20.8141 190.854 20.9681V29.6304C190.854 31.0292 190.379 32.1328 189.429 32.9413C188.48 33.7369 187.171 34.1347 185.503 34.1347ZM194.683 34C194.259 34 194.048 33.7883 194.048 33.3648V21.1606C194.048 20.7371 194.259 20.5254 194.683 20.5254H201.42C201.715 20.5254 201.863 20.7564 201.863 21.2183V21.6033C201.863 22.0653 201.715 22.2963 201.42 22.2963H196.146V26.2232H200.862C201.157 26.2232 201.305 26.4542 201.305 26.9162V27.3012C201.305 27.7632 201.157 27.9942 200.862 27.9942H196.146V32.229H201.44C201.735 32.229 201.882 32.46 201.882 32.922V33.307C201.882 33.769 201.735 34 201.44 34H194.683Z" fill="#35334C"/>
</svg>
