<svg width="1539" height="223" viewBox="0 0 1539 223" fill="none" xmlns="http://www.w3.org/2000/svg">
<g clip-path="url(#clip0_370_9)">
<path d="M1234.75 239C1234.75 255.377 1228.24 271.083 1216.66 282.664C1205.08 294.244 1189.38 300.75 1173 300.75C1156.62 300.75 1140.92 294.244 1129.34 282.664C1117.76 271.083 1111.25 255.377 1111.25 239C1111.25 222.623 1117.76 206.917 1129.34 195.336C1140.92 183.756 1156.62 177.25 1173 177.25C1189.38 177.25 1205.08 183.756 1216.66 195.336C1228.24 206.917 1234.75 222.623 1234.75 239ZM1097 239C1097 259.156 1105.01 278.487 1119.26 292.74C1133.51 306.993 1152.84 315 1173 315C1193.16 315 1212.49 306.993 1226.74 292.74C1240.99 278.487 1249 259.156 1249 239C1249 218.844 1240.99 199.513 1226.74 185.26C1212.49 171.007 1193.16 163 1173 163C1152.84 163 1133.51 171.007 1119.26 185.26C1105.01 199.513 1097 218.844 1097 239ZM1165.88 198.625V239C1165.88 241.375 1167.06 243.602 1169.05 244.938L1197.55 263.938C1200.82 266.134 1205.24 265.244 1207.44 261.948C1209.63 258.653 1208.74 254.259 1205.45 252.062L1180.12 235.2V198.625C1180.12 194.677 1176.95 191.5 1173 191.5C1169.05 191.5 1165.88 194.677 1165.88 198.625Z" fill="white" fill-opacity="0.07"/>
<path d="M1173 160.5C1193.82 160.5 1213.79 168.771 1228.51 183.492C1243.23 198.214 1251.5 218.181 1251.5 239C1251.5 259.819 1243.23 279.786 1228.51 294.508C1213.79 309.229 1193.82 317.5 1173 317.5C1152.18 317.5 1132.21 309.229 1117.49 294.508C1102.77 279.786 1094.5 259.819 1094.5 239C1094.5 218.181 1102.77 198.214 1117.49 183.492C1132.21 168.771 1152.18 160.5 1173 160.5ZM1173 179.75C1157.29 179.75 1142.22 185.992 1131.1 197.104C1119.99 208.215 1113.75 223.286 1113.75 239C1113.75 254.714 1119.99 269.785 1131.1 280.896C1142.22 292.008 1157.29 298.25 1173 298.25C1188.71 298.25 1203.78 292.008 1214.9 280.896C1226.01 269.785 1232.25 254.714 1232.25 239C1232.25 223.286 1226.01 208.215 1214.9 197.104C1203.78 185.992 1188.71 179.75 1173 179.75ZM1173 189C1178.33 189 1182.62 193.296 1182.62 198.625V233.86L1206.83 249.981L1206.83 249.982C1211.27 252.941 1212.48 258.885 1209.52 263.335C1206.56 267.767 1200.59 268.989 1196.17 266.018L1167.67 247.018L1167.66 247.013C1164.98 245.215 1163.38 242.212 1163.38 239V198.625C1163.38 193.296 1167.67 189 1173 189Z" stroke="white" stroke-opacity="0.07" stroke-width="5"/>
<path d="M1352.95 145.37V91.1575C1352.95 85.8425 1354.81 81.3269 1358.55 77.6107C1362.28 73.8945 1366.81 72.0321 1372.13 72.0236C1377.45 72.0151 1381.98 73.8775 1385.73 77.6107C1389.47 81.3439 1391.33 85.8595 1391.32 91.1575V145.37C1391.32 150.685 1389.45 155.205 1385.73 158.93C1382 162.654 1377.47 164.512 1372.13 164.504C1366.79 164.495 1362.27 162.637 1358.55 158.93C1354.83 155.222 1352.96 150.702 1352.95 145.37ZM1416.89 142.5V40.1339C1416.89 34.8189 1418.76 30.3033 1422.5 26.5871C1426.23 22.8709 1430.76 21.0085 1436.08 21C1441.4 20.9915 1445.93 22.8539 1449.67 26.5871C1453.42 30.3203 1455.28 34.8359 1455.26 40.1339V142.5C1455.26 148.878 1453.29 153.661 1449.35 156.85C1445.42 160.039 1440.99 161.634 1436.08 161.634C1431.17 161.634 1426.75 160.039 1422.82 156.85C1418.89 153.661 1416.91 148.878 1416.89 142.5ZM1289 186.508V142.181C1289 136.866 1290.87 132.351 1294.6 128.634C1298.34 124.918 1302.86 123.056 1308.18 123.047C1313.5 123.039 1318.04 124.901 1321.78 128.634C1325.52 132.368 1327.39 136.883 1327.37 142.181V186.508C1327.37 192.886 1325.4 197.669 1321.46 200.858C1317.52 204.047 1313.1 205.642 1308.18 205.642C1303.27 205.642 1298.85 204.047 1294.92 200.858C1290.99 197.669 1289.02 192.886 1289 186.508ZM1319.69 264C1314.15 264 1310.26 261.398 1308.02 256.193C1305.78 250.989 1306.68 246.363 1310.74 242.315L1363.18 190.016C1365.52 187.677 1368.35 186.401 1371.66 186.189C1374.97 185.976 1377.9 187.039 1380.44 189.378L1416.89 220.63L1488.52 149.197H1480.84C1477.22 149.197 1474.18 147.972 1471.74 145.523C1469.29 143.074 1468.06 140.047 1468.05 136.441C1468.04 132.835 1469.27 129.808 1471.74 127.359C1474.2 124.91 1477.24 123.685 1480.84 123.685H1519.21C1522.83 123.685 1525.87 124.91 1528.33 127.359C1530.78 129.808 1532.01 132.835 1532 136.441V174.709C1532 178.323 1530.77 181.354 1528.32 183.804C1525.86 186.253 1522.83 187.473 1519.21 187.464C1515.6 187.456 1512.56 186.231 1510.1 183.791C1507.65 181.35 1506.42 178.323 1506.42 174.709V167.055L1426.49 246.779C1424.14 249.118 1421.32 250.394 1418.01 250.606C1414.7 250.819 1411.77 249.756 1409.22 247.417L1372.77 216.165L1328.65 260.173C1327.58 261.236 1326.25 262.142 1324.66 262.89C1323.06 263.638 1321.41 264.008 1319.69 264Z" fill="white" fill-opacity="0.16"/>
<path d="M70.7857 223H112.214M50.0714 150.9H132.929M19 89.1C19 69.9779 26.6384 51.639 40.2348 38.1176C53.8312 24.5962 72.2718 17 91.5 17C110.728 17 129.169 24.5962 142.765 38.1176C156.362 51.639 164 69.9779 164 89.1C164.009 100.709 161.186 112.147 155.774 122.434C150.363 132.72 142.523 141.548 132.929 148.16L127.315 174.59C126.572 179.462 124.097 183.907 120.341 187.119C116.584 190.332 111.794 192.099 106.839 192.1H76.1611C71.2064 192.099 66.4162 190.332 62.6594 187.119C58.9026 183.907 56.4282 179.462 55.685 174.59L50.0714 148.273C40.4733 141.638 32.6337 132.789 27.2228 122.484C21.8119 112.18 18.9906 100.725 19 89.1Z" stroke="white" stroke-opacity="0.16" stroke-width="26" stroke-linecap="round" stroke-linejoin="round"/>
<path d="M249.996 269.807C247.709 268.083 244.841 267.35 242.021 267.77C239.202 268.19 236.663 269.728 234.961 272.046L219.854 292.66L215.21 288.154C214.192 287.16 212.991 286.38 211.676 285.858C210.361 285.335 208.957 285.081 207.544 285.11C206.132 285.138 204.739 285.448 203.445 286.023C202.151 286.598 200.982 287.425 200.003 288.459C198.03 290.544 196.953 293.338 197.009 296.227C197.066 299.117 198.251 301.865 200.304 303.869L213.748 316.967C214.849 318.038 216.162 318.858 217.599 319.375C219.037 319.891 220.566 320.091 222.086 319.962C223.606 319.833 225.081 319.377 226.413 318.625C227.746 317.873 228.906 316.842 229.815 315.601L252.217 285.072C253.061 283.922 253.672 282.615 254.017 281.225C254.361 279.835 254.433 278.39 254.226 276.972C254.02 275.555 253.54 274.192 252.814 272.963C252.088 271.733 251.131 270.661 249.996 269.807ZM242.027 115.113C240.629 115.322 239.285 115.808 238.073 116.544C236.86 117.28 235.803 118.251 234.961 119.402L219.854 140.016L215.21 135.509C214.193 134.515 212.993 133.734 211.678 133.21C210.363 132.686 208.96 132.431 207.547 132.458C206.135 132.485 204.742 132.794 203.447 133.367C202.153 133.941 200.983 134.767 200.003 135.8C199.024 136.832 198.255 138.051 197.74 139.385C197.225 140.719 196.974 142.143 197.002 143.575C197.03 145.008 197.336 146.421 197.903 147.733C198.469 149.046 199.285 150.232 200.304 151.224L213.748 164.308C214.848 165.379 216.16 166.201 217.597 166.719C219.034 167.236 220.563 167.438 222.083 167.31C223.602 167.182 225.078 166.727 226.411 165.977C227.744 165.226 228.905 164.197 229.815 162.956L252.217 132.427C253.061 131.277 253.672 129.97 254.017 128.58C254.361 127.191 254.433 125.746 254.226 124.328C254.02 122.91 253.54 121.548 252.814 120.318C252.088 119.089 251.131 118.016 249.996 117.163C247.712 115.435 244.846 114.698 242.027 115.113ZM242.027 191.435C240.629 191.644 239.285 192.13 238.073 192.866C236.86 193.602 235.803 194.573 234.961 195.724L219.854 216.338L215.21 211.831C214.193 210.837 212.993 210.056 211.678 209.532C210.363 209.009 208.96 208.753 207.547 208.78C206.135 208.807 204.742 209.116 203.447 209.69C202.153 210.263 200.983 211.09 200.003 212.122C199.024 213.155 198.255 214.373 197.74 215.707C197.225 217.041 196.974 218.465 197.002 219.898C197.03 221.33 197.336 222.743 197.903 224.055C198.469 225.368 199.285 226.554 200.304 227.547L213.748 240.63C214.848 241.702 216.16 242.523 217.597 243.041C219.034 243.558 220.563 243.76 222.083 243.632C223.602 243.504 225.078 243.05 226.411 242.299C227.744 241.549 228.905 240.519 229.815 239.278L252.217 208.749C253.061 207.6 253.672 206.292 254.017 204.903C254.361 203.513 254.433 202.068 254.226 200.65C254.02 199.232 253.54 197.87 252.814 196.64C252.088 195.411 251.131 194.339 249.996 193.485C247.712 191.758 244.846 191.02 242.027 191.435ZM279.421 130.276C265.088 130.276 265.088 152.082 279.421 152.082H358.25C372.583 152.082 372.583 130.276 358.25 130.276H279.421ZM279.421 206.598C265.088 206.598 265.088 228.404 279.421 228.404H358.25C372.583 228.404 372.583 206.598 358.25 206.598H279.421ZM279.421 282.92C265.088 282.92 265.088 304.727 279.421 304.727H358.25C372.583 304.727 372.583 282.92 358.25 282.92H279.421Z" fill="white" fill-opacity="0.1"/>
<path d="M241.801 266.286C245.019 265.807 248.292 266.644 250.897 268.608C252.19 269.581 253.28 270.802 254.105 272.2C254.931 273.598 255.477 275.146 255.711 276.756C255.945 278.366 255.864 280.007 255.473 281.586C255.13 282.967 254.555 284.278 253.774 285.46L253.427 285.959L231.024 316.486C229.99 317.899 228.67 319.074 227.15 319.932C225.631 320.789 223.948 321.309 222.213 321.456C220.478 321.604 218.733 321.375 217.093 320.786C215.453 320.197 213.956 319.262 212.703 318.043L212.702 318.042L199.258 304.943L199.041 304.727C196.836 302.466 195.572 299.435 195.51 296.257C195.446 292.977 196.668 289.8 198.914 287.428L199.342 286.998C200.363 286.02 201.545 285.226 202.836 284.652C204.312 283.997 205.902 283.642 207.515 283.609C209.127 283.577 210.729 283.868 212.229 284.464C213.729 285.059 215.096 285.947 216.255 287.077L219.662 290.384L233.751 271.159L233.752 271.158C235.688 268.521 238.582 266.765 241.801 266.286ZM358.251 281.42C362.248 281.42 365.353 282.957 367.44 285.339C369.503 287.692 370.5 290.784 370.5 293.823C370.5 296.863 369.503 299.954 367.44 302.308C365.353 304.69 362.248 306.226 358.251 306.227H279.421C275.423 306.227 272.318 304.69 270.23 302.308C268.168 299.954 267.171 296.863 267.171 293.823C267.171 290.784 268.168 287.692 270.23 285.339C272.318 282.957 275.423 281.42 279.421 281.42H358.251ZM241.809 189.951C245.026 189.478 248.295 190.32 250.896 192.286H250.897C252.19 193.259 253.28 194.48 254.105 195.878C254.931 197.276 255.477 198.824 255.711 200.434C255.945 202.044 255.864 203.685 255.473 205.264C255.13 206.645 254.555 207.955 253.774 209.138L253.427 209.637L231.024 240.166C229.988 241.577 228.667 242.751 227.146 243.606C225.626 244.462 223.943 244.981 222.208 245.127C220.473 245.273 218.728 245.043 217.089 244.452C215.552 243.899 214.142 243.041 212.939 241.931L212.702 241.705L199.258 228.621C198.098 227.491 197.169 226.142 196.525 224.65C195.881 223.159 195.534 221.553 195.502 219.927C195.47 218.3 195.756 216.683 196.341 215.167C196.926 213.651 197.8 212.265 198.915 211.09C200.03 209.914 201.363 208.972 202.84 208.318C204.316 207.664 205.906 207.311 207.519 207.28C209.131 207.249 210.733 207.541 212.233 208.139C213.732 208.735 215.098 209.625 216.255 210.755L219.662 214.062L233.751 194.837C234.709 193.528 235.913 192.423 237.295 191.584C238.677 190.745 240.21 190.189 241.806 189.951H241.809ZM358.251 205.098C362.248 205.098 365.353 206.634 367.44 209.017C369.503 211.37 370.5 214.461 370.5 217.501C370.5 220.541 369.503 223.632 367.44 225.985C365.353 228.368 362.248 229.904 358.251 229.904H279.421C275.423 229.904 272.318 228.368 270.23 225.985C268.168 223.632 267.171 220.541 267.171 217.501C267.171 214.461 268.168 211.37 270.23 209.017C272.318 206.634 275.423 205.098 279.421 205.098H358.251ZM241.809 113.629C245.026 113.156 248.295 113.997 250.896 115.964H250.897C252.19 116.937 253.28 118.158 254.105 119.556C254.931 120.954 255.477 122.501 255.711 124.111C255.945 125.721 255.864 127.363 255.473 128.941C255.13 130.323 254.555 131.633 253.774 132.815L253.427 133.314L231.024 163.844C229.988 165.255 228.667 166.428 227.146 167.284C225.626 168.14 223.943 168.659 222.208 168.805C220.473 168.951 218.728 168.72 217.089 168.13C215.552 167.576 214.142 166.718 212.939 165.608L212.702 165.383L199.258 152.299C198.098 151.169 197.169 149.82 196.525 148.328C195.881 146.837 195.534 145.231 195.502 143.604C195.47 141.978 195.756 140.361 196.341 138.845C196.926 137.329 197.8 135.943 198.915 134.768C200.03 133.592 201.363 132.65 202.84 131.996C204.316 131.342 205.906 130.989 207.519 130.958C209.131 130.927 210.733 131.219 212.233 131.816C213.732 132.413 215.098 133.302 216.255 134.433L219.662 137.739L233.751 118.515C234.709 117.206 235.913 116.1 237.295 115.262C238.677 114.423 240.21 113.867 241.806 113.629H241.809ZM358.251 128.775C362.248 128.776 365.353 130.312 367.44 132.694C369.503 135.047 370.5 138.139 370.5 141.179C370.5 144.218 369.503 147.31 367.44 149.663C365.353 152.045 362.248 153.582 358.251 153.582H279.421C275.423 153.582 272.318 152.045 270.23 149.663C268.168 147.31 267.171 144.218 267.171 141.179C267.171 138.139 268.168 135.047 270.23 132.694C272.318 130.312 275.423 128.775 279.421 128.775H358.251Z" stroke="white" stroke-opacity="0.1" stroke-width="3"/>
</g>
<defs>
<clipPath id="clip0_370_9">
<rect width="1539" height="223" fill="white"/>
</clipPath>
</defs>
</svg>
