<svg width="389" height="192" viewBox="0 0 389 192" fill="none" xmlns="http://www.w3.org/2000/svg">
<rect width="389" height="192" rx="20.0515" fill="white"/>
<path d="M29.3012 33.0385C28.9804 33.0385 28.743 33.0064 28.589 32.9422C28.4478 32.8781 28.3772 32.7947 28.3772 32.692C28.3772 32.6407 28.3836 32.5957 28.3965 32.5572C28.4093 32.5059 28.4221 32.4482 28.435 32.384L32.901 19.8137C32.9395 19.7111 33.0293 19.6341 33.1705 19.5827C33.3245 19.5186 33.5234 19.4865 33.7672 19.4865H34.441C34.6976 19.4865 34.8966 19.5186 35.0377 19.5827C35.1789 19.6341 35.2687 19.7111 35.3072 19.8137L39.7732 32.4032C39.7989 32.4546 39.8117 32.5059 39.8117 32.5572C39.8246 32.5957 39.831 32.6407 39.831 32.692C39.831 32.7818 39.7604 32.8652 39.6192 32.9422C39.4909 33.0064 39.2727 33.0385 38.9647 33.0385H38.6182C38.4001 33.0385 38.214 33.0128 38.06 32.9615C37.906 32.9102 37.8033 32.8267 37.752 32.7112L34.4025 22.9322C34.3383 22.7526 34.2806 22.5665 34.2292 22.374C34.1779 22.1687 34.1394 21.9697 34.1137 21.7772H34.056C34.0175 21.9697 33.979 22.1687 33.9405 22.374C33.902 22.5665 33.8506 22.7526 33.7865 22.9322L30.3985 32.7112C30.3471 32.8267 30.2509 32.9102 30.1097 32.9615C29.9686 33.0128 29.7953 33.0385 29.59 33.0385H29.3012ZM30.668 29.7275V28.0335H37.4825V29.7275H30.668ZM45.6306 33.1348C44.0778 33.1348 42.9164 32.7369 42.1464 31.9412C41.3764 31.1456 40.9914 29.8366 40.9914 28.0142C40.9914 26.3331 41.3828 25.0433 42.1656 24.145C42.9613 23.2467 44.1291 22.7975 45.6691 22.7975C46.0413 22.7975 46.4006 22.8296 46.7471 22.8937C47.1065 22.9579 47.4273 23.0477 47.7096 23.1632C48.0048 23.2659 48.2358 23.3814 48.4026 23.5097C48.5695 23.6381 48.6529 23.7664 48.6529 23.8947C48.6529 24.0102 48.6208 24.1578 48.5566 24.3375C48.5053 24.5043 48.4283 24.6583 48.3256 24.7995C48.2358 24.9278 48.1396 24.992 48.0369 24.992C47.9471 24.992 47.7931 24.9471 47.5749 24.8572C47.3696 24.7546 47.1001 24.6583 46.7664 24.5685C46.4456 24.4787 46.0541 24.4337 45.5921 24.4337C44.7323 24.4337 44.0906 24.7289 43.6671 25.3192C43.2565 25.8967 43.0511 26.7822 43.0511 27.9757C43.0511 29.1949 43.2565 30.0868 43.6671 30.6515C44.0906 31.2162 44.7708 31.4985 45.7076 31.4985C46.144 31.4985 46.529 31.4407 46.8626 31.3252C47.2091 31.2097 47.4979 31.0942 47.7289 30.9787C47.9599 30.8632 48.1203 30.8055 48.2101 30.8055C48.3128 30.8055 48.4026 30.8761 48.4796 31.0172C48.5695 31.1456 48.6401 31.2932 48.6914 31.46C48.7556 31.6268 48.7876 31.768 48.7876 31.8835C48.7876 32.0247 48.685 32.1722 48.4796 32.3262C48.2871 32.4674 48.0369 32.6022 47.7289 32.7305C47.4209 32.846 47.0808 32.9422 46.7086 33.0193C46.3365 33.0963 45.9771 33.1348 45.6306 33.1348ZM54.9737 33.1348C53.4208 33.1348 52.2594 32.7369 51.4894 31.9412C50.7194 31.1456 50.3344 29.8366 50.3344 28.0142C50.3344 26.3331 50.7258 25.0433 51.5087 24.145C52.3043 23.2467 53.4722 22.7975 55.0122 22.7975C55.3843 22.7975 55.7437 22.8296 56.0902 22.8937C56.4495 22.9579 56.7703 23.0477 57.0527 23.1632C57.3478 23.2659 57.5788 23.3814 57.7457 23.5097C57.9125 23.6381 57.9959 23.7664 57.9959 23.8947C57.9959 24.0102 57.9638 24.1578 57.8997 24.3375C57.8483 24.5043 57.7713 24.6583 57.6687 24.7995C57.5788 24.9278 57.4826 24.992 57.3799 24.992C57.2901 24.992 57.1361 24.9471 56.9179 24.8572C56.7126 24.7546 56.4431 24.6583 56.1094 24.5685C55.7886 24.4787 55.3972 24.4337 54.9352 24.4337C54.0753 24.4337 53.4337 24.7289 53.0102 25.3192C52.5995 25.8967 52.3942 26.7822 52.3942 27.9757C52.3942 29.1949 52.5995 30.0868 53.0102 30.6515C53.4337 31.2162 54.1138 31.4985 55.0507 31.4985C55.487 31.4985 55.872 31.4407 56.2057 31.3252C56.5522 31.2097 56.8409 31.0942 57.0719 30.9787C57.3029 30.8632 57.4633 30.8055 57.5532 30.8055C57.6558 30.8055 57.7457 30.8761 57.8227 31.0172C57.9125 31.1456 57.9831 31.2932 58.0344 31.46C58.0986 31.6268 58.1307 31.768 58.1307 31.8835C58.1307 32.0247 58.028 32.1722 57.8227 32.3262C57.6302 32.4674 57.3799 32.6022 57.0719 32.7305C56.7639 32.846 56.4238 32.9422 56.0517 33.0193C55.6795 33.0963 55.3202 33.1348 54.9737 33.1348ZM64.2012 33.1348C62.7382 33.1348 61.6153 32.692 60.8324 31.8065C60.0624 30.921 59.6774 29.6505 59.6774 27.995C59.6774 26.3267 60.0624 25.0433 60.8324 24.145C61.6153 23.2467 62.7382 22.7975 64.2012 22.7975C65.6513 22.7975 66.755 23.2467 67.5122 24.145C68.2822 25.0305 68.6672 26.3138 68.6672 27.995C68.6672 29.6633 68.2886 30.9402 67.5314 31.8257C66.7871 32.6984 65.677 33.1348 64.2012 33.1348ZM64.1627 31.4985C65.0097 31.4985 65.6257 31.2097 66.0107 30.6322C66.4085 30.0547 66.6074 29.1692 66.6074 27.9757C66.6074 26.7822 66.4085 25.8967 66.0107 25.3192C65.6257 24.7289 65.0097 24.4337 64.1627 24.4337C63.3285 24.4337 62.7125 24.7225 62.3147 25.3C61.9297 25.8775 61.7372 26.7694 61.7372 27.9757C61.7372 29.1692 61.9297 30.0547 62.3147 30.6322C62.7125 31.2097 63.3285 31.4985 64.1627 31.4985ZM73.9289 33.1348C72.9792 33.1348 72.2413 32.8717 71.7151 32.3455C71.2018 31.8065 70.9451 31.0493 70.9451 30.074V23.375C70.9451 23.221 71.0093 23.1055 71.1376 23.0285C71.266 22.9387 71.4906 22.8937 71.8114 22.8937H72.0809C72.4017 22.8937 72.6263 22.9387 72.7546 23.0285C72.883 23.1055 72.9471 23.221 72.9471 23.375V29.843C72.9471 30.3563 73.0819 30.7542 73.3514 31.0365C73.6209 31.306 74.0316 31.4407 74.5834 31.4407C74.8786 31.4407 75.1609 31.3894 75.4304 31.2867C75.7127 31.1841 75.9758 31.0365 76.2196 30.844C76.4635 30.6515 76.6624 30.4269 76.8164 30.1703V23.375C76.8164 23.221 76.8806 23.1055 77.0089 23.0285C77.1372 22.9387 77.3618 22.8937 77.6826 22.8937H77.9521C78.273 22.8937 78.4976 22.9387 78.6259 23.0285C78.7542 23.1055 78.8184 23.221 78.8184 23.375V29.9777C78.8184 30.5167 78.8312 30.9531 78.8569 31.2867C78.8954 31.6204 78.9275 31.8835 78.9531 32.076C78.9916 32.2685 79.0109 32.4161 79.0109 32.5187C79.0109 32.6086 78.9531 32.6856 78.8376 32.7497C78.735 32.8139 78.6066 32.8652 78.4526 32.9037C78.2986 32.9294 78.1382 32.9551 77.9714 32.9807C77.8174 32.9936 77.6891 33 77.5864 33C77.4581 33 77.3554 32.9615 77.2784 32.8845C77.2142 32.8075 77.1565 32.6727 77.1051 32.4802C77.0538 32.2749 76.9961 32.0054 76.9319 31.6717C76.7009 31.9541 76.4186 32.2043 76.0849 32.4225C75.7641 32.6407 75.4176 32.8139 75.0454 32.9422C74.6861 33.0706 74.3139 33.1348 73.9289 33.1348ZM82.7962 33.0385C82.4754 33.0385 82.2508 33 82.1225 32.923C81.9941 32.8332 81.93 32.7112 81.93 32.5572V25.9545C81.93 25.4155 81.9107 24.9792 81.8722 24.6455C81.8466 24.3118 81.8145 24.0487 81.776 23.8562C81.7503 23.6637 81.7375 23.5162 81.7375 23.4135C81.7375 23.3365 81.7888 23.2659 81.8915 23.2017C82.007 23.1376 82.1417 23.0862 82.2957 23.0477C82.4497 23.0092 82.6037 22.9836 82.7577 22.9707C82.9246 22.9579 83.0593 22.9515 83.162 22.9515C83.2903 22.9515 83.3866 22.99 83.4507 23.067C83.5277 23.144 83.5919 23.2787 83.6432 23.4712C83.6946 23.6509 83.7523 23.914 83.8165 24.2605C84.0475 23.9653 84.317 23.7151 84.625 23.5097C84.9458 23.2916 85.2859 23.1183 85.6452 22.99C86.0046 22.8617 86.3703 22.7975 86.7425 22.7975C87.397 22.7975 87.9488 22.9194 88.398 23.1632C88.86 23.4071 89.2065 23.76 89.4375 24.222C89.6813 24.684 89.8032 25.2487 89.8032 25.916V32.5572C89.8032 32.7112 89.7391 32.8332 89.6107 32.923C89.4824 33 89.2578 33.0385 88.937 33.0385H88.6675C88.3466 33.0385 88.1221 33 87.9937 32.923C87.8654 32.8332 87.8012 32.7112 87.8012 32.5572V26.147C87.8012 25.608 87.6601 25.1973 87.3777 24.915C87.0954 24.6327 86.6655 24.4915 86.088 24.4915C85.8056 24.4915 85.5297 24.5428 85.2602 24.6455C84.9907 24.7482 84.7405 24.8957 84.5095 25.0882C84.2785 25.2807 84.086 25.5053 83.932 25.762V32.5572C83.932 32.7112 83.8678 32.8332 83.7395 32.923C83.6111 33 83.3866 33.0385 83.0657 33.0385H82.7962ZM95.4558 33.1348C94.9168 33.1348 94.4612 33.0321 94.0891 32.8267C93.7297 32.6214 93.4602 32.3262 93.2806 31.9412C93.1009 31.5434 93.0111 31.0557 93.0111 30.4782V24.5685H92.1448C91.8496 24.5685 91.7021 24.3375 91.7021 23.8755V23.6252C91.7021 23.1632 91.8496 22.9322 92.1448 22.9322H93.0111L93.2613 20.9688C93.287 20.8019 93.3576 20.68 93.4731 20.603C93.5886 20.526 93.7554 20.4875 93.9736 20.4875H94.2623C94.5318 20.4875 94.7243 20.526 94.8398 20.603C94.9553 20.68 95.0131 20.8019 95.0131 20.9688V22.9322H96.5146C96.8097 22.9322 96.9573 23.1632 96.9573 23.6252V23.8755C96.9573 24.3375 96.8097 24.5685 96.5146 24.5685H95.0131V30.4397C95.0131 30.8119 95.0708 31.075 95.1863 31.229C95.3146 31.383 95.5328 31.46 95.8408 31.46C96.1231 31.46 96.3221 31.4279 96.4376 31.3637C96.5659 31.2996 96.675 31.2675 96.7648 31.2675C96.8418 31.2675 96.8996 31.3188 96.9381 31.4215C96.9894 31.5113 97.0279 31.6268 97.0536 31.768C97.0921 31.8963 97.1113 32.0247 97.1113 32.153C97.1241 32.2685 97.1306 32.3519 97.1306 32.4032C97.1306 32.5444 97.0343 32.6727 96.8418 32.7882C96.6621 32.8909 96.444 32.9743 96.1873 33.0385C95.9306 33.1027 95.6868 33.1348 95.4558 33.1348ZM100.091 33.0385C99.7703 33.0385 99.5457 33 99.4174 32.923C99.2891 32.8332 99.2249 32.7112 99.2249 32.5572V23.375C99.2249 23.221 99.2891 23.1055 99.4174 23.0285C99.5457 22.9387 99.7703 22.8937 100.091 22.8937H100.361C100.681 22.8937 100.906 22.9387 101.034 23.0285C101.163 23.1055 101.227 23.221 101.227 23.375V32.5572C101.227 32.7112 101.163 32.8332 101.034 32.923C100.906 33 100.681 33.0385 100.361 33.0385H100.091ZM100.226 21.6617C99.8537 21.6617 99.5906 21.6232 99.4366 21.5462C99.2826 21.4564 99.2056 21.3345 99.2056 21.1805V19.9292C99.2056 19.7752 99.2826 19.6597 99.4366 19.5827C99.5906 19.4929 99.8537 19.448 100.226 19.448C100.585 19.448 100.842 19.4929 100.996 19.5827C101.15 19.6597 101.227 19.7752 101.227 19.9292V21.1805C101.227 21.3345 101.15 21.4564 100.996 21.5462C100.842 21.6232 100.585 21.6617 100.226 21.6617ZM105.186 33.0385C104.865 33.0385 104.64 33 104.512 32.923C104.384 32.8332 104.319 32.7112 104.319 32.5572V25.9545C104.319 25.4155 104.3 24.9792 104.262 24.6455C104.236 24.3118 104.204 24.0487 104.165 23.8562C104.14 23.6637 104.127 23.5162 104.127 23.4135C104.127 23.3365 104.178 23.2659 104.281 23.2017C104.396 23.1376 104.531 23.0862 104.685 23.0477C104.839 23.0092 104.993 22.9836 105.147 22.9707C105.314 22.9579 105.449 22.9515 105.551 22.9515C105.68 22.9515 105.776 22.99 105.84 23.067C105.917 23.144 105.981 23.2787 106.033 23.4712C106.084 23.6509 106.142 23.914 106.206 24.2605C106.437 23.9653 106.706 23.7151 107.014 23.5097C107.335 23.2916 107.675 23.1183 108.035 22.99C108.394 22.8617 108.76 22.7975 109.132 22.7975C109.786 22.7975 110.338 22.9194 110.787 23.1632C111.249 23.4071 111.596 23.76 111.827 24.222C112.071 24.684 112.193 25.2487 112.193 25.916V32.5572C112.193 32.7112 112.128 32.8332 112 32.923C111.872 33 111.647 33.0385 111.326 33.0385H111.057C110.736 33.0385 110.511 33 110.383 32.923C110.255 32.8332 110.191 32.7112 110.191 32.5572V26.147C110.191 25.608 110.049 25.1973 109.767 24.915C109.485 24.6327 109.055 24.4915 108.477 24.4915C108.195 24.4915 107.919 24.5428 107.65 24.6455C107.38 24.7482 107.13 24.8957 106.899 25.0882C106.668 25.2807 106.475 25.5053 106.321 25.762V32.5572C106.321 32.7112 106.257 32.8332 106.129 32.923C106.001 33 105.776 33.0385 105.455 33.0385H105.186ZM118.403 37.081C117.569 37.081 116.844 36.9912 116.228 36.8115C115.612 36.6447 115.137 36.3688 114.804 35.9838C114.47 35.6116 114.303 35.1239 114.303 34.5208C114.303 34.1614 114.374 33.8278 114.515 33.5198C114.656 33.2118 114.855 32.9422 115.112 32.7112C115.368 32.4674 115.664 32.2813 115.997 32.153L116.016 32.0952C115.785 31.9284 115.599 31.7167 115.458 31.46C115.317 31.2033 115.246 30.9017 115.246 30.5552C115.246 30.1574 115.336 29.8109 115.516 29.5157C115.708 29.2206 115.978 28.9639 116.324 28.7457C115.798 28.4762 115.394 28.1105 115.112 27.6485C114.829 27.1737 114.688 26.6347 114.688 26.0315C114.688 25.3642 114.842 24.7931 115.15 24.3182C115.471 23.8434 115.92 23.4712 116.498 23.2017C117.088 22.9322 117.787 22.7975 118.596 22.7975C118.814 22.7975 119.026 22.8103 119.231 22.836C119.437 22.8617 119.635 22.8937 119.828 22.9322H123.216C123.37 22.9322 123.479 22.99 123.543 23.1055C123.62 23.2082 123.659 23.3814 123.659 23.6252V23.8755C123.659 24.3247 123.518 24.5492 123.235 24.5492C123.158 24.5492 123.036 24.5428 122.869 24.53C122.703 24.5172 122.529 24.5043 122.35 24.4915C122.183 24.4658 122.042 24.4402 121.926 24.4145L121.907 24.453C122.048 24.607 122.157 24.7674 122.234 24.9342C122.324 25.1011 122.382 25.2743 122.407 25.454C122.446 25.6337 122.465 25.8262 122.465 26.0315C122.465 26.6732 122.311 27.2314 122.003 27.7062C121.695 28.1811 121.259 28.5532 120.694 28.8227C120.13 29.0794 119.443 29.2077 118.634 29.2077C118.262 29.2077 117.954 29.2462 117.71 29.3232C117.467 29.3874 117.287 29.4965 117.171 29.6505C117.069 29.7917 117.017 29.9842 117.017 30.228C117.017 30.4847 117.101 30.6836 117.268 30.8247C117.435 30.9659 117.659 31.075 117.941 31.152C118.237 31.229 118.564 31.2867 118.923 31.3252C119.283 31.3637 119.648 31.4087 120.02 31.46C120.572 31.537 121.079 31.6653 121.541 31.845C122.016 32.0247 122.388 32.2877 122.658 32.6342C122.94 32.9807 123.081 33.462 123.081 34.078C123.081 34.694 122.902 35.2266 122.542 35.6758C122.183 36.1249 121.65 36.4714 120.944 36.7153C120.251 36.9591 119.404 37.081 118.403 37.081ZM118.615 35.4833C119.488 35.4833 120.136 35.3742 120.559 35.156C120.983 34.9378 121.195 34.6042 121.195 34.155C121.195 33.9112 121.111 33.7123 120.944 33.5583C120.79 33.4043 120.572 33.2823 120.29 33.1925C120.02 33.1155 119.712 33.0578 119.366 33.0193C119.032 32.9807 118.679 32.9422 118.307 32.9037C117.948 32.8524 117.601 32.7882 117.268 32.7112C116.96 32.8524 116.697 33.0385 116.478 33.2695C116.273 33.5133 116.17 33.8149 116.17 34.1743C116.17 34.4694 116.247 34.7133 116.401 34.9058C116.568 35.1111 116.831 35.2587 117.191 35.3485C117.55 35.4383 118.025 35.4833 118.615 35.4833ZM118.577 27.6677C118.949 27.6677 119.283 27.6164 119.578 27.5137C119.886 27.4111 120.13 27.2378 120.309 26.994C120.502 26.7502 120.598 26.4229 120.598 26.0122C120.598 25.6016 120.502 25.2743 120.309 25.0305C120.13 24.7867 119.886 24.6134 119.578 24.5107C119.283 24.4081 118.949 24.3567 118.577 24.3567C118.205 24.3567 117.864 24.4081 117.556 24.5107C117.261 24.6134 117.024 24.7867 116.844 25.0305C116.665 25.2743 116.575 25.6016 116.575 26.0122C116.575 26.6282 116.767 27.0582 117.152 27.302C117.55 27.5458 118.025 27.6677 118.577 27.6677ZM125.235 28.6687C124.94 28.6687 124.793 28.4377 124.793 27.9757V27.8025C124.793 27.3533 124.94 27.1287 125.235 27.1287H128.893C129.188 27.1287 129.336 27.3533 129.336 27.8025V27.9757C129.336 28.4377 129.188 28.6687 128.893 28.6687H125.235ZM137.427 33.1348C135.296 33.1348 133.724 32.5765 132.71 31.46C131.696 30.3435 131.19 28.6046 131.19 26.2432C131.19 23.9461 131.716 22.2328 132.768 21.1035C133.833 19.9613 135.399 19.3902 137.465 19.3902C137.901 19.3902 138.325 19.4223 138.736 19.4865C139.159 19.5507 139.544 19.6341 139.891 19.7367C140.25 19.8394 140.545 19.9613 140.776 20.1025C140.917 20.1923 141.033 20.2822 141.123 20.372C141.212 20.4618 141.257 20.5517 141.257 20.6415C141.257 20.7313 141.232 20.8468 141.18 20.988C141.142 21.1163 141.09 21.2511 141.026 21.3922C140.962 21.5206 140.885 21.6297 140.795 21.7195C140.718 21.7965 140.635 21.835 140.545 21.835C140.43 21.835 140.243 21.7772 139.987 21.6617C139.73 21.5462 139.396 21.4372 138.986 21.3345C138.575 21.2318 138.075 21.1805 137.484 21.1805C136.535 21.1805 135.752 21.3602 135.136 21.7195C134.52 22.066 134.058 22.6178 133.75 23.375C133.455 24.1193 133.307 25.0818 133.307 26.2625C133.307 27.4175 133.455 28.3736 133.75 29.1307C134.045 29.8751 134.501 30.4333 135.117 30.8055C135.733 31.1777 136.503 31.3637 137.427 31.3637C137.914 31.3637 138.351 31.3188 138.736 31.229C139.121 31.1392 139.454 31.0429 139.737 30.9402C140.032 30.8376 140.269 30.7413 140.449 30.6515C140.628 30.5617 140.757 30.5167 140.834 30.5167C140.924 30.5167 141.007 30.5681 141.084 30.6707C141.174 30.7606 141.251 30.8697 141.315 30.998C141.379 31.1263 141.424 31.2547 141.45 31.383C141.475 31.5113 141.488 31.6012 141.488 31.6525C141.488 31.8065 141.431 31.9348 141.315 32.0375C141.212 32.1402 141.052 32.2557 140.834 32.384C140.577 32.5252 140.269 32.6535 139.91 32.769C139.55 32.8717 139.159 32.9551 138.736 33.0193C138.312 33.0963 137.876 33.1348 137.427 33.1348ZM147.574 33.1348C146.111 33.1348 144.988 32.692 144.205 31.8065C143.435 30.921 143.05 29.6505 143.05 27.995C143.05 26.3267 143.435 25.0433 144.205 24.145C144.988 23.2467 146.111 22.7975 147.574 22.7975C149.024 22.7975 150.128 23.2467 150.885 24.145C151.655 25.0305 152.04 26.3138 152.04 27.995C152.04 29.6633 151.661 30.9402 150.904 31.8257C150.16 32.6984 149.05 33.1348 147.574 33.1348ZM147.535 31.4985C148.382 31.4985 148.998 31.2097 149.383 30.6322C149.781 30.0547 149.98 29.1692 149.98 27.9757C149.98 26.7822 149.781 25.8967 149.383 25.3192C148.998 24.7289 148.382 24.4337 147.535 24.4337C146.701 24.4337 146.085 24.7225 145.687 25.3C145.302 25.8775 145.11 26.7694 145.11 27.9757C145.11 29.1692 145.302 30.0547 145.687 30.6322C146.085 31.2097 146.701 31.4985 147.535 31.4985ZM155.454 33.0385C155.133 33.0385 154.908 33 154.78 32.923C154.652 32.8332 154.587 32.7112 154.587 32.5572V25.9545C154.587 25.4155 154.568 24.9792 154.53 24.6455C154.504 24.3118 154.472 24.0487 154.433 23.8562C154.408 23.6637 154.395 23.5162 154.395 23.4135C154.395 23.3365 154.446 23.2659 154.549 23.2017C154.664 23.1376 154.799 23.0862 154.953 23.0477C155.107 23.0092 155.261 22.9836 155.415 22.9707C155.582 22.9579 155.717 22.9515 155.819 22.9515C155.948 22.9515 156.044 22.99 156.108 23.067C156.185 23.144 156.249 23.2787 156.301 23.4712C156.352 23.6509 156.41 23.914 156.474 24.2605C156.705 23.9653 156.968 23.7151 157.263 23.5097C157.571 23.2916 157.898 23.1183 158.245 22.99C158.604 22.8617 158.97 22.7975 159.342 22.7975C159.791 22.7975 160.189 22.8617 160.536 22.99C160.895 23.1055 161.203 23.2852 161.46 23.529C161.729 23.76 161.935 24.0552 162.076 24.4145C162.307 24.0937 162.576 23.8177 162.884 23.5867C163.205 23.3429 163.552 23.1504 163.924 23.0092C164.296 22.8681 164.674 22.7975 165.059 22.7975C165.701 22.7975 166.247 22.9194 166.696 23.1632C167.145 23.4071 167.485 23.76 167.716 24.222C167.947 24.684 168.062 25.2487 168.062 25.916V32.5572C168.062 32.7112 167.998 32.8332 167.87 32.923C167.742 33 167.517 33.0385 167.196 33.0385H166.927C166.606 33.0385 166.381 33 166.253 32.923C166.125 32.8332 166.06 32.7112 166.06 32.5572V26.147C166.06 25.608 165.926 25.1973 165.656 24.915C165.387 24.6327 164.97 24.4915 164.405 24.4915C164.212 24.4915 164.014 24.5236 163.808 24.5877C163.603 24.6391 163.404 24.7289 163.211 24.8572C163.032 24.9856 162.852 25.1396 162.672 25.3192C162.493 25.4861 162.326 25.6914 162.172 25.9352V25.0305C162.249 25.1717 162.294 25.3192 162.307 25.4732C162.332 25.6272 162.345 25.7812 162.345 25.9352V32.5572C162.345 32.7112 162.275 32.8332 162.133 32.923C162.005 33 161.781 33.0385 161.46 33.0385H161.209C160.889 33.0385 160.658 33 160.516 32.923C160.388 32.8332 160.324 32.7112 160.324 32.5572V26.147C160.324 25.608 160.189 25.1973 159.92 24.915C159.65 24.6327 159.24 24.4915 158.688 24.4915C158.418 24.4915 158.149 24.5428 157.879 24.6455C157.623 24.7482 157.379 24.8957 157.148 25.0882C156.93 25.2807 156.743 25.4989 156.589 25.7427V32.5572C156.589 32.7112 156.525 32.8332 156.397 32.923C156.269 33 156.044 33.0385 155.723 33.0385H155.454ZM171.771 36.9848C171.45 36.9848 171.226 36.9398 171.097 36.85C170.969 36.773 170.905 36.6575 170.905 36.5035V25.9545C170.905 25.4155 170.886 24.9792 170.847 24.6455C170.821 24.3118 170.789 24.0487 170.751 23.8562C170.725 23.6637 170.712 23.5162 170.712 23.4135C170.712 23.3365 170.764 23.2659 170.866 23.2017C170.982 23.1376 171.117 23.0862 171.271 23.0477C171.425 23.0092 171.579 22.9836 171.733 22.9707C171.899 22.9579 172.034 22.9515 172.137 22.9515C172.265 22.9515 172.361 22.99 172.426 23.067C172.49 23.1312 172.547 23.2531 172.599 23.4327C172.65 23.5996 172.708 23.8306 172.772 24.1257C173.029 23.8434 173.311 23.606 173.619 23.4135C173.927 23.2082 174.254 23.0542 174.601 22.9515C174.947 22.8488 175.3 22.7975 175.66 22.7975C176.442 22.7975 177.11 22.9964 177.662 23.3942C178.213 23.7921 178.637 24.3696 178.932 25.1267C179.24 25.8839 179.394 26.8143 179.394 27.918C179.394 28.9447 179.24 29.8494 178.932 30.6322C178.637 31.4022 178.201 32.0118 177.623 32.461C177.046 32.9102 176.359 33.1348 175.563 33.1348C175.217 33.1348 174.883 33.0898 174.562 33C174.241 32.9102 173.94 32.7882 173.658 32.6342C173.375 32.4802 173.125 32.307 172.907 32.1145V36.5035C172.907 36.6575 172.843 36.773 172.714 36.85C172.586 36.9398 172.361 36.9848 172.041 36.9848H171.771ZM175.159 31.4792C175.865 31.4792 176.404 31.1712 176.776 30.5552C177.148 29.9392 177.334 29.0602 177.334 27.918C177.334 26.7502 177.129 25.8903 176.718 25.3385C176.32 24.7738 175.769 24.4915 175.063 24.4915C174.665 24.4915 174.28 24.5942 173.908 24.7995C173.536 25.0048 173.202 25.2872 172.907 25.6465V30.4205C173.24 30.767 173.6 31.0301 173.985 31.2097C174.37 31.3894 174.761 31.4792 175.159 31.4792ZM184.307 33.1348C183.756 33.1348 183.3 33.0321 182.941 32.8267C182.581 32.6214 182.312 32.3262 182.132 31.9412C181.953 31.5434 181.863 31.0557 181.863 30.4782V19.0052C181.863 18.8384 181.927 18.7165 182.055 18.6395C182.184 18.5497 182.408 18.5047 182.729 18.5047H182.998C183.319 18.5047 183.544 18.5497 183.672 18.6395C183.801 18.7165 183.865 18.8384 183.865 19.0052V30.4397C183.865 30.8247 183.922 31.0942 184.038 31.2482C184.166 31.3894 184.384 31.46 184.692 31.46C184.962 31.46 185.161 31.4279 185.289 31.3637C185.418 31.2996 185.527 31.2675 185.616 31.2675C185.681 31.2675 185.738 31.3188 185.79 31.4215C185.841 31.5113 185.88 31.6268 185.905 31.768C185.944 31.8963 185.963 32.0247 185.963 32.153C185.976 32.2685 185.982 32.3519 185.982 32.4032C185.982 32.5444 185.886 32.6727 185.693 32.7882C185.514 32.8909 185.296 32.9743 185.039 33.0385C184.782 33.1027 184.538 33.1348 184.307 33.1348ZM188.521 33.0385C188.2 33.0385 187.975 33 187.847 32.923C187.719 32.8332 187.655 32.7112 187.655 32.5572V23.375C187.655 23.221 187.719 23.1055 187.847 23.0285C187.975 22.9387 188.2 22.8937 188.521 22.8937H188.79C189.111 22.8937 189.336 22.9387 189.464 23.0285C189.592 23.1055 189.657 23.221 189.657 23.375V32.5572C189.657 32.7112 189.592 32.8332 189.464 32.923C189.336 33 189.111 33.0385 188.79 33.0385H188.521ZM188.656 21.6617C188.283 21.6617 188.02 21.6232 187.866 21.5462C187.712 21.4564 187.635 21.3345 187.635 21.1805V19.9292C187.635 19.7752 187.712 19.6597 187.866 19.5827C188.02 19.4929 188.283 19.448 188.656 19.448C189.015 19.448 189.272 19.4929 189.426 19.5827C189.58 19.6597 189.657 19.7752 189.657 19.9292V21.1805C189.657 21.3345 189.58 21.4564 189.426 21.5462C189.272 21.6232 189.015 21.6617 188.656 21.6617ZM195.252 33.1348C194.289 33.1348 193.519 32.8909 192.942 32.4032C192.377 31.9027 192.095 31.1905 192.095 30.2665C192.095 29.6762 192.191 29.1628 192.383 28.7265C192.576 28.2902 192.897 27.9244 193.346 27.6292C193.808 27.3341 194.437 27.1159 195.232 26.9747C196.028 26.8207 197.023 26.7437 198.216 26.7437V25.916C198.216 25.6337 198.152 25.3834 198.024 25.1652C197.908 24.9471 197.709 24.7738 197.427 24.6455C197.144 24.5043 196.766 24.4337 196.291 24.4337C195.752 24.4337 195.271 24.4979 194.847 24.6262C194.424 24.7417 194.077 24.8637 193.808 24.992C193.538 25.1075 193.359 25.1652 193.269 25.1652C193.192 25.1652 193.121 25.1267 193.057 25.0497C192.993 24.9599 192.929 24.8508 192.865 24.7225C192.813 24.5942 192.768 24.4658 192.73 24.3375C192.691 24.2092 192.672 24.1001 192.672 24.0102C192.672 23.8819 192.781 23.7536 192.999 23.6252C193.217 23.4841 193.506 23.3557 193.866 23.2402C194.238 23.1119 194.642 23.0092 195.078 22.9322C195.527 22.8424 195.97 22.7975 196.407 22.7975C197.035 22.7975 197.587 22.8745 198.062 23.0285C198.537 23.1697 198.928 23.375 199.236 23.6445C199.557 23.914 199.795 24.2412 199.949 24.6262C200.115 24.9984 200.199 25.4155 200.199 25.8775V29.9777C200.199 30.5424 200.218 30.998 200.257 31.3445C200.295 31.6782 200.327 31.9348 200.353 32.1145C200.391 32.2942 200.411 32.4353 200.411 32.538C200.411 32.615 200.359 32.6856 200.257 32.7497C200.154 32.8011 200.026 32.846 199.872 32.8845C199.718 32.923 199.557 32.9551 199.39 32.9807C199.236 32.9936 199.102 33 198.986 33C198.845 33 198.736 32.9487 198.659 32.846C198.595 32.7433 198.537 32.5957 198.486 32.4032C198.447 32.1979 198.396 31.9541 198.332 31.6717C198.152 31.8899 197.921 32.1145 197.639 32.3455C197.356 32.5637 197.016 32.7497 196.618 32.9037C196.22 33.0578 195.765 33.1348 195.252 33.1348ZM195.579 31.4792C195.977 31.4792 196.336 31.4215 196.657 31.306C196.978 31.1777 197.266 31.0172 197.523 30.8247C197.78 30.6322 198.011 30.4205 198.216 30.1895V28.2645C197.408 28.2645 196.74 28.2966 196.214 28.3607C195.688 28.4249 195.271 28.534 194.963 28.688C194.668 28.8292 194.456 29.0217 194.328 29.2655C194.199 29.4965 194.135 29.7788 194.135 30.1125C194.135 30.5488 194.257 30.8889 194.501 31.1327C194.745 31.3637 195.104 31.4792 195.579 31.4792ZM204.105 33.0385C203.784 33.0385 203.56 33 203.431 32.923C203.303 32.8332 203.239 32.7112 203.239 32.5572V25.9545C203.239 25.4155 203.22 24.9792 203.181 24.6455C203.155 24.3118 203.123 24.0487 203.085 23.8562C203.059 23.6637 203.046 23.5162 203.046 23.4135C203.046 23.3365 203.098 23.2659 203.2 23.2017C203.316 23.1376 203.451 23.0862 203.605 23.0477C203.759 23.0092 203.913 22.9836 204.067 22.9707C204.233 22.9579 204.368 22.9515 204.471 22.9515C204.599 22.9515 204.695 22.99 204.76 23.067C204.837 23.144 204.901 23.2787 204.952 23.4712C205.003 23.6509 205.061 23.914 205.125 24.2605C205.356 23.9653 205.626 23.7151 205.934 23.5097C206.255 23.2916 206.595 23.1183 206.954 22.99C207.313 22.8617 207.679 22.7975 208.051 22.7975C208.706 22.7975 209.258 22.9194 209.707 23.1632C210.169 23.4071 210.515 23.76 210.746 24.222C210.99 24.684 211.112 25.2487 211.112 25.916V32.5572C211.112 32.7112 211.048 32.8332 210.92 32.923C210.791 33 210.567 33.0385 210.246 33.0385H209.976C209.655 33.0385 209.431 33 209.303 32.923C209.174 32.8332 209.11 32.7112 209.11 32.5572V26.147C209.11 25.608 208.969 25.1973 208.687 24.915C208.404 24.6327 207.974 24.4915 207.397 24.4915C207.114 24.4915 206.839 24.5428 206.569 24.6455C206.3 24.7482 206.049 24.8957 205.818 25.0882C205.587 25.2807 205.395 25.5053 205.241 25.762V32.5572C205.241 32.7112 205.177 32.8332 205.048 32.923C204.92 33 204.695 33.0385 204.375 33.0385H204.105ZM218.016 33.1348C216.463 33.1348 215.302 32.7369 214.532 31.9412C213.762 31.1456 213.377 29.8366 213.377 28.0142C213.377 26.3331 213.768 25.0433 214.551 24.145C215.347 23.2467 216.514 22.7975 218.054 22.7975C218.427 22.7975 218.786 22.8296 219.132 22.8937C219.492 22.9579 219.813 23.0477 220.095 23.1632C220.39 23.2659 220.621 23.3814 220.788 23.5097C220.955 23.6381 221.038 23.7664 221.038 23.8947C221.038 24.0102 221.006 24.1578 220.942 24.3375C220.891 24.5043 220.814 24.6583 220.711 24.7995C220.621 24.9278 220.525 24.992 220.422 24.992C220.332 24.992 220.178 24.9471 219.96 24.8572C219.755 24.7546 219.485 24.6583 219.152 24.5685C218.831 24.4787 218.439 24.4337 217.977 24.4337C217.118 24.4337 216.476 24.7289 216.052 25.3192C215.642 25.8967 215.436 26.7822 215.436 27.9757C215.436 29.1949 215.642 30.0868 216.052 30.6515C216.476 31.2162 217.156 31.4985 218.093 31.4985C218.529 31.4985 218.914 31.4407 219.248 31.3252C219.594 31.2097 219.883 31.0942 220.114 30.9787C220.345 30.8632 220.506 30.8055 220.595 30.8055C220.698 30.8055 220.788 30.8761 220.865 31.0172C220.955 31.1456 221.025 31.2932 221.077 31.46C221.141 31.6268 221.173 31.768 221.173 31.8835C221.173 32.0247 221.07 32.1722 220.865 32.3262C220.672 32.4674 220.422 32.6022 220.114 32.7305C219.806 32.846 219.466 32.9422 219.094 33.0193C218.722 33.0963 218.362 33.1348 218.016 33.1348ZM227.436 33.1348C225.883 33.1348 224.709 32.7241 223.913 31.9027C223.117 31.0814 222.72 29.7852 222.72 28.0142C222.72 26.8592 222.899 25.8967 223.259 25.1267C223.631 24.3567 224.157 23.7792 224.837 23.3942C225.517 22.9964 226.332 22.7975 227.282 22.7975C228.193 22.7975 228.944 23.0028 229.534 23.4135C230.124 23.8113 230.561 24.3824 230.843 25.1267C231.125 25.8711 231.267 26.7502 231.267 27.764C231.267 27.8923 231.228 28.0335 231.151 28.1875C231.074 28.3287 230.971 28.4506 230.843 28.5532C230.728 28.6559 230.606 28.7072 230.477 28.7072H224.779C224.805 29.6826 225.042 30.3948 225.492 30.844C225.954 31.2803 226.621 31.4985 227.494 31.4985C228.058 31.4985 228.54 31.4279 228.937 31.2867C229.348 31.1456 229.675 31.0108 229.919 30.8825C230.176 30.7542 230.343 30.69 230.42 30.69C230.522 30.69 230.619 30.7542 230.708 30.8825C230.798 31.0108 230.869 31.1648 230.92 31.3445C230.984 31.5113 231.016 31.6461 231.016 31.7487C231.016 31.8899 230.914 32.0375 230.708 32.1915C230.503 32.3455 230.227 32.4995 229.881 32.6535C229.547 32.7947 229.168 32.9102 228.745 33C228.321 33.0898 227.885 33.1348 227.436 33.1348ZM224.76 27.1672H229.303C229.303 26.2561 229.117 25.5759 228.745 25.1267C228.373 24.6647 227.834 24.4337 227.128 24.4337C226.653 24.4337 226.242 24.5364 225.896 24.7417C225.549 24.9471 225.273 25.2487 225.068 25.6465C224.876 26.0443 224.773 26.5512 224.76 27.1672Z" fill="#35334C"/>
<path d="M30.278 57.034C30.006 57.034 29.8077 57 29.683 56.932C29.5583 56.8527 29.496 56.745 29.496 56.609V45.661C29.496 45.287 29.683 45.1 30.057 45.1H35.344C35.582 45.1 35.701 45.304 35.701 45.712V46.052C35.701 46.46 35.582 46.664 35.344 46.664H31.349V50.574H35.106C35.3553 50.574 35.48 50.778 35.48 51.186V51.526C35.48 51.934 35.3553 52.138 35.106 52.138H31.349V56.609C31.349 56.745 31.2867 56.8527 31.162 56.932C31.0487 57 30.8447 57.034 30.55 57.034H30.278ZM38.6918 57.034C38.4085 57.034 38.2101 57 38.0968 56.932C37.9835 56.8527 37.9268 56.745 37.9268 56.609V48.5C37.9268 48.364 37.9835 48.262 38.0968 48.194C38.2101 48.1147 38.4085 48.075 38.6918 48.075H38.9298C39.2131 48.075 39.4115 48.1147 39.5248 48.194C39.6381 48.262 39.6948 48.364 39.6948 48.5V56.609C39.6948 56.745 39.6381 56.8527 39.5248 56.932C39.4115 57 39.2131 57.034 38.9298 57.034H38.6918ZM38.8108 46.987C38.4821 46.987 38.2498 46.953 38.1138 46.885C37.9778 46.8057 37.9098 46.698 37.9098 46.562V45.457C37.9098 45.321 37.9778 45.219 38.1138 45.151C38.2498 45.0717 38.4821 45.032 38.8108 45.032C39.1281 45.032 39.3548 45.0717 39.4908 45.151C39.6268 45.219 39.6948 45.321 39.6948 45.457V46.562C39.6948 46.698 39.6268 46.8057 39.4908 46.885C39.3548 46.953 39.1281 46.987 38.8108 46.987ZM44.5168 57.119C44.0295 57.119 43.6272 57.0283 43.3098 56.847C42.9925 56.6657 42.7545 56.405 42.5958 56.065C42.4372 55.7137 42.3578 55.283 42.3578 54.773V44.641C42.3578 44.4937 42.4145 44.386 42.5278 44.318C42.6412 44.2387 42.8395 44.199 43.1228 44.199H43.3608C43.6442 44.199 43.8425 44.2387 43.9558 44.318C44.0692 44.386 44.1258 44.4937 44.1258 44.641V54.739C44.1258 55.079 44.1768 55.317 44.2788 55.453C44.3922 55.5777 44.5848 55.64 44.8568 55.64C45.0948 55.64 45.2705 55.6117 45.3838 55.555C45.4972 55.4983 45.5935 55.47 45.6728 55.47C45.7295 55.47 45.7805 55.5153 45.8258 55.606C45.8712 55.6853 45.9052 55.7873 45.9278 55.912C45.9618 56.0253 45.9788 56.1387 45.9788 56.252C45.9902 56.354 45.9958 56.4277 45.9958 56.473C45.9958 56.5977 45.9108 56.711 45.7408 56.813C45.5822 56.9037 45.3895 56.9773 45.1628 57.034C44.9362 57.0907 44.7208 57.119 44.5168 57.119ZM49.5637 57.119C49.0764 57.119 48.674 57.0283 48.3567 56.847C48.0394 56.6657 47.8014 56.405 47.6427 56.065C47.484 55.7137 47.4047 55.283 47.4047 54.773V44.641C47.4047 44.4937 47.4614 44.386 47.5747 44.318C47.688 44.2387 47.8864 44.199 48.1697 44.199H48.4077C48.691 44.199 48.8894 44.2387 49.0027 44.318C49.116 44.386 49.1727 44.4937 49.1727 44.641V54.739C49.1727 55.079 49.2237 55.317 49.3257 55.453C49.439 55.5777 49.6317 55.64 49.9037 55.64C50.1417 55.64 50.3174 55.6117 50.4307 55.555C50.544 55.4983 50.6404 55.47 50.7197 55.47C50.7764 55.47 50.8274 55.5153 50.8727 55.606C50.918 55.6853 50.952 55.7873 50.9747 55.912C51.0087 56.0253 51.0257 56.1387 51.0257 56.252C51.037 56.354 51.0427 56.4277 51.0427 56.473C51.0427 56.5977 50.9577 56.711 50.7877 56.813C50.629 56.9037 50.4364 56.9773 50.2097 57.034C49.983 57.0907 49.7677 57.119 49.5637 57.119ZM53.2846 57.034C53.0012 57.034 52.8029 57 52.6896 56.932C52.5762 56.8527 52.5196 56.745 52.5196 56.609V48.5C52.5196 48.364 52.5762 48.262 52.6896 48.194C52.8029 48.1147 53.0012 48.075 53.2846 48.075H53.5226C53.8059 48.075 54.0042 48.1147 54.1176 48.194C54.2309 48.262 54.2876 48.364 54.2876 48.5V56.609C54.2876 56.745 54.2309 56.8527 54.1176 56.932C54.0042 57 53.8059 57.034 53.5226 57.034H53.2846ZM53.4036 46.987C53.0749 46.987 52.8426 46.953 52.7066 46.885C52.5706 46.8057 52.5026 46.698 52.5026 46.562V45.457C52.5026 45.321 52.5706 45.219 52.7066 45.151C52.8426 45.0717 53.0749 45.032 53.4036 45.032C53.7209 45.032 53.9476 45.0717 54.0836 45.151C54.2196 45.219 54.2876 45.321 54.2876 45.457V46.562C54.2876 46.698 54.2196 46.8057 54.0836 46.885C53.9476 46.953 53.7209 46.987 53.4036 46.987ZM57.7836 57.034C57.5003 57.034 57.3019 57 57.1886 56.932C57.0753 56.8527 57.0186 56.745 57.0186 56.609V50.778C57.0186 50.302 57.0016 49.9167 56.9676 49.622C56.9449 49.3273 56.9166 49.095 56.8826 48.925C56.8599 48.755 56.8486 48.6247 56.8486 48.534C56.8486 48.466 56.8939 48.4037 56.9846 48.347C57.0866 48.2903 57.2056 48.245 57.3416 48.211C57.4776 48.177 57.6136 48.1543 57.7496 48.143C57.8969 48.1317 58.0159 48.126 58.1066 48.126C58.2199 48.126 58.3049 48.16 58.3616 48.228C58.4296 48.296 58.4863 48.415 58.5316 48.585C58.5769 48.7437 58.6279 48.976 58.6846 49.282C58.8886 49.0213 59.1266 48.8003 59.3986 48.619C59.6819 48.4263 59.9823 48.2733 60.2996 48.16C60.6169 48.0467 60.9399 47.99 61.2686 47.99C61.8466 47.99 62.3339 48.0977 62.7306 48.313C63.1386 48.5283 63.4446 48.84 63.6486 49.248C63.8639 49.656 63.9716 50.1547 63.9716 50.744V56.609C63.9716 56.745 63.9149 56.8527 63.8016 56.932C63.6883 57 63.4899 57.034 63.2066 57.034H62.9686C62.6853 57.034 62.4869 57 62.3736 56.932C62.2603 56.8527 62.2036 56.745 62.2036 56.609V50.948C62.2036 50.472 62.0789 50.1093 61.8296 49.86C61.5803 49.6107 61.2006 49.486 60.6906 49.486C60.4413 49.486 60.1976 49.5313 59.9596 49.622C59.7216 49.7127 59.5006 49.843 59.2966 50.013C59.0926 50.183 58.9226 50.3813 58.7866 50.608V56.609C58.7866 56.745 58.7299 56.8527 58.6166 56.932C58.5033 57 58.3049 57.034 58.0216 57.034H57.7836ZM69.4565 60.604C68.7198 60.604 68.0795 60.5247 67.5355 60.366C66.9915 60.2187 66.5722 59.975 66.2775 59.635C65.9828 59.3063 65.8355 58.8757 65.8355 58.343C65.8355 58.0257 65.8978 57.731 66.0225 57.459C66.1472 57.187 66.3228 56.949 66.5495 56.745C66.7762 56.5297 67.0368 56.3653 67.3315 56.252L67.3485 56.201C67.1445 56.0537 66.9802 55.8667 66.8555 55.64C66.7308 55.4133 66.6685 55.147 66.6685 54.841C66.6685 54.4897 66.7478 54.1837 66.9065 53.923C67.0765 53.6623 67.3145 53.4357 67.6205 53.243C67.1558 53.005 66.7988 52.682 66.5495 52.274C66.3002 51.8547 66.1755 51.3787 66.1755 50.846C66.1755 50.2567 66.3115 49.7523 66.5835 49.333C66.8668 48.9137 67.2635 48.585 67.7735 48.347C68.2948 48.109 68.9125 47.99 69.6265 47.99C69.8192 47.99 70.0062 48.0013 70.1875 48.024C70.3688 48.0467 70.5445 48.075 70.7145 48.109H73.7065C73.8425 48.109 73.9388 48.16 73.9955 48.262C74.0635 48.3527 74.0975 48.5057 74.0975 48.721V48.942C74.0975 49.3387 73.9728 49.537 73.7235 49.537C73.6555 49.537 73.5478 49.5313 73.4005 49.52C73.2532 49.5087 73.1002 49.4973 72.9415 49.486C72.7942 49.4633 72.6695 49.4407 72.5675 49.418L72.5505 49.452C72.6752 49.588 72.7715 49.7297 72.8395 49.877C72.9188 50.0243 72.9698 50.1773 72.9925 50.336C73.0265 50.4947 73.0435 50.6647 73.0435 50.846C73.0435 51.4127 72.9075 51.9057 72.6355 52.325C72.3635 52.7443 71.9782 53.073 71.4795 53.311C70.9808 53.5377 70.3745 53.651 69.6605 53.651C69.3318 53.651 69.0598 53.685 68.8445 53.753C68.6292 53.8097 68.4705 53.906 68.3685 54.042C68.2778 54.1667 68.2325 54.3367 68.2325 54.552C68.2325 54.7787 68.3062 54.9543 68.4535 55.079C68.6008 55.2037 68.7992 55.3 69.0485 55.368C69.3092 55.436 69.5982 55.487 69.9155 55.521C70.2328 55.555 70.5558 55.5947 70.8845 55.64C71.3718 55.708 71.8195 55.8213 72.2275 55.98C72.6468 56.1387 72.9755 56.371 73.2135 56.677C73.4628 56.983 73.5875 57.408 73.5875 57.952C73.5875 58.496 73.4288 58.9663 73.1115 59.363C72.7942 59.7597 72.3238 60.0657 71.7005 60.281C71.0885 60.4963 70.3405 60.604 69.4565 60.604ZM69.6435 59.193C70.4142 59.193 70.9865 59.0967 71.3605 58.904C71.7345 58.7113 71.9215 58.4167 71.9215 58.02C71.9215 57.8047 71.8478 57.629 71.7005 57.493C71.5645 57.357 71.3718 57.2493 71.1225 57.17C70.8845 57.102 70.6125 57.051 70.3065 57.017C70.0118 56.983 69.7002 56.949 69.3715 56.915C69.0542 56.8697 68.7482 56.813 68.4535 56.745C68.1815 56.8697 67.9492 57.034 67.7565 57.238C67.5752 57.4533 67.4845 57.7197 67.4845 58.037C67.4845 58.2977 67.5525 58.513 67.6885 58.683C67.8358 58.8643 68.0682 58.9947 68.3855 59.074C68.7028 59.1533 69.1222 59.193 69.6435 59.193ZM69.6095 52.291C69.9382 52.291 70.2328 52.2457 70.4935 52.155C70.7655 52.0643 70.9808 51.9113 71.1395 51.696C71.3095 51.4807 71.3945 51.1917 71.3945 50.829C71.3945 50.4663 71.3095 50.1773 71.1395 49.962C70.9808 49.7467 70.7655 49.5937 70.4935 49.503C70.2328 49.4123 69.9382 49.367 69.6095 49.367C69.2808 49.367 68.9805 49.4123 68.7085 49.503C68.4478 49.5937 68.2382 49.7467 68.0795 49.962C67.9208 50.1773 67.8415 50.4663 67.8415 50.829C67.8415 51.373 68.0115 51.7527 68.3515 51.968C68.7028 52.1833 69.1222 52.291 69.6095 52.291ZM82.6508 57.119C82.1521 57.119 81.6874 57.0737 81.2568 56.983C80.8374 56.8923 80.4748 56.7847 80.1688 56.66C79.8628 56.524 79.6134 56.3937 79.4208 56.269C79.3074 56.1897 79.2054 56.1103 79.1148 56.031C79.0354 55.9517 78.9958 55.861 78.9958 55.759C78.9958 55.6797 79.0071 55.5833 79.0297 55.47C79.0638 55.3453 79.1034 55.2263 79.1488 55.113C79.2054 54.9883 79.2621 54.8863 79.3188 54.807C79.3868 54.7163 79.4548 54.671 79.5228 54.671C79.6361 54.671 79.8344 54.7447 80.1178 54.892C80.4011 55.0393 80.7524 55.1867 81.1718 55.334C81.6024 55.4813 82.0728 55.555 82.5828 55.555C83.0248 55.555 83.3931 55.4927 83.6878 55.368C83.9824 55.232 84.2034 55.0337 84.3508 54.773C84.4981 54.5123 84.5718 54.1837 84.5718 53.787C84.5718 53.4697 84.4981 53.2033 84.3508 52.988C84.2148 52.7613 84.0221 52.5687 83.7728 52.41C83.5234 52.24 83.2458 52.0927 82.9398 51.968C82.6338 51.8433 82.3164 51.713 81.9878 51.577C81.6478 51.441 81.3134 51.2937 80.9848 51.135C80.6561 50.965 80.3558 50.7553 80.0838 50.506C79.8231 50.2567 79.6134 49.9507 79.4548 49.588C79.3074 49.214 79.2338 48.755 79.2338 48.211C79.2338 47.7123 79.3301 47.2647 79.5228 46.868C79.7154 46.4713 79.9874 46.1313 80.3388 45.848C80.6901 45.5647 81.0924 45.3493 81.5458 45.202C82.0104 45.0547 82.5091 44.981 83.0418 44.981C83.3478 44.981 83.6594 45.0093 83.9768 45.066C84.2941 45.1227 84.5888 45.202 84.8608 45.304C85.1328 45.3947 85.3651 45.5023 85.5578 45.627C85.6598 45.6837 85.7448 45.7517 85.8128 45.831C85.8808 45.9103 85.9148 45.984 85.9148 46.052C85.9148 46.1313 85.8978 46.2333 85.8638 46.358C85.8411 46.4827 85.8071 46.6073 85.7618 46.732C85.7164 46.8453 85.6598 46.9473 85.5918 47.038C85.5238 47.1173 85.4558 47.157 85.3878 47.157C85.2744 47.157 85.1044 47.106 84.8778 47.004C84.6511 46.902 84.3848 46.8 84.0788 46.698C83.7728 46.596 83.4214 46.545 83.0248 46.545C82.6168 46.545 82.2711 46.613 81.9878 46.749C81.7044 46.8737 81.4834 47.0607 81.3248 47.31C81.1661 47.548 81.0868 47.837 81.0868 48.177C81.0868 48.5623 81.1888 48.874 81.3928 49.112C81.5968 49.3387 81.8631 49.5257 82.1918 49.673C82.5318 49.809 82.8944 49.9563 83.2798 50.115C83.6424 50.2623 84.0108 50.4267 84.3848 50.608C84.7588 50.778 85.1044 50.999 85.4218 51.271C85.7391 51.5317 85.9884 51.8603 86.1698 52.257C86.3624 52.6423 86.4588 53.1297 86.4588 53.719C86.4588 54.2743 86.3624 54.7673 86.1698 55.198C85.9884 55.6173 85.7278 55.9687 85.3878 56.252C85.0478 56.5353 84.6454 56.7507 84.1808 56.898C83.7161 57.0453 83.2061 57.119 82.6508 57.119ZM90.8278 57.119C90.3518 57.119 89.9494 57.0283 89.6208 56.847C89.3034 56.6657 89.0654 56.405 88.9068 56.065C88.7481 55.7137 88.6688 55.283 88.6688 54.773V49.554H87.9038C87.6431 49.554 87.5128 49.35 87.5128 48.942V48.721C87.5128 48.313 87.6431 48.109 87.9038 48.109H88.6688L88.8898 46.375C88.9124 46.2277 88.9748 46.12 89.0768 46.052C89.1788 45.984 89.3261 45.95 89.5188 45.95H89.7738C90.0118 45.95 90.1818 45.984 90.2838 46.052C90.3858 46.12 90.4368 46.2277 90.4368 46.375V48.109H91.7628C92.0234 48.109 92.1538 48.313 92.1538 48.721V48.942C92.1538 49.35 92.0234 49.554 91.7628 49.554H90.4368V54.739C90.4368 55.0677 90.4878 55.3 90.5898 55.436C90.7031 55.572 90.8958 55.64 91.1678 55.64C91.4171 55.64 91.5928 55.6117 91.6948 55.555C91.8081 55.4983 91.9044 55.47 91.9838 55.47C92.0518 55.47 92.1028 55.5153 92.1368 55.606C92.1821 55.6853 92.2161 55.7873 92.2388 55.912C92.2728 56.0253 92.2898 56.1387 92.2898 56.252C92.3011 56.354 92.3068 56.4277 92.3068 56.473C92.3068 56.5977 92.2218 56.711 92.0518 56.813C91.8931 56.9037 91.7004 56.9773 91.4738 57.034C91.2471 57.0907 91.0318 57.119 90.8278 57.119ZM96.3663 57.119C95.5163 57.119 94.8363 56.9037 94.3263 56.473C93.8276 56.031 93.5783 55.402 93.5783 54.586C93.5783 54.0647 93.6633 53.6113 93.8333 53.226C94.0033 52.8407 94.2866 52.5177 94.6833 52.257C95.0913 51.9963 95.6466 51.8037 96.3493 51.679C97.052 51.543 97.9303 51.475 98.9843 51.475V50.744C98.9843 50.4947 98.9276 50.2737 98.8143 50.081C98.7123 49.8883 98.5366 49.7353 98.2873 49.622C98.038 49.4973 97.7036 49.435 97.2843 49.435C96.8083 49.435 96.3833 49.4917 96.0093 49.605C95.6353 49.707 95.3293 49.8147 95.0913 49.928C94.8533 50.03 94.6946 50.081 94.6153 50.081C94.5473 50.081 94.485 50.047 94.4283 49.979C94.3716 49.8997 94.315 49.8033 94.2583 49.69C94.213 49.5767 94.1733 49.4633 94.1393 49.35C94.1053 49.2367 94.0883 49.1403 94.0883 49.061C94.0883 48.9477 94.1846 48.8343 94.3773 48.721C94.57 48.5963 94.825 48.483 95.1423 48.381C95.471 48.2677 95.828 48.177 96.2133 48.109C96.61 48.0297 97.001 47.99 97.3863 47.99C97.9416 47.99 98.429 48.058 98.8483 48.194C99.2676 48.3187 99.6133 48.5 99.8853 48.738C100.169 48.976 100.378 49.265 100.514 49.605C100.662 49.9337 100.735 50.302 100.735 50.71V54.331C100.735 54.8297 100.752 55.232 100.786 55.538C100.82 55.8327 100.849 56.0593 100.871 56.218C100.905 56.3767 100.922 56.5013 100.922 56.592C100.922 56.66 100.877 56.7223 100.786 56.779C100.696 56.8243 100.582 56.864 100.446 56.898C100.31 56.932 100.169 56.9603 100.021 56.983C99.8853 56.9943 99.7663 57 99.6643 57C99.5396 57 99.4433 56.9547 99.3753 56.864C99.3186 56.7733 99.2676 56.643 99.2223 56.473C99.1883 56.2917 99.143 56.0763 99.0863 55.827C98.9276 56.0197 98.7236 56.218 98.4743 56.422C98.225 56.6147 97.9246 56.779 97.5733 56.915C97.222 57.051 96.8196 57.119 96.3663 57.119ZM96.6553 55.657C97.0066 55.657 97.324 55.606 97.6073 55.504C97.8906 55.3907 98.1456 55.249 98.3723 55.079C98.599 54.909 98.803 54.722 98.9843 54.518V52.818C98.2703 52.818 97.681 52.8463 97.2163 52.903C96.7516 52.9597 96.3833 53.056 96.1113 53.192C95.8506 53.3167 95.6636 53.4867 95.5503 53.702C95.437 53.906 95.3803 54.1553 95.3803 54.45C95.3803 54.8353 95.488 55.1357 95.7033 55.351C95.9186 55.555 96.236 55.657 96.6553 55.657ZM105.902 57.119C105.426 57.119 105.024 57.0283 104.695 56.847C104.378 56.6657 104.14 56.405 103.981 56.065C103.822 55.7137 103.743 55.283 103.743 54.773V49.554H102.978C102.717 49.554 102.587 49.35 102.587 48.942V48.721C102.587 48.313 102.717 48.109 102.978 48.109H103.743L103.964 46.375C103.987 46.2277 104.049 46.12 104.151 46.052C104.253 45.984 104.4 45.95 104.593 45.95H104.848C105.086 45.95 105.256 45.984 105.358 46.052C105.46 46.12 105.511 46.2277 105.511 46.375V48.109H106.837C107.098 48.109 107.228 48.313 107.228 48.721V48.942C107.228 49.35 107.098 49.554 106.837 49.554H105.511V54.739C105.511 55.0677 105.562 55.3 105.664 55.436C105.777 55.572 105.97 55.64 106.242 55.64C106.491 55.64 106.667 55.6117 106.769 55.555C106.882 55.4983 106.979 55.47 107.058 55.47C107.126 55.47 107.177 55.5153 107.211 55.606C107.256 55.6853 107.29 55.7873 107.313 55.912C107.347 56.0253 107.364 56.1387 107.364 56.252C107.375 56.354 107.381 56.4277 107.381 56.473C107.381 56.5977 107.296 56.711 107.126 56.813C106.967 56.9037 106.775 56.9773 106.548 57.034C106.321 57.0907 106.106 57.119 105.902 57.119ZM111.628 57.119C110.789 57.119 110.137 56.8867 109.673 56.422C109.219 55.946 108.993 55.2773 108.993 54.416V48.5C108.993 48.364 109.049 48.262 109.163 48.194C109.276 48.1147 109.474 48.075 109.758 48.075H109.996C110.279 48.075 110.477 48.1147 110.591 48.194C110.704 48.262 110.761 48.364 110.761 48.5V54.212C110.761 54.6653 110.88 55.0167 111.118 55.266C111.356 55.504 111.718 55.623 112.206 55.623C112.466 55.623 112.716 55.5777 112.954 55.487C113.203 55.3963 113.435 55.266 113.651 55.096C113.866 54.926 114.042 54.7277 114.178 54.501V48.5C114.178 48.364 114.234 48.262 114.348 48.194C114.461 48.1147 114.659 48.075 114.943 48.075H115.181C115.464 48.075 115.662 48.1147 115.776 48.194C115.889 48.262 115.946 48.364 115.946 48.5V54.331C115.946 54.807 115.957 55.1923 115.98 55.487C116.014 55.7817 116.042 56.014 116.065 56.184C116.099 56.354 116.116 56.4843 116.116 56.575C116.116 56.6543 116.065 56.7223 115.963 56.779C115.872 56.8357 115.759 56.881 115.623 56.915C115.487 56.9377 115.345 56.9603 115.198 56.983C115.062 56.9943 114.948 57 114.858 57C114.744 57 114.654 56.966 114.586 56.898C114.529 56.83 114.478 56.711 114.433 56.541C114.387 56.3597 114.336 56.1217 114.28 55.827C114.076 56.0763 113.826 56.2973 113.532 56.49C113.248 56.6827 112.942 56.8357 112.614 56.949C112.296 57.0623 111.968 57.119 111.628 57.119ZM120.665 57.153C120.303 57.153 119.957 57.119 119.628 57.051C119.3 56.983 119.005 56.8923 118.744 56.779C118.495 56.6657 118.297 56.5467 118.149 56.422C118.002 56.2973 117.928 56.1727 117.928 56.048C117.928 55.9573 117.968 55.8383 118.047 55.691C118.127 55.5323 118.217 55.3907 118.319 55.266C118.421 55.13 118.518 55.062 118.608 55.062C118.665 55.062 118.773 55.1187 118.931 55.232C119.09 55.334 119.305 55.436 119.577 55.538C119.849 55.64 120.167 55.691 120.529 55.691C121.017 55.691 121.385 55.6003 121.634 55.419C121.884 55.2263 122.008 54.9487 122.008 54.586C122.008 54.3253 121.94 54.11 121.804 53.94C121.668 53.77 121.476 53.6283 121.226 53.515C120.988 53.4017 120.716 53.294 120.41 53.192C120.138 53.09 119.866 52.9767 119.594 52.852C119.322 52.7273 119.073 52.5687 118.846 52.376C118.631 52.1833 118.455 51.9397 118.319 51.645C118.195 51.3503 118.132 50.982 118.132 50.54C118.132 50.03 118.251 49.5823 118.489 49.197C118.739 48.8117 119.079 48.517 119.509 48.313C119.951 48.0977 120.456 47.99 121.022 47.99C121.306 47.99 121.583 48.007 121.855 48.041C122.127 48.075 122.377 48.1317 122.603 48.211C122.83 48.279 123.011 48.364 123.147 48.466C123.295 48.568 123.368 48.6757 123.368 48.789C123.368 48.891 123.334 49.027 123.266 49.197C123.198 49.3557 123.119 49.503 123.028 49.639C122.938 49.7637 122.847 49.826 122.756 49.826C122.7 49.826 122.541 49.758 122.28 49.622C122.031 49.486 121.68 49.418 121.226 49.418C120.841 49.418 120.518 49.503 120.257 49.673C120.008 49.8317 119.883 50.0753 119.883 50.404C119.883 50.608 119.929 50.7837 120.019 50.931C120.11 51.067 120.257 51.1917 120.461 51.305C120.665 51.407 120.926 51.5147 121.243 51.628C121.572 51.7413 121.889 51.8717 122.195 52.019C122.501 52.1663 122.773 52.3477 123.011 52.563C123.249 52.767 123.431 53.022 123.555 53.328C123.691 53.634 123.759 53.9967 123.759 54.416C123.759 54.9487 123.629 55.419 123.368 55.827C123.108 56.235 122.745 56.558 122.28 56.796C121.816 57.034 121.277 57.153 120.665 57.153ZM125.852 57.034C125.58 57.034 125.376 57 125.24 56.932C125.115 56.8527 125.053 56.745 125.053 56.609V55.368C125.053 55.2207 125.115 55.113 125.24 55.045C125.376 54.977 125.58 54.943 125.852 54.943H126.192C126.475 54.943 126.679 54.977 126.804 55.045C126.929 55.113 126.991 55.2207 126.991 55.368V56.609C126.991 56.745 126.929 56.8527 126.804 56.932C126.679 57 126.475 57.034 126.192 57.034H125.852ZM125.852 50.166C125.58 50.166 125.376 50.132 125.24 50.064C125.115 49.9847 125.053 49.877 125.053 49.741V48.5C125.053 48.3527 125.115 48.245 125.24 48.177C125.376 48.109 125.58 48.075 125.852 48.075H126.192C126.475 48.075 126.679 48.109 126.804 48.177C126.929 48.245 126.991 48.3527 126.991 48.5V49.741C126.991 49.877 126.929 49.9847 126.804 50.064C126.679 50.132 126.475 50.166 126.192 50.166H125.852Z" fill="#797A8A"/>
<path d="M132.762 57.034C132.479 57.034 132.269 57.0057 132.133 56.949C132.008 56.8923 131.946 56.8187 131.946 56.728C131.946 56.6827 131.952 56.643 131.963 56.609C131.974 56.5637 131.986 56.5127 131.997 56.456L135.941 45.355C135.975 45.2643 136.054 45.1963 136.179 45.151C136.315 45.0943 136.491 45.066 136.706 45.066H137.301C137.528 45.066 137.703 45.0943 137.828 45.151C137.953 45.1963 138.032 45.2643 138.066 45.355L142.01 56.473C142.033 56.5183 142.044 56.5637 142.044 56.609C142.055 56.643 142.061 56.6827 142.061 56.728C142.061 56.8073 141.999 56.881 141.874 56.949C141.761 57.0057 141.568 57.034 141.296 57.034H140.99C140.797 57.034 140.633 57.0113 140.497 56.966C140.361 56.9207 140.27 56.847 140.225 56.745L137.267 48.109C137.21 47.9503 137.159 47.786 137.114 47.616C137.069 47.4347 137.035 47.259 137.012 47.089H136.961C136.927 47.259 136.893 47.4347 136.859 47.616C136.825 47.786 136.78 47.9503 136.723 48.109L133.731 56.745C133.686 56.847 133.601 56.9207 133.476 56.966C133.351 57.0113 133.198 57.034 133.017 57.034H132.762ZM133.969 54.11V52.614H139.987V54.11H133.969ZM144.361 60.519C144.077 60.519 143.879 60.4793 143.766 60.4C143.652 60.332 143.596 60.23 143.596 60.094V50.778C143.596 50.302 143.579 49.9167 143.545 49.622C143.522 49.3273 143.494 49.095 143.46 48.925C143.437 48.755 143.426 48.6247 143.426 48.534C143.426 48.466 143.471 48.4037 143.562 48.347C143.664 48.2903 143.783 48.245 143.919 48.211C144.055 48.177 144.191 48.1543 144.327 48.143C144.474 48.1317 144.593 48.126 144.684 48.126C144.797 48.126 144.882 48.16 144.939 48.228C144.995 48.2847 145.046 48.3923 145.092 48.551C145.137 48.6983 145.188 48.9023 145.245 49.163C145.471 48.9137 145.721 48.704 145.993 48.534C146.265 48.3527 146.554 48.2167 146.86 48.126C147.166 48.0353 147.477 47.99 147.795 47.99C148.486 47.99 149.075 48.1657 149.563 48.517C150.05 48.8683 150.424 49.3783 150.685 50.047C150.957 50.7157 151.093 51.5373 151.093 52.512C151.093 53.4187 150.957 54.2177 150.685 54.909C150.424 55.589 150.039 56.1273 149.529 56.524C149.019 56.9207 148.412 57.119 147.71 57.119C147.404 57.119 147.109 57.0793 146.826 57C146.542 56.9207 146.276 56.813 146.027 56.677C145.777 56.541 145.556 56.388 145.364 56.218V60.094C145.364 60.23 145.307 60.332 145.194 60.4C145.08 60.4793 144.882 60.519 144.599 60.519H144.361ZM147.353 55.657C147.976 55.657 148.452 55.385 148.781 54.841C149.109 54.297 149.274 53.5207 149.274 52.512C149.274 51.4807 149.092 50.7213 148.73 50.234C148.378 49.7353 147.891 49.486 147.268 49.486C146.916 49.486 146.576 49.5767 146.248 49.758C145.919 49.9393 145.624 50.1887 145.364 50.506V54.722C145.658 55.028 145.976 55.2603 146.316 55.419C146.656 55.5777 147.001 55.657 147.353 55.657ZM154.106 60.519C153.823 60.519 153.624 60.4793 153.511 60.4C153.398 60.332 153.341 60.23 153.341 60.094V50.778C153.341 50.302 153.324 49.9167 153.29 49.622C153.267 49.3273 153.239 49.095 153.205 48.925C153.182 48.755 153.171 48.6247 153.171 48.534C153.171 48.466 153.216 48.4037 153.307 48.347C153.409 48.2903 153.528 48.245 153.664 48.211C153.8 48.177 153.936 48.1543 154.072 48.143C154.219 48.1317 154.338 48.126 154.429 48.126C154.542 48.126 154.627 48.16 154.684 48.228C154.741 48.2847 154.792 48.3923 154.837 48.551C154.882 48.6983 154.933 48.9023 154.99 49.163C155.217 48.9137 155.466 48.704 155.738 48.534C156.01 48.3527 156.299 48.2167 156.605 48.126C156.911 48.0353 157.223 47.99 157.54 47.99C158.231 47.99 158.821 48.1657 159.308 48.517C159.795 48.8683 160.169 49.3783 160.43 50.047C160.702 50.7157 160.838 51.5373 160.838 52.512C160.838 53.4187 160.702 54.2177 160.43 54.909C160.169 55.589 159.784 56.1273 159.274 56.524C158.764 56.9207 158.158 57.119 157.455 57.119C157.149 57.119 156.854 57.0793 156.571 57C156.288 56.9207 156.021 56.813 155.772 56.677C155.523 56.541 155.302 56.388 155.109 56.218V60.094C155.109 60.23 155.052 60.332 154.939 60.4C154.826 60.4793 154.627 60.519 154.344 60.519H154.106ZM157.098 55.657C157.721 55.657 158.197 55.385 158.526 54.841C158.855 54.297 159.019 53.5207 159.019 52.512C159.019 51.4807 158.838 50.7213 158.475 50.234C158.124 49.7353 157.636 49.486 157.013 49.486C156.662 49.486 156.322 49.5767 155.993 49.758C155.664 49.9393 155.37 50.1887 155.109 50.506V54.722C155.404 55.028 155.721 55.2603 156.061 55.419C156.401 55.5777 156.747 55.657 157.098 55.657ZM163.919 57.034C163.647 57.034 163.449 57 163.324 56.932C163.199 56.8527 163.137 56.745 163.137 56.609V50.778C163.137 50.302 163.12 49.9167 163.086 49.622C163.063 49.3273 163.035 49.095 163.001 48.925C162.978 48.755 162.967 48.6247 162.967 48.534C162.967 48.466 163.012 48.4037 163.103 48.347C163.205 48.2903 163.324 48.245 163.46 48.211C163.596 48.177 163.732 48.1543 163.868 48.143C164.015 48.1317 164.134 48.126 164.225 48.126C164.338 48.126 164.429 48.1657 164.497 48.245C164.565 48.313 164.622 48.4377 164.667 48.619C164.724 48.789 164.775 49.027 164.82 49.333C164.979 49.0383 165.171 48.7947 165.398 48.602C165.625 48.398 165.874 48.245 166.146 48.143C166.418 48.041 166.701 47.99 166.996 47.99C167.223 47.99 167.387 48.041 167.489 48.143C167.591 48.245 167.642 48.398 167.642 48.602C167.642 48.7153 167.631 48.8457 167.608 48.993C167.585 49.129 167.557 49.265 167.523 49.401C167.489 49.5257 167.444 49.6333 167.387 49.724C167.342 49.8033 167.279 49.843 167.2 49.843C167.109 49.843 167.007 49.8203 166.894 49.775C166.781 49.7183 166.605 49.69 166.367 49.69C166.027 49.69 165.721 49.7807 165.449 49.962C165.188 50.1433 165.007 50.3927 164.905 50.71V56.609C164.905 56.745 164.843 56.8527 164.718 56.932C164.593 57 164.389 57.034 164.106 57.034H163.919ZM172.465 57.119C171.173 57.119 170.181 56.728 169.49 55.946C168.81 55.164 168.47 54.042 168.47 52.58C168.47 51.1067 168.81 49.9733 169.49 49.18C170.181 48.3867 171.173 47.99 172.465 47.99C173.745 47.99 174.72 48.3867 175.389 49.18C176.069 49.962 176.409 51.0953 176.409 52.58C176.409 54.0533 176.074 55.181 175.406 55.963C174.748 56.7337 173.768 57.119 172.465 57.119ZM172.431 55.674C173.179 55.674 173.723 55.419 174.063 54.909C174.414 54.399 174.59 53.617 174.59 52.563C174.59 51.509 174.414 50.727 174.063 50.217C173.723 49.6957 173.179 49.435 172.431 49.435C171.694 49.435 171.15 49.69 170.799 50.2C170.459 50.71 170.289 51.4977 170.289 52.563C170.289 53.617 170.459 54.399 170.799 54.909C171.15 55.419 171.694 55.674 172.431 55.674ZM180.923 57.034C180.731 57.034 180.561 57.0113 180.413 56.966C180.277 56.9093 180.181 56.8073 180.124 56.66L177.472 48.636C177.461 48.602 177.444 48.5623 177.421 48.517C177.41 48.4717 177.404 48.4263 177.404 48.381C177.404 48.2903 177.472 48.2167 177.608 48.16C177.744 48.1033 177.948 48.075 178.22 48.075H178.509C178.702 48.075 178.866 48.0977 179.002 48.143C179.15 48.1883 179.24 48.262 179.274 48.364L181.263 55.385H181.331L183.337 48.364C183.371 48.262 183.456 48.1883 183.592 48.143C183.74 48.0977 183.91 48.075 184.102 48.075H184.323C184.595 48.075 184.788 48.1033 184.901 48.16C185.015 48.2167 185.071 48.2903 185.071 48.381C185.071 48.4263 185.066 48.4717 185.054 48.517C185.054 48.551 185.043 48.5963 185.02 48.653L182.368 56.66C182.323 56.8073 182.221 56.9093 182.062 56.966C181.915 57.0113 181.745 57.034 181.552 57.034H180.923ZM190.232 57.119C188.861 57.119 187.824 56.7563 187.121 56.031C186.419 55.3057 186.067 54.161 186.067 52.597C186.067 51.577 186.226 50.727 186.543 50.047C186.872 49.367 187.337 48.857 187.937 48.517C188.538 48.1657 189.258 47.99 190.096 47.99C190.901 47.99 191.564 48.1713 192.085 48.534C192.607 48.8853 192.992 49.3897 193.241 50.047C193.491 50.7043 193.615 51.4807 193.615 52.376C193.615 52.4893 193.581 52.614 193.513 52.75C193.445 52.8747 193.355 52.9823 193.241 53.073C193.139 53.1637 193.032 53.209 192.918 53.209H187.886C187.909 54.0703 188.119 54.6993 188.515 55.096C188.923 55.4813 189.513 55.674 190.283 55.674C190.782 55.674 191.207 55.6117 191.558 55.487C191.921 55.3623 192.21 55.2433 192.425 55.13C192.652 55.0167 192.799 54.96 192.867 54.96C192.958 54.96 193.043 55.0167 193.122 55.13C193.202 55.2433 193.264 55.3793 193.309 55.538C193.366 55.6853 193.394 55.8043 193.394 55.895C193.394 56.0197 193.304 56.15 193.122 56.286C192.941 56.422 192.697 56.558 192.391 56.694C192.097 56.8187 191.762 56.9207 191.388 57C191.014 57.0793 190.629 57.119 190.232 57.119ZM187.869 51.849H191.881C191.881 51.0443 191.717 50.4437 191.388 50.047C191.06 49.639 190.584 49.435 189.96 49.435C189.541 49.435 189.178 49.5257 188.872 49.707C188.566 49.8883 188.323 50.1547 188.141 50.506C187.971 50.8573 187.881 51.305 187.869 51.849ZM198.278 57.119C197.621 57.119 197.049 56.9433 196.561 56.592C196.085 56.2407 195.717 55.7307 195.456 55.062C195.196 54.382 195.065 53.5603 195.065 52.597C195.065 51.6903 195.196 50.897 195.456 50.217C195.728 49.5257 196.108 48.9817 196.595 48.585C197.094 48.1883 197.683 47.99 198.363 47.99C198.817 47.99 199.242 48.0637 199.638 48.211C200.046 48.347 200.386 48.517 200.658 48.721V44.641C200.658 44.4937 200.721 44.386 200.845 44.318C200.97 44.2387 201.174 44.199 201.457 44.199H201.644C201.916 44.199 202.115 44.2387 202.239 44.318C202.364 44.386 202.426 44.4937 202.426 44.641V54.331C202.426 54.807 202.438 55.1923 202.46 55.487C202.494 55.7817 202.523 56.014 202.545 56.184C202.579 56.354 202.596 56.4843 202.596 56.575C202.596 56.6543 202.545 56.7223 202.443 56.779C202.353 56.8357 202.239 56.881 202.103 56.915C201.967 56.9377 201.826 56.9603 201.678 56.983C201.542 56.9943 201.429 57 201.338 57C201.225 57 201.134 56.966 201.066 56.898C201.01 56.83 200.959 56.711 200.913 56.541C200.868 56.3597 200.817 56.1217 200.76 55.827C200.568 56.0877 200.335 56.3143 200.063 56.507C199.791 56.6997 199.502 56.8527 199.196 56.966C198.902 57.068 198.596 57.119 198.278 57.119ZM198.805 55.623C199.157 55.623 199.497 55.521 199.825 55.317C200.154 55.1017 200.432 54.8297 200.658 54.501V50.217C200.375 49.9677 200.063 49.7807 199.723 49.656C199.395 49.52 199.066 49.452 198.737 49.452C198.137 49.452 197.678 49.724 197.36 50.268C197.043 50.812 196.884 51.5883 196.884 52.597C196.884 53.6283 197.054 54.3933 197.394 54.892C197.734 55.3793 198.205 55.623 198.805 55.623Z" fill="#60BD31"/>
<path d="M29 177H361.856" stroke="#797A8A" stroke-width="1.60412" stroke-linecap="round"/>
<rect x="27.2314" y="68" width="152.691" height="22.2222" fill="#D9D9D9"/>
<rect x="27.2314" y="101.333" width="334.558" height="14.8148" fill="#ECECEC"/>
<rect x="27.2314" y="127.259" width="79.7493" height="14.8148" fill="#D9D9D9"/>
<rect x="113.789" y="127.259" width="146.855" height="14.8148" fill="#ECECEC"/>
<rect x="240.22" y="153.185" width="121.569" height="14.8148" fill="#ECECEC"/>
<rect x="269.397" y="127.259" width="92.3925" height="14.8148" fill="#D9D9D9"/>
</svg>
